%TF.GenerationSoftware,KiCad,Pcbnew,10.0.5*%
%TF.CreationDate,2026-10-10T11:44:41-07:00*%
%TF.ProjectId,irin,6972696e-2e6b-4696-9361-645f70636258,rev?*%
%TF.SameCoordinates,Original*%
%TF.FileFunction,Legend,Top*%
%TF.FilePolarity,Positive*%
%FSLAX46Y46*%
G04 Gerber Fmt 4.6, Leading zero omitted, Abs format (unit mm)*
G04 Created by KiCad (PCBNEW 10.0.5) date 2026-10-10 11:44:41*
%MOMM*%
%LPD*%
G01*
G04 APERTURE LIST*
%ADD10C,0.150000*%
%ADD11C,0.250000*%
%ADD12C,0.300000*%
%ADD13C,0.100000*%
%ADD14C,0.120000*%
G04 APERTURE END LIST*
D10*
X48476400Y-65831400D02*
X56476400Y-65831400D01*
X56476400Y-68331400D01*
X48476400Y-68331400D01*
X48476400Y-65831400D01*
X49630390Y-30041792D02*
X49592295Y-30117982D01*
X49592295Y-30117982D02*
X49592295Y-30232268D01*
X49592295Y-30232268D02*
X49630390Y-30346554D01*
X49630390Y-30346554D02*
X49706580Y-30422744D01*
X49706580Y-30422744D02*
X49782771Y-30460839D01*
X49782771Y-30460839D02*
X49935152Y-30498935D01*
X49935152Y-30498935D02*
X50049438Y-30498935D01*
X50049438Y-30498935D02*
X50201819Y-30460839D01*
X50201819Y-30460839D02*
X50278009Y-30422744D01*
X50278009Y-30422744D02*
X50354200Y-30346554D01*
X50354200Y-30346554D02*
X50392295Y-30232268D01*
X50392295Y-30232268D02*
X50392295Y-30156077D01*
X50392295Y-30156077D02*
X50354200Y-30041792D01*
X50354200Y-30041792D02*
X50316104Y-30003696D01*
X50316104Y-30003696D02*
X50049438Y-30003696D01*
X50049438Y-30003696D02*
X50049438Y-30156077D01*
X50392295Y-29660839D02*
X49592295Y-29660839D01*
X49592295Y-29660839D02*
X50392295Y-29203696D01*
X50392295Y-29203696D02*
X49592295Y-29203696D01*
X50392295Y-28822744D02*
X49592295Y-28822744D01*
X49592295Y-28822744D02*
X49592295Y-28632268D01*
X49592295Y-28632268D02*
X49630390Y-28517982D01*
X49630390Y-28517982D02*
X49706580Y-28441792D01*
X49706580Y-28441792D02*
X49782771Y-28403697D01*
X49782771Y-28403697D02*
X49935152Y-28365601D01*
X49935152Y-28365601D02*
X50049438Y-28365601D01*
X50049438Y-28365601D02*
X50201819Y-28403697D01*
X50201819Y-28403697D02*
X50278009Y-28441792D01*
X50278009Y-28441792D02*
X50354200Y-28517982D01*
X50354200Y-28517982D02*
X50392295Y-28632268D01*
X50392295Y-28632268D02*
X50392295Y-28822744D01*
X52892295Y-30460839D02*
X52092295Y-30460839D01*
X52092295Y-30460839D02*
X52092295Y-30270363D01*
X52092295Y-30270363D02*
X52130390Y-30156077D01*
X52130390Y-30156077D02*
X52206580Y-30079887D01*
X52206580Y-30079887D02*
X52282771Y-30041792D01*
X52282771Y-30041792D02*
X52435152Y-30003696D01*
X52435152Y-30003696D02*
X52549438Y-30003696D01*
X52549438Y-30003696D02*
X52701819Y-30041792D01*
X52701819Y-30041792D02*
X52778009Y-30079887D01*
X52778009Y-30079887D02*
X52854200Y-30156077D01*
X52854200Y-30156077D02*
X52892295Y-30270363D01*
X52892295Y-30270363D02*
X52892295Y-30460839D01*
X52663723Y-29698935D02*
X52663723Y-29317982D01*
X52892295Y-29775125D02*
X52092295Y-29508458D01*
X52092295Y-29508458D02*
X52892295Y-29241792D01*
X52092295Y-29089411D02*
X52092295Y-28632268D01*
X52892295Y-28860840D02*
X52092295Y-28860840D01*
X52663723Y-28403697D02*
X52663723Y-28022744D01*
X52892295Y-28479887D02*
X52092295Y-28213220D01*
X52092295Y-28213220D02*
X52892295Y-27946554D01*
X54592295Y-30575125D02*
X55392295Y-30308458D01*
X55392295Y-30308458D02*
X54592295Y-30041792D01*
X55316104Y-29317982D02*
X55354200Y-29356078D01*
X55354200Y-29356078D02*
X55392295Y-29470363D01*
X55392295Y-29470363D02*
X55392295Y-29546554D01*
X55392295Y-29546554D02*
X55354200Y-29660840D01*
X55354200Y-29660840D02*
X55278009Y-29737030D01*
X55278009Y-29737030D02*
X55201819Y-29775125D01*
X55201819Y-29775125D02*
X55049438Y-29813221D01*
X55049438Y-29813221D02*
X54935152Y-29813221D01*
X54935152Y-29813221D02*
X54782771Y-29775125D01*
X54782771Y-29775125D02*
X54706580Y-29737030D01*
X54706580Y-29737030D02*
X54630390Y-29660840D01*
X54630390Y-29660840D02*
X54592295Y-29546554D01*
X54592295Y-29546554D02*
X54592295Y-29470363D01*
X54592295Y-29470363D02*
X54630390Y-29356078D01*
X54630390Y-29356078D02*
X54668485Y-29317982D01*
X55316104Y-28517982D02*
X55354200Y-28556078D01*
X55354200Y-28556078D02*
X55392295Y-28670363D01*
X55392295Y-28670363D02*
X55392295Y-28746554D01*
X55392295Y-28746554D02*
X55354200Y-28860840D01*
X55354200Y-28860840D02*
X55278009Y-28937030D01*
X55278009Y-28937030D02*
X55201819Y-28975125D01*
X55201819Y-28975125D02*
X55049438Y-29013221D01*
X55049438Y-29013221D02*
X54935152Y-29013221D01*
X54935152Y-29013221D02*
X54782771Y-28975125D01*
X54782771Y-28975125D02*
X54706580Y-28937030D01*
X54706580Y-28937030D02*
X54630390Y-28860840D01*
X54630390Y-28860840D02*
X54592295Y-28746554D01*
X54592295Y-28746554D02*
X54592295Y-28670363D01*
X54592295Y-28670363D02*
X54630390Y-28556078D01*
X54630390Y-28556078D02*
X54668485Y-28517982D01*
X22584398Y-44798557D02*
X22884398Y-45698557D01*
X22884398Y-45698557D02*
X23184398Y-44798557D01*
X23484398Y-45698557D02*
X23484398Y-44798557D01*
X23484398Y-44798557D02*
X23698684Y-44798557D01*
X23698684Y-44798557D02*
X23827255Y-44841414D01*
X23827255Y-44841414D02*
X23912970Y-44927128D01*
X23912970Y-44927128D02*
X23955827Y-45012842D01*
X23955827Y-45012842D02*
X23998684Y-45184271D01*
X23998684Y-45184271D02*
X23998684Y-45312842D01*
X23998684Y-45312842D02*
X23955827Y-45484271D01*
X23955827Y-45484271D02*
X23912970Y-45569985D01*
X23912970Y-45569985D02*
X23827255Y-45655700D01*
X23827255Y-45655700D02*
X23698684Y-45698557D01*
X23698684Y-45698557D02*
X23484398Y-45698557D01*
X24384398Y-45698557D02*
X24384398Y-44798557D01*
X24384398Y-44798557D02*
X24598684Y-44798557D01*
X24598684Y-44798557D02*
X24727255Y-44841414D01*
X24727255Y-44841414D02*
X24812970Y-44927128D01*
X24812970Y-44927128D02*
X24855827Y-45012842D01*
X24855827Y-45012842D02*
X24898684Y-45184271D01*
X24898684Y-45184271D02*
X24898684Y-45312842D01*
X24898684Y-45312842D02*
X24855827Y-45484271D01*
X24855827Y-45484271D02*
X24812970Y-45569985D01*
X24812970Y-45569985D02*
X24727255Y-45655700D01*
X24727255Y-45655700D02*
X24598684Y-45698557D01*
X24598684Y-45698557D02*
X24384398Y-45698557D01*
X23184398Y-47381414D02*
X23098684Y-47338557D01*
X23098684Y-47338557D02*
X22970112Y-47338557D01*
X22970112Y-47338557D02*
X22841541Y-47381414D01*
X22841541Y-47381414D02*
X22755826Y-47467128D01*
X22755826Y-47467128D02*
X22712969Y-47552842D01*
X22712969Y-47552842D02*
X22670112Y-47724271D01*
X22670112Y-47724271D02*
X22670112Y-47852842D01*
X22670112Y-47852842D02*
X22712969Y-48024271D01*
X22712969Y-48024271D02*
X22755826Y-48109985D01*
X22755826Y-48109985D02*
X22841541Y-48195700D01*
X22841541Y-48195700D02*
X22970112Y-48238557D01*
X22970112Y-48238557D02*
X23055826Y-48238557D01*
X23055826Y-48238557D02*
X23184398Y-48195700D01*
X23184398Y-48195700D02*
X23227255Y-48152842D01*
X23227255Y-48152842D02*
X23227255Y-47852842D01*
X23227255Y-47852842D02*
X23055826Y-47852842D01*
X23612969Y-48238557D02*
X23612969Y-47338557D01*
X23612969Y-47338557D02*
X24127255Y-48238557D01*
X24127255Y-48238557D02*
X24127255Y-47338557D01*
X24555826Y-48238557D02*
X24555826Y-47338557D01*
X24555826Y-47338557D02*
X24770112Y-47338557D01*
X24770112Y-47338557D02*
X24898683Y-47381414D01*
X24898683Y-47381414D02*
X24984398Y-47467128D01*
X24984398Y-47467128D02*
X25027255Y-47552842D01*
X25027255Y-47552842D02*
X25070112Y-47724271D01*
X25070112Y-47724271D02*
X25070112Y-47852842D01*
X25070112Y-47852842D02*
X25027255Y-48024271D01*
X25027255Y-48024271D02*
X24984398Y-48109985D01*
X24984398Y-48109985D02*
X24898683Y-48195700D01*
X24898683Y-48195700D02*
X24770112Y-48238557D01*
X24770112Y-48238557D02*
X24555826Y-48238557D01*
X22670112Y-50735700D02*
X22798684Y-50778557D01*
X22798684Y-50778557D02*
X23012969Y-50778557D01*
X23012969Y-50778557D02*
X23098684Y-50735700D01*
X23098684Y-50735700D02*
X23141541Y-50692842D01*
X23141541Y-50692842D02*
X23184398Y-50607128D01*
X23184398Y-50607128D02*
X23184398Y-50521414D01*
X23184398Y-50521414D02*
X23141541Y-50435700D01*
X23141541Y-50435700D02*
X23098684Y-50392842D01*
X23098684Y-50392842D02*
X23012969Y-50349985D01*
X23012969Y-50349985D02*
X22841541Y-50307128D01*
X22841541Y-50307128D02*
X22755826Y-50264271D01*
X22755826Y-50264271D02*
X22712969Y-50221414D01*
X22712969Y-50221414D02*
X22670112Y-50135700D01*
X22670112Y-50135700D02*
X22670112Y-50049985D01*
X22670112Y-50049985D02*
X22712969Y-49964271D01*
X22712969Y-49964271D02*
X22755826Y-49921414D01*
X22755826Y-49921414D02*
X22841541Y-49878557D01*
X22841541Y-49878557D02*
X23055826Y-49878557D01*
X23055826Y-49878557D02*
X23184398Y-49921414D01*
X24084398Y-50692842D02*
X24041541Y-50735700D01*
X24041541Y-50735700D02*
X23912969Y-50778557D01*
X23912969Y-50778557D02*
X23827255Y-50778557D01*
X23827255Y-50778557D02*
X23698684Y-50735700D01*
X23698684Y-50735700D02*
X23612969Y-50649985D01*
X23612969Y-50649985D02*
X23570112Y-50564271D01*
X23570112Y-50564271D02*
X23527255Y-50392842D01*
X23527255Y-50392842D02*
X23527255Y-50264271D01*
X23527255Y-50264271D02*
X23570112Y-50092842D01*
X23570112Y-50092842D02*
X23612969Y-50007128D01*
X23612969Y-50007128D02*
X23698684Y-49921414D01*
X23698684Y-49921414D02*
X23827255Y-49878557D01*
X23827255Y-49878557D02*
X23912969Y-49878557D01*
X23912969Y-49878557D02*
X24041541Y-49921414D01*
X24041541Y-49921414D02*
X24084398Y-49964271D01*
X24898684Y-50778557D02*
X24470112Y-50778557D01*
X24470112Y-50778557D02*
X24470112Y-49878557D01*
X22670112Y-53275700D02*
X22798684Y-53318557D01*
X22798684Y-53318557D02*
X23012969Y-53318557D01*
X23012969Y-53318557D02*
X23098684Y-53275700D01*
X23098684Y-53275700D02*
X23141541Y-53232842D01*
X23141541Y-53232842D02*
X23184398Y-53147128D01*
X23184398Y-53147128D02*
X23184398Y-53061414D01*
X23184398Y-53061414D02*
X23141541Y-52975700D01*
X23141541Y-52975700D02*
X23098684Y-52932842D01*
X23098684Y-52932842D02*
X23012969Y-52889985D01*
X23012969Y-52889985D02*
X22841541Y-52847128D01*
X22841541Y-52847128D02*
X22755826Y-52804271D01*
X22755826Y-52804271D02*
X22712969Y-52761414D01*
X22712969Y-52761414D02*
X22670112Y-52675700D01*
X22670112Y-52675700D02*
X22670112Y-52589985D01*
X22670112Y-52589985D02*
X22712969Y-52504271D01*
X22712969Y-52504271D02*
X22755826Y-52461414D01*
X22755826Y-52461414D02*
X22841541Y-52418557D01*
X22841541Y-52418557D02*
X23055826Y-52418557D01*
X23055826Y-52418557D02*
X23184398Y-52461414D01*
X23570112Y-53318557D02*
X23570112Y-52418557D01*
X23570112Y-52418557D02*
X23784398Y-52418557D01*
X23784398Y-52418557D02*
X23912969Y-52461414D01*
X23912969Y-52461414D02*
X23998684Y-52547128D01*
X23998684Y-52547128D02*
X24041541Y-52632842D01*
X24041541Y-52632842D02*
X24084398Y-52804271D01*
X24084398Y-52804271D02*
X24084398Y-52932842D01*
X24084398Y-52932842D02*
X24041541Y-53104271D01*
X24041541Y-53104271D02*
X23998684Y-53189985D01*
X23998684Y-53189985D02*
X23912969Y-53275700D01*
X23912969Y-53275700D02*
X23784398Y-53318557D01*
X23784398Y-53318557D02*
X23570112Y-53318557D01*
X24427255Y-53061414D02*
X24855827Y-53061414D01*
X24341541Y-53318557D02*
X24641541Y-52418557D01*
X24641541Y-52418557D02*
X24941541Y-53318557D01*
X22670112Y-55601414D02*
X23098684Y-55601414D01*
X22584398Y-55858557D02*
X22884398Y-54958557D01*
X22884398Y-54958557D02*
X23184398Y-55858557D01*
X23484398Y-55858557D02*
X23484398Y-54958557D01*
X23484398Y-54958557D02*
X23698684Y-54958557D01*
X23698684Y-54958557D02*
X23827255Y-55001414D01*
X23827255Y-55001414D02*
X23912970Y-55087128D01*
X23912970Y-55087128D02*
X23955827Y-55172842D01*
X23955827Y-55172842D02*
X23998684Y-55344271D01*
X23998684Y-55344271D02*
X23998684Y-55472842D01*
X23998684Y-55472842D02*
X23955827Y-55644271D01*
X23955827Y-55644271D02*
X23912970Y-55729985D01*
X23912970Y-55729985D02*
X23827255Y-55815700D01*
X23827255Y-55815700D02*
X23698684Y-55858557D01*
X23698684Y-55858557D02*
X23484398Y-55858557D01*
X24384398Y-55858557D02*
X24384398Y-54958557D01*
X24384398Y-54958557D02*
X24598684Y-54958557D01*
X24598684Y-54958557D02*
X24727255Y-55001414D01*
X24727255Y-55001414D02*
X24812970Y-55087128D01*
X24812970Y-55087128D02*
X24855827Y-55172842D01*
X24855827Y-55172842D02*
X24898684Y-55344271D01*
X24898684Y-55344271D02*
X24898684Y-55472842D01*
X24898684Y-55472842D02*
X24855827Y-55644271D01*
X24855827Y-55644271D02*
X24812970Y-55729985D01*
X24812970Y-55729985D02*
X24727255Y-55815700D01*
X24727255Y-55815700D02*
X24598684Y-55858557D01*
X24598684Y-55858557D02*
X24384398Y-55858557D01*
X25798684Y-55858557D02*
X25498684Y-55429985D01*
X25284398Y-55858557D02*
X25284398Y-54958557D01*
X25284398Y-54958557D02*
X25627255Y-54958557D01*
X25627255Y-54958557D02*
X25712970Y-55001414D01*
X25712970Y-55001414D02*
X25755827Y-55044271D01*
X25755827Y-55044271D02*
X25798684Y-55129985D01*
X25798684Y-55129985D02*
X25798684Y-55258557D01*
X25798684Y-55258557D02*
X25755827Y-55344271D01*
X25755827Y-55344271D02*
X25712970Y-55387128D01*
X25712970Y-55387128D02*
X25627255Y-55429985D01*
X25627255Y-55429985D02*
X25284398Y-55429985D01*
X22670112Y-58141414D02*
X23098684Y-58141414D01*
X22584398Y-58398557D02*
X22884398Y-57498557D01*
X22884398Y-57498557D02*
X23184398Y-58398557D01*
X23912970Y-58398557D02*
X23484398Y-58398557D01*
X23484398Y-58398557D02*
X23484398Y-57498557D01*
X24727255Y-58398557D02*
X24427255Y-57969985D01*
X24212969Y-58398557D02*
X24212969Y-57498557D01*
X24212969Y-57498557D02*
X24555826Y-57498557D01*
X24555826Y-57498557D02*
X24641541Y-57541414D01*
X24641541Y-57541414D02*
X24684398Y-57584271D01*
X24684398Y-57584271D02*
X24727255Y-57669985D01*
X24727255Y-57669985D02*
X24727255Y-57798557D01*
X24727255Y-57798557D02*
X24684398Y-57884271D01*
X24684398Y-57884271D02*
X24641541Y-57927128D01*
X24641541Y-57927128D02*
X24555826Y-57969985D01*
X24555826Y-57969985D02*
X24212969Y-57969985D01*
X24984398Y-57498557D02*
X25498684Y-57498557D01*
X25241541Y-58398557D02*
X25241541Y-57498557D01*
X22670112Y-60681414D02*
X23098684Y-60681414D01*
X22584398Y-60938557D02*
X22884398Y-60038557D01*
X22884398Y-60038557D02*
X23184398Y-60938557D01*
X23655827Y-60038557D02*
X23741541Y-60038557D01*
X23741541Y-60038557D02*
X23827255Y-60081414D01*
X23827255Y-60081414D02*
X23870113Y-60124271D01*
X23870113Y-60124271D02*
X23912970Y-60209985D01*
X23912970Y-60209985D02*
X23955827Y-60381414D01*
X23955827Y-60381414D02*
X23955827Y-60595700D01*
X23955827Y-60595700D02*
X23912970Y-60767128D01*
X23912970Y-60767128D02*
X23870113Y-60852842D01*
X23870113Y-60852842D02*
X23827255Y-60895700D01*
X23827255Y-60895700D02*
X23741541Y-60938557D01*
X23741541Y-60938557D02*
X23655827Y-60938557D01*
X23655827Y-60938557D02*
X23570113Y-60895700D01*
X23570113Y-60895700D02*
X23527255Y-60852842D01*
X23527255Y-60852842D02*
X23484398Y-60767128D01*
X23484398Y-60767128D02*
X23441541Y-60595700D01*
X23441541Y-60595700D02*
X23441541Y-60381414D01*
X23441541Y-60381414D02*
X23484398Y-60209985D01*
X23484398Y-60209985D02*
X23527255Y-60124271D01*
X23527255Y-60124271D02*
X23570113Y-60081414D01*
X23570113Y-60081414D02*
X23655827Y-60038557D01*
X22670112Y-63221414D02*
X23098684Y-63221414D01*
X22584398Y-63478557D02*
X22884398Y-62578557D01*
X22884398Y-62578557D02*
X23184398Y-63478557D01*
X23955827Y-63478557D02*
X23441541Y-63478557D01*
X23698684Y-63478557D02*
X23698684Y-62578557D01*
X23698684Y-62578557D02*
X23612970Y-62707128D01*
X23612970Y-62707128D02*
X23527255Y-62792842D01*
X23527255Y-62792842D02*
X23441541Y-62835700D01*
X22670112Y-65761414D02*
X23098684Y-65761414D01*
X22584398Y-66018557D02*
X22884398Y-65118557D01*
X22884398Y-65118557D02*
X23184398Y-66018557D01*
X23441541Y-65204271D02*
X23484398Y-65161414D01*
X23484398Y-65161414D02*
X23570113Y-65118557D01*
X23570113Y-65118557D02*
X23784398Y-65118557D01*
X23784398Y-65118557D02*
X23870113Y-65161414D01*
X23870113Y-65161414D02*
X23912970Y-65204271D01*
X23912970Y-65204271D02*
X23955827Y-65289985D01*
X23955827Y-65289985D02*
X23955827Y-65375700D01*
X23955827Y-65375700D02*
X23912970Y-65504271D01*
X23912970Y-65504271D02*
X23398684Y-66018557D01*
X23398684Y-66018557D02*
X23955827Y-66018557D01*
X22670112Y-68301414D02*
X23098684Y-68301414D01*
X22584398Y-68558557D02*
X22884398Y-67658557D01*
X22884398Y-67658557D02*
X23184398Y-68558557D01*
X23398684Y-67658557D02*
X23955827Y-67658557D01*
X23955827Y-67658557D02*
X23655827Y-68001414D01*
X23655827Y-68001414D02*
X23784398Y-68001414D01*
X23784398Y-68001414D02*
X23870113Y-68044271D01*
X23870113Y-68044271D02*
X23912970Y-68087128D01*
X23912970Y-68087128D02*
X23955827Y-68172842D01*
X23955827Y-68172842D02*
X23955827Y-68387128D01*
X23955827Y-68387128D02*
X23912970Y-68472842D01*
X23912970Y-68472842D02*
X23870113Y-68515700D01*
X23870113Y-68515700D02*
X23784398Y-68558557D01*
X23784398Y-68558557D02*
X23527255Y-68558557D01*
X23527255Y-68558557D02*
X23441541Y-68515700D01*
X23441541Y-68515700D02*
X23398684Y-68472842D01*
X45812969Y-45438557D02*
X45812969Y-44538557D01*
X46412969Y-44538557D02*
X46584397Y-44538557D01*
X46584397Y-44538557D02*
X46670112Y-44581414D01*
X46670112Y-44581414D02*
X46755826Y-44667128D01*
X46755826Y-44667128D02*
X46798683Y-44838557D01*
X46798683Y-44838557D02*
X46798683Y-45138557D01*
X46798683Y-45138557D02*
X46755826Y-45309985D01*
X46755826Y-45309985D02*
X46670112Y-45395700D01*
X46670112Y-45395700D02*
X46584397Y-45438557D01*
X46584397Y-45438557D02*
X46412969Y-45438557D01*
X46412969Y-45438557D02*
X46327255Y-45395700D01*
X46327255Y-45395700D02*
X46241540Y-45309985D01*
X46241540Y-45309985D02*
X46198683Y-45138557D01*
X46198683Y-45138557D02*
X46198683Y-44838557D01*
X46198683Y-44838557D02*
X46241540Y-44667128D01*
X46241540Y-44667128D02*
X46327255Y-44581414D01*
X46327255Y-44581414D02*
X46412969Y-44538557D01*
X47098683Y-44538557D02*
X47655826Y-44538557D01*
X47655826Y-44538557D02*
X47355826Y-44881414D01*
X47355826Y-44881414D02*
X47484397Y-44881414D01*
X47484397Y-44881414D02*
X47570112Y-44924271D01*
X47570112Y-44924271D02*
X47612969Y-44967128D01*
X47612969Y-44967128D02*
X47655826Y-45052842D01*
X47655826Y-45052842D02*
X47655826Y-45267128D01*
X47655826Y-45267128D02*
X47612969Y-45352842D01*
X47612969Y-45352842D02*
X47570112Y-45395700D01*
X47570112Y-45395700D02*
X47484397Y-45438557D01*
X47484397Y-45438557D02*
X47227254Y-45438557D01*
X47227254Y-45438557D02*
X47141540Y-45395700D01*
X47141540Y-45395700D02*
X47098683Y-45352842D01*
X45812969Y-50518557D02*
X45812969Y-49618557D01*
X46412969Y-49618557D02*
X46584397Y-49618557D01*
X46584397Y-49618557D02*
X46670112Y-49661414D01*
X46670112Y-49661414D02*
X46755826Y-49747128D01*
X46755826Y-49747128D02*
X46798683Y-49918557D01*
X46798683Y-49918557D02*
X46798683Y-50218557D01*
X46798683Y-50218557D02*
X46755826Y-50389985D01*
X46755826Y-50389985D02*
X46670112Y-50475700D01*
X46670112Y-50475700D02*
X46584397Y-50518557D01*
X46584397Y-50518557D02*
X46412969Y-50518557D01*
X46412969Y-50518557D02*
X46327255Y-50475700D01*
X46327255Y-50475700D02*
X46241540Y-50389985D01*
X46241540Y-50389985D02*
X46198683Y-50218557D01*
X46198683Y-50218557D02*
X46198683Y-49918557D01*
X46198683Y-49918557D02*
X46241540Y-49747128D01*
X46241540Y-49747128D02*
X46327255Y-49661414D01*
X46327255Y-49661414D02*
X46412969Y-49618557D01*
X47612969Y-49618557D02*
X47184397Y-49618557D01*
X47184397Y-49618557D02*
X47141540Y-50047128D01*
X47141540Y-50047128D02*
X47184397Y-50004271D01*
X47184397Y-50004271D02*
X47270112Y-49961414D01*
X47270112Y-49961414D02*
X47484397Y-49961414D01*
X47484397Y-49961414D02*
X47570112Y-50004271D01*
X47570112Y-50004271D02*
X47612969Y-50047128D01*
X47612969Y-50047128D02*
X47655826Y-50132842D01*
X47655826Y-50132842D02*
X47655826Y-50347128D01*
X47655826Y-50347128D02*
X47612969Y-50432842D01*
X47612969Y-50432842D02*
X47570112Y-50475700D01*
X47570112Y-50475700D02*
X47484397Y-50518557D01*
X47484397Y-50518557D02*
X47270112Y-50518557D01*
X47270112Y-50518557D02*
X47184397Y-50475700D01*
X47184397Y-50475700D02*
X47141540Y-50432842D01*
X45812969Y-53058557D02*
X45812969Y-52158557D01*
X46412969Y-52158557D02*
X46584397Y-52158557D01*
X46584397Y-52158557D02*
X46670112Y-52201414D01*
X46670112Y-52201414D02*
X46755826Y-52287128D01*
X46755826Y-52287128D02*
X46798683Y-52458557D01*
X46798683Y-52458557D02*
X46798683Y-52758557D01*
X46798683Y-52758557D02*
X46755826Y-52929985D01*
X46755826Y-52929985D02*
X46670112Y-53015700D01*
X46670112Y-53015700D02*
X46584397Y-53058557D01*
X46584397Y-53058557D02*
X46412969Y-53058557D01*
X46412969Y-53058557D02*
X46327255Y-53015700D01*
X46327255Y-53015700D02*
X46241540Y-52929985D01*
X46241540Y-52929985D02*
X46198683Y-52758557D01*
X46198683Y-52758557D02*
X46198683Y-52458557D01*
X46198683Y-52458557D02*
X46241540Y-52287128D01*
X46241540Y-52287128D02*
X46327255Y-52201414D01*
X46327255Y-52201414D02*
X46412969Y-52158557D01*
X47570112Y-52158557D02*
X47398683Y-52158557D01*
X47398683Y-52158557D02*
X47312969Y-52201414D01*
X47312969Y-52201414D02*
X47270112Y-52244271D01*
X47270112Y-52244271D02*
X47184397Y-52372842D01*
X47184397Y-52372842D02*
X47141540Y-52544271D01*
X47141540Y-52544271D02*
X47141540Y-52887128D01*
X47141540Y-52887128D02*
X47184397Y-52972842D01*
X47184397Y-52972842D02*
X47227254Y-53015700D01*
X47227254Y-53015700D02*
X47312969Y-53058557D01*
X47312969Y-53058557D02*
X47484397Y-53058557D01*
X47484397Y-53058557D02*
X47570112Y-53015700D01*
X47570112Y-53015700D02*
X47612969Y-52972842D01*
X47612969Y-52972842D02*
X47655826Y-52887128D01*
X47655826Y-52887128D02*
X47655826Y-52672842D01*
X47655826Y-52672842D02*
X47612969Y-52587128D01*
X47612969Y-52587128D02*
X47570112Y-52544271D01*
X47570112Y-52544271D02*
X47484397Y-52501414D01*
X47484397Y-52501414D02*
X47312969Y-52501414D01*
X47312969Y-52501414D02*
X47227254Y-52544271D01*
X47227254Y-52544271D02*
X47184397Y-52587128D01*
X47184397Y-52587128D02*
X47141540Y-52672842D01*
X57144172Y-57238557D02*
X57701315Y-57238557D01*
X57701315Y-57238557D02*
X57401315Y-57581414D01*
X57401315Y-57581414D02*
X57529886Y-57581414D01*
X57529886Y-57581414D02*
X57615601Y-57624271D01*
X57615601Y-57624271D02*
X57658458Y-57667128D01*
X57658458Y-57667128D02*
X57701315Y-57752842D01*
X57701315Y-57752842D02*
X57701315Y-57967128D01*
X57701315Y-57967128D02*
X57658458Y-58052842D01*
X57658458Y-58052842D02*
X57615601Y-58095700D01*
X57615601Y-58095700D02*
X57529886Y-58138557D01*
X57529886Y-58138557D02*
X57272743Y-58138557D01*
X57272743Y-58138557D02*
X57187029Y-58095700D01*
X57187029Y-58095700D02*
X57144172Y-58052842D01*
X57958458Y-57238557D02*
X58258458Y-58138557D01*
X58258458Y-58138557D02*
X58558458Y-57238557D01*
X58772744Y-57238557D02*
X59329887Y-57238557D01*
X59329887Y-57238557D02*
X59029887Y-57581414D01*
X59029887Y-57581414D02*
X59158458Y-57581414D01*
X59158458Y-57581414D02*
X59244173Y-57624271D01*
X59244173Y-57624271D02*
X59287030Y-57667128D01*
X59287030Y-57667128D02*
X59329887Y-57752842D01*
X59329887Y-57752842D02*
X59329887Y-57967128D01*
X59329887Y-57967128D02*
X59287030Y-58052842D01*
X59287030Y-58052842D02*
X59244173Y-58095700D01*
X59244173Y-58095700D02*
X59158458Y-58138557D01*
X59158458Y-58138557D02*
X58901315Y-58138557D01*
X58901315Y-58138557D02*
X58815601Y-58095700D01*
X58815601Y-58095700D02*
X58772744Y-58052842D01*
X57444173Y-59821414D02*
X57358459Y-59778557D01*
X57358459Y-59778557D02*
X57229887Y-59778557D01*
X57229887Y-59778557D02*
X57101316Y-59821414D01*
X57101316Y-59821414D02*
X57015601Y-59907128D01*
X57015601Y-59907128D02*
X56972744Y-59992842D01*
X56972744Y-59992842D02*
X56929887Y-60164271D01*
X56929887Y-60164271D02*
X56929887Y-60292842D01*
X56929887Y-60292842D02*
X56972744Y-60464271D01*
X56972744Y-60464271D02*
X57015601Y-60549985D01*
X57015601Y-60549985D02*
X57101316Y-60635700D01*
X57101316Y-60635700D02*
X57229887Y-60678557D01*
X57229887Y-60678557D02*
X57315601Y-60678557D01*
X57315601Y-60678557D02*
X57444173Y-60635700D01*
X57444173Y-60635700D02*
X57487030Y-60592842D01*
X57487030Y-60592842D02*
X57487030Y-60292842D01*
X57487030Y-60292842D02*
X57315601Y-60292842D01*
X57872744Y-60678557D02*
X57872744Y-59778557D01*
X57872744Y-59778557D02*
X58387030Y-60678557D01*
X58387030Y-60678557D02*
X58387030Y-59778557D01*
X58815601Y-60678557D02*
X58815601Y-59778557D01*
X58815601Y-59778557D02*
X59029887Y-59778557D01*
X59029887Y-59778557D02*
X59158458Y-59821414D01*
X59158458Y-59821414D02*
X59244173Y-59907128D01*
X59244173Y-59907128D02*
X59287030Y-59992842D01*
X59287030Y-59992842D02*
X59329887Y-60164271D01*
X59329887Y-60164271D02*
X59329887Y-60292842D01*
X59329887Y-60292842D02*
X59287030Y-60464271D01*
X59287030Y-60464271D02*
X59244173Y-60549985D01*
X59244173Y-60549985D02*
X59158458Y-60635700D01*
X59158458Y-60635700D02*
X59029887Y-60678557D01*
X59029887Y-60678557D02*
X58815601Y-60678557D01*
X58515601Y-62318557D02*
X58087029Y-62318557D01*
X58087029Y-62318557D02*
X58044172Y-62747128D01*
X58044172Y-62747128D02*
X58087029Y-62704271D01*
X58087029Y-62704271D02*
X58172744Y-62661414D01*
X58172744Y-62661414D02*
X58387029Y-62661414D01*
X58387029Y-62661414D02*
X58472744Y-62704271D01*
X58472744Y-62704271D02*
X58515601Y-62747128D01*
X58515601Y-62747128D02*
X58558458Y-62832842D01*
X58558458Y-62832842D02*
X58558458Y-63047128D01*
X58558458Y-63047128D02*
X58515601Y-63132842D01*
X58515601Y-63132842D02*
X58472744Y-63175700D01*
X58472744Y-63175700D02*
X58387029Y-63218557D01*
X58387029Y-63218557D02*
X58172744Y-63218557D01*
X58172744Y-63218557D02*
X58087029Y-63175700D01*
X58087029Y-63175700D02*
X58044172Y-63132842D01*
X58815601Y-62318557D02*
X59115601Y-63218557D01*
X59115601Y-63218557D02*
X59415601Y-62318557D01*
X50171648Y-69177819D02*
X50171648Y-69987342D01*
X50171648Y-69987342D02*
X50219267Y-70082580D01*
X50219267Y-70082580D02*
X50266886Y-70130200D01*
X50266886Y-70130200D02*
X50362124Y-70177819D01*
X50362124Y-70177819D02*
X50552600Y-70177819D01*
X50552600Y-70177819D02*
X50647838Y-70130200D01*
X50647838Y-70130200D02*
X50695457Y-70082580D01*
X50695457Y-70082580D02*
X50743076Y-69987342D01*
X50743076Y-69987342D02*
X50743076Y-69177819D01*
X51171648Y-70130200D02*
X51314505Y-70177819D01*
X51314505Y-70177819D02*
X51552600Y-70177819D01*
X51552600Y-70177819D02*
X51647838Y-70130200D01*
X51647838Y-70130200D02*
X51695457Y-70082580D01*
X51695457Y-70082580D02*
X51743076Y-69987342D01*
X51743076Y-69987342D02*
X51743076Y-69892104D01*
X51743076Y-69892104D02*
X51695457Y-69796866D01*
X51695457Y-69796866D02*
X51647838Y-69749247D01*
X51647838Y-69749247D02*
X51552600Y-69701628D01*
X51552600Y-69701628D02*
X51362124Y-69654009D01*
X51362124Y-69654009D02*
X51266886Y-69606390D01*
X51266886Y-69606390D02*
X51219267Y-69558771D01*
X51219267Y-69558771D02*
X51171648Y-69463533D01*
X51171648Y-69463533D02*
X51171648Y-69368295D01*
X51171648Y-69368295D02*
X51219267Y-69273057D01*
X51219267Y-69273057D02*
X51266886Y-69225438D01*
X51266886Y-69225438D02*
X51362124Y-69177819D01*
X51362124Y-69177819D02*
X51600219Y-69177819D01*
X51600219Y-69177819D02*
X51743076Y-69225438D01*
X52504981Y-69654009D02*
X52647838Y-69701628D01*
X52647838Y-69701628D02*
X52695457Y-69749247D01*
X52695457Y-69749247D02*
X52743076Y-69844485D01*
X52743076Y-69844485D02*
X52743076Y-69987342D01*
X52743076Y-69987342D02*
X52695457Y-70082580D01*
X52695457Y-70082580D02*
X52647838Y-70130200D01*
X52647838Y-70130200D02*
X52552600Y-70177819D01*
X52552600Y-70177819D02*
X52171648Y-70177819D01*
X52171648Y-70177819D02*
X52171648Y-69177819D01*
X52171648Y-69177819D02*
X52504981Y-69177819D01*
X52504981Y-69177819D02*
X52600219Y-69225438D01*
X52600219Y-69225438D02*
X52647838Y-69273057D01*
X52647838Y-69273057D02*
X52695457Y-69368295D01*
X52695457Y-69368295D02*
X52695457Y-69463533D01*
X52695457Y-69463533D02*
X52647838Y-69558771D01*
X52647838Y-69558771D02*
X52600219Y-69606390D01*
X52600219Y-69606390D02*
X52504981Y-69654009D01*
X52504981Y-69654009D02*
X52171648Y-69654009D01*
X53171648Y-69796866D02*
X53933553Y-69796866D01*
X54981171Y-70082580D02*
X54933552Y-70130200D01*
X54933552Y-70130200D02*
X54790695Y-70177819D01*
X54790695Y-70177819D02*
X54695457Y-70177819D01*
X54695457Y-70177819D02*
X54552600Y-70130200D01*
X54552600Y-70130200D02*
X54457362Y-70034961D01*
X54457362Y-70034961D02*
X54409743Y-69939723D01*
X54409743Y-69939723D02*
X54362124Y-69749247D01*
X54362124Y-69749247D02*
X54362124Y-69606390D01*
X54362124Y-69606390D02*
X54409743Y-69415914D01*
X54409743Y-69415914D02*
X54457362Y-69320676D01*
X54457362Y-69320676D02*
X54552600Y-69225438D01*
X54552600Y-69225438D02*
X54695457Y-69177819D01*
X54695457Y-69177819D02*
X54790695Y-69177819D01*
X54790695Y-69177819D02*
X54933552Y-69225438D01*
X54933552Y-69225438D02*
X54981171Y-69273057D01*
X70307143Y-46754819D02*
X70307143Y-45754819D01*
X70783333Y-46754819D02*
X70783333Y-45754819D01*
X70783333Y-45754819D02*
X71354761Y-46754819D01*
X71354761Y-46754819D02*
X71354761Y-45754819D01*
X71830952Y-46373866D02*
X72592857Y-46373866D01*
X69830952Y-70154819D02*
X70021428Y-70154819D01*
X70021428Y-70154819D02*
X70116666Y-70202438D01*
X70116666Y-70202438D02*
X70211904Y-70297676D01*
X70211904Y-70297676D02*
X70259523Y-70488152D01*
X70259523Y-70488152D02*
X70259523Y-70821485D01*
X70259523Y-70821485D02*
X70211904Y-71011961D01*
X70211904Y-71011961D02*
X70116666Y-71107200D01*
X70116666Y-71107200D02*
X70021428Y-71154819D01*
X70021428Y-71154819D02*
X69830952Y-71154819D01*
X69830952Y-71154819D02*
X69735714Y-71107200D01*
X69735714Y-71107200D02*
X69640476Y-71011961D01*
X69640476Y-71011961D02*
X69592857Y-70821485D01*
X69592857Y-70821485D02*
X69592857Y-70488152D01*
X69592857Y-70488152D02*
X69640476Y-70297676D01*
X69640476Y-70297676D02*
X69735714Y-70202438D01*
X69735714Y-70202438D02*
X69830952Y-70154819D01*
X70688095Y-70154819D02*
X70688095Y-70964342D01*
X70688095Y-70964342D02*
X70735714Y-71059580D01*
X70735714Y-71059580D02*
X70783333Y-71107200D01*
X70783333Y-71107200D02*
X70878571Y-71154819D01*
X70878571Y-71154819D02*
X71069047Y-71154819D01*
X71069047Y-71154819D02*
X71164285Y-71107200D01*
X71164285Y-71107200D02*
X71211904Y-71059580D01*
X71211904Y-71059580D02*
X71259523Y-70964342D01*
X71259523Y-70964342D02*
X71259523Y-70154819D01*
X71592857Y-70154819D02*
X72164285Y-70154819D01*
X71878571Y-71154819D02*
X71878571Y-70154819D01*
X72497619Y-70773866D02*
X73259524Y-70773866D01*
X77897143Y-46754819D02*
X77897143Y-45754819D01*
X78373333Y-46754819D02*
X78373333Y-45754819D01*
X78373333Y-45754819D02*
X78944761Y-46754819D01*
X78944761Y-46754819D02*
X78944761Y-45754819D01*
X79420952Y-46373866D02*
X80182857Y-46373866D01*
X79801904Y-46754819D02*
X79801904Y-45992914D01*
X77420952Y-70154819D02*
X77611428Y-70154819D01*
X77611428Y-70154819D02*
X77706666Y-70202438D01*
X77706666Y-70202438D02*
X77801904Y-70297676D01*
X77801904Y-70297676D02*
X77849523Y-70488152D01*
X77849523Y-70488152D02*
X77849523Y-70821485D01*
X77849523Y-70821485D02*
X77801904Y-71011961D01*
X77801904Y-71011961D02*
X77706666Y-71107200D01*
X77706666Y-71107200D02*
X77611428Y-71154819D01*
X77611428Y-71154819D02*
X77420952Y-71154819D01*
X77420952Y-71154819D02*
X77325714Y-71107200D01*
X77325714Y-71107200D02*
X77230476Y-71011961D01*
X77230476Y-71011961D02*
X77182857Y-70821485D01*
X77182857Y-70821485D02*
X77182857Y-70488152D01*
X77182857Y-70488152D02*
X77230476Y-70297676D01*
X77230476Y-70297676D02*
X77325714Y-70202438D01*
X77325714Y-70202438D02*
X77420952Y-70154819D01*
X78278095Y-70154819D02*
X78278095Y-70964342D01*
X78278095Y-70964342D02*
X78325714Y-71059580D01*
X78325714Y-71059580D02*
X78373333Y-71107200D01*
X78373333Y-71107200D02*
X78468571Y-71154819D01*
X78468571Y-71154819D02*
X78659047Y-71154819D01*
X78659047Y-71154819D02*
X78754285Y-71107200D01*
X78754285Y-71107200D02*
X78801904Y-71059580D01*
X78801904Y-71059580D02*
X78849523Y-70964342D01*
X78849523Y-70964342D02*
X78849523Y-70154819D01*
X79182857Y-70154819D02*
X79754285Y-70154819D01*
X79468571Y-71154819D02*
X79468571Y-70154819D01*
X80087619Y-70773866D02*
X80849524Y-70773866D01*
X80468571Y-71154819D02*
X80468571Y-70392914D01*
D11*
X45828571Y-22109500D02*
X46971429Y-22109500D01*
X58128571Y-22109500D02*
X59271429Y-22109500D01*
X58700000Y-22680928D02*
X58700000Y-21538071D01*
D12*
X30369046Y-79409638D02*
X30369046Y-77409638D01*
X31321427Y-79409638D02*
X31321427Y-78076304D01*
X31321427Y-78457257D02*
X31416665Y-78266780D01*
X31416665Y-78266780D02*
X31511903Y-78171542D01*
X31511903Y-78171542D02*
X31702379Y-78076304D01*
X31702379Y-78076304D02*
X31892856Y-78076304D01*
X32559522Y-79409638D02*
X32559522Y-78076304D01*
X32559522Y-77409638D02*
X32464284Y-77504876D01*
X32464284Y-77504876D02*
X32559522Y-77600114D01*
X32559522Y-77600114D02*
X32654760Y-77504876D01*
X32654760Y-77504876D02*
X32559522Y-77409638D01*
X32559522Y-77409638D02*
X32559522Y-77600114D01*
X33511903Y-78076304D02*
X33511903Y-79409638D01*
X33511903Y-78266780D02*
X33607141Y-78171542D01*
X33607141Y-78171542D02*
X33797617Y-78076304D01*
X33797617Y-78076304D02*
X34083332Y-78076304D01*
X34083332Y-78076304D02*
X34273808Y-78171542D01*
X34273808Y-78171542D02*
X34369046Y-78362019D01*
X34369046Y-78362019D02*
X34369046Y-79409638D01*
X36845237Y-78647733D02*
X38369047Y-78647733D01*
X40845237Y-79409638D02*
X40845237Y-77409638D01*
X40845237Y-78171542D02*
X41035713Y-78076304D01*
X41035713Y-78076304D02*
X41416666Y-78076304D01*
X41416666Y-78076304D02*
X41607142Y-78171542D01*
X41607142Y-78171542D02*
X41702380Y-78266780D01*
X41702380Y-78266780D02*
X41797618Y-78457257D01*
X41797618Y-78457257D02*
X41797618Y-79028685D01*
X41797618Y-79028685D02*
X41702380Y-79219161D01*
X41702380Y-79219161D02*
X41607142Y-79314400D01*
X41607142Y-79314400D02*
X41416666Y-79409638D01*
X41416666Y-79409638D02*
X41035713Y-79409638D01*
X41035713Y-79409638D02*
X40845237Y-79314400D01*
X42464285Y-78076304D02*
X42940475Y-79409638D01*
X43416666Y-78076304D02*
X42940475Y-79409638D01*
X42940475Y-79409638D02*
X42749999Y-79885828D01*
X42749999Y-79885828D02*
X42654761Y-79981066D01*
X42654761Y-79981066D02*
X42464285Y-80076304D01*
X45607143Y-78838209D02*
X46559524Y-78838209D01*
X45416667Y-79409638D02*
X46083333Y-77409638D01*
X46083333Y-77409638D02*
X46750000Y-79409638D01*
X47416667Y-79409638D02*
X47416667Y-77409638D01*
X48178572Y-77409638D02*
X49511905Y-77409638D01*
X49511905Y-77409638D02*
X48654762Y-79409638D01*
X50273810Y-79409638D02*
X50273810Y-77409638D01*
X50273810Y-77409638D02*
X50940477Y-78838209D01*
X50940477Y-78838209D02*
X51607143Y-77409638D01*
X51607143Y-77409638D02*
X51607143Y-79409638D01*
X53607143Y-77504876D02*
X53416667Y-77409638D01*
X53416667Y-77409638D02*
X53130953Y-77409638D01*
X53130953Y-77409638D02*
X52845238Y-77504876D01*
X52845238Y-77504876D02*
X52654762Y-77695352D01*
X52654762Y-77695352D02*
X52559524Y-77885828D01*
X52559524Y-77885828D02*
X52464286Y-78266780D01*
X52464286Y-78266780D02*
X52464286Y-78552495D01*
X52464286Y-78552495D02*
X52559524Y-78933447D01*
X52559524Y-78933447D02*
X52654762Y-79123923D01*
X52654762Y-79123923D02*
X52845238Y-79314400D01*
X52845238Y-79314400D02*
X53130953Y-79409638D01*
X53130953Y-79409638D02*
X53321429Y-79409638D01*
X53321429Y-79409638D02*
X53607143Y-79314400D01*
X53607143Y-79314400D02*
X53702381Y-79219161D01*
X53702381Y-79219161D02*
X53702381Y-78552495D01*
X53702381Y-78552495D02*
X53321429Y-78552495D01*
X56083334Y-78647733D02*
X57607144Y-78647733D01*
X60083334Y-79409638D02*
X60083334Y-78076304D01*
X60083334Y-78457257D02*
X60178572Y-78266780D01*
X60178572Y-78266780D02*
X60273810Y-78171542D01*
X60273810Y-78171542D02*
X60464286Y-78076304D01*
X60464286Y-78076304D02*
X60654763Y-78076304D01*
X62083334Y-79314400D02*
X61892858Y-79409638D01*
X61892858Y-79409638D02*
X61511905Y-79409638D01*
X61511905Y-79409638D02*
X61321429Y-79314400D01*
X61321429Y-79314400D02*
X61226191Y-79123923D01*
X61226191Y-79123923D02*
X61226191Y-78362019D01*
X61226191Y-78362019D02*
X61321429Y-78171542D01*
X61321429Y-78171542D02*
X61511905Y-78076304D01*
X61511905Y-78076304D02*
X61892858Y-78076304D01*
X61892858Y-78076304D02*
X62083334Y-78171542D01*
X62083334Y-78171542D02*
X62178572Y-78362019D01*
X62178572Y-78362019D02*
X62178572Y-78552495D01*
X62178572Y-78552495D02*
X61226191Y-78742971D01*
X62845239Y-78076304D02*
X63321429Y-79409638D01*
X63321429Y-79409638D02*
X63797620Y-78076304D01*
X66750002Y-78362019D02*
X67035716Y-78457257D01*
X67035716Y-78457257D02*
X67130954Y-78552495D01*
X67130954Y-78552495D02*
X67226192Y-78742971D01*
X67226192Y-78742971D02*
X67226192Y-79028685D01*
X67226192Y-79028685D02*
X67130954Y-79219161D01*
X67130954Y-79219161D02*
X67035716Y-79314400D01*
X67035716Y-79314400D02*
X66845240Y-79409638D01*
X66845240Y-79409638D02*
X66083335Y-79409638D01*
X66083335Y-79409638D02*
X66083335Y-77409638D01*
X66083335Y-77409638D02*
X66750002Y-77409638D01*
X66750002Y-77409638D02*
X66940478Y-77504876D01*
X66940478Y-77504876D02*
X67035716Y-77600114D01*
X67035716Y-77600114D02*
X67130954Y-77790590D01*
X67130954Y-77790590D02*
X67130954Y-77981066D01*
X67130954Y-77981066D02*
X67035716Y-78171542D01*
X67035716Y-78171542D02*
X66940478Y-78266780D01*
X66940478Y-78266780D02*
X66750002Y-78362019D01*
X66750002Y-78362019D02*
X66083335Y-78362019D01*
D10*
X65902619Y-59237304D02*
X66712142Y-59237304D01*
X66712142Y-59237304D02*
X66807380Y-59189685D01*
X66807380Y-59189685D02*
X66855000Y-59142066D01*
X66855000Y-59142066D02*
X66902619Y-59046828D01*
X66902619Y-59046828D02*
X66902619Y-58856352D01*
X66902619Y-58856352D02*
X66855000Y-58761114D01*
X66855000Y-58761114D02*
X66807380Y-58713495D01*
X66807380Y-58713495D02*
X66712142Y-58665876D01*
X66712142Y-58665876D02*
X65902619Y-58665876D01*
X66902619Y-57665876D02*
X66902619Y-58237304D01*
X66902619Y-57951590D02*
X65902619Y-57951590D01*
X65902619Y-57951590D02*
X66045476Y-58046828D01*
X66045476Y-58046828D02*
X66140714Y-58142066D01*
X66140714Y-58142066D02*
X66188333Y-58237304D01*
X85154819Y-66833333D02*
X84154819Y-66833333D01*
X84154819Y-66833333D02*
X84869104Y-66500000D01*
X84869104Y-66500000D02*
X84154819Y-66166667D01*
X84154819Y-66166667D02*
X85154819Y-66166667D01*
X85154819Y-65690476D02*
X84154819Y-65690476D01*
X84154819Y-65690476D02*
X84154819Y-65309524D01*
X84154819Y-65309524D02*
X84202438Y-65214286D01*
X84202438Y-65214286D02*
X84250057Y-65166667D01*
X84250057Y-65166667D02*
X84345295Y-65119048D01*
X84345295Y-65119048D02*
X84488152Y-65119048D01*
X84488152Y-65119048D02*
X84583390Y-65166667D01*
X84583390Y-65166667D02*
X84631009Y-65214286D01*
X84631009Y-65214286D02*
X84678628Y-65309524D01*
X84678628Y-65309524D02*
X84678628Y-65690476D01*
X85154819Y-64166667D02*
X85154819Y-64738095D01*
X85154819Y-64452381D02*
X84154819Y-64452381D01*
X84154819Y-64452381D02*
X84297676Y-64547619D01*
X84297676Y-64547619D02*
X84392914Y-64642857D01*
X84392914Y-64642857D02*
X84440533Y-64738095D01*
X84154819Y-63261905D02*
X84154819Y-63738095D01*
X84154819Y-63738095D02*
X84631009Y-63785714D01*
X84631009Y-63785714D02*
X84583390Y-63738095D01*
X84583390Y-63738095D02*
X84535771Y-63642857D01*
X84535771Y-63642857D02*
X84535771Y-63404762D01*
X84535771Y-63404762D02*
X84583390Y-63309524D01*
X84583390Y-63309524D02*
X84631009Y-63261905D01*
X84631009Y-63261905D02*
X84726247Y-63214286D01*
X84726247Y-63214286D02*
X84964342Y-63214286D01*
X84964342Y-63214286D02*
X85059580Y-63261905D01*
X85059580Y-63261905D02*
X85107200Y-63309524D01*
X85107200Y-63309524D02*
X85154819Y-63404762D01*
X85154819Y-63404762D02*
X85154819Y-63642857D01*
X85154819Y-63642857D02*
X85107200Y-63738095D01*
X85107200Y-63738095D02*
X85059580Y-63785714D01*
X84583390Y-62642857D02*
X84535771Y-62738095D01*
X84535771Y-62738095D02*
X84488152Y-62785714D01*
X84488152Y-62785714D02*
X84392914Y-62833333D01*
X84392914Y-62833333D02*
X84345295Y-62833333D01*
X84345295Y-62833333D02*
X84250057Y-62785714D01*
X84250057Y-62785714D02*
X84202438Y-62738095D01*
X84202438Y-62738095D02*
X84154819Y-62642857D01*
X84154819Y-62642857D02*
X84154819Y-62452381D01*
X84154819Y-62452381D02*
X84202438Y-62357143D01*
X84202438Y-62357143D02*
X84250057Y-62309524D01*
X84250057Y-62309524D02*
X84345295Y-62261905D01*
X84345295Y-62261905D02*
X84392914Y-62261905D01*
X84392914Y-62261905D02*
X84488152Y-62309524D01*
X84488152Y-62309524D02*
X84535771Y-62357143D01*
X84535771Y-62357143D02*
X84583390Y-62452381D01*
X84583390Y-62452381D02*
X84583390Y-62642857D01*
X84583390Y-62642857D02*
X84631009Y-62738095D01*
X84631009Y-62738095D02*
X84678628Y-62785714D01*
X84678628Y-62785714D02*
X84773866Y-62833333D01*
X84773866Y-62833333D02*
X84964342Y-62833333D01*
X84964342Y-62833333D02*
X85059580Y-62785714D01*
X85059580Y-62785714D02*
X85107200Y-62738095D01*
X85107200Y-62738095D02*
X85154819Y-62642857D01*
X85154819Y-62642857D02*
X85154819Y-62452381D01*
X85154819Y-62452381D02*
X85107200Y-62357143D01*
X85107200Y-62357143D02*
X85059580Y-62309524D01*
X85059580Y-62309524D02*
X84964342Y-62261905D01*
X84964342Y-62261905D02*
X84773866Y-62261905D01*
X84773866Y-62261905D02*
X84678628Y-62309524D01*
X84678628Y-62309524D02*
X84631009Y-62357143D01*
X84631009Y-62357143D02*
X84583390Y-62452381D01*
X84488152Y-61404762D02*
X85154819Y-61404762D01*
X84107200Y-61642857D02*
X84821485Y-61880952D01*
X84821485Y-61880952D02*
X84821485Y-61261905D01*
X84631009Y-60880952D02*
X84631009Y-60547619D01*
X85154819Y-60404762D02*
X85154819Y-60880952D01*
X85154819Y-60880952D02*
X84154819Y-60880952D01*
X84154819Y-60880952D02*
X84154819Y-60404762D01*
X85154819Y-59976190D02*
X84154819Y-59976190D01*
X84154819Y-59976190D02*
X85154819Y-59404762D01*
X85154819Y-59404762D02*
X84154819Y-59404762D01*
X85107200Y-58214285D02*
X85154819Y-58119047D01*
X85154819Y-58119047D02*
X85154819Y-57928571D01*
X85154819Y-57928571D02*
X85107200Y-57833333D01*
X85107200Y-57833333D02*
X85011961Y-57785714D01*
X85011961Y-57785714D02*
X84964342Y-57785714D01*
X84964342Y-57785714D02*
X84869104Y-57833333D01*
X84869104Y-57833333D02*
X84821485Y-57928571D01*
X84821485Y-57928571D02*
X84821485Y-58071428D01*
X84821485Y-58071428D02*
X84773866Y-58166666D01*
X84773866Y-58166666D02*
X84678628Y-58214285D01*
X84678628Y-58214285D02*
X84631009Y-58214285D01*
X84631009Y-58214285D02*
X84535771Y-58166666D01*
X84535771Y-58166666D02*
X84488152Y-58071428D01*
X84488152Y-58071428D02*
X84488152Y-57928571D01*
X84488152Y-57928571D02*
X84535771Y-57833333D01*
X85107200Y-56976190D02*
X85154819Y-57071428D01*
X85154819Y-57071428D02*
X85154819Y-57261904D01*
X85154819Y-57261904D02*
X85107200Y-57357142D01*
X85107200Y-57357142D02*
X85011961Y-57404761D01*
X85011961Y-57404761D02*
X84631009Y-57404761D01*
X84631009Y-57404761D02*
X84535771Y-57357142D01*
X84535771Y-57357142D02*
X84488152Y-57261904D01*
X84488152Y-57261904D02*
X84488152Y-57071428D01*
X84488152Y-57071428D02*
X84535771Y-56976190D01*
X84535771Y-56976190D02*
X84631009Y-56928571D01*
X84631009Y-56928571D02*
X84726247Y-56928571D01*
X84726247Y-56928571D02*
X84821485Y-57404761D01*
X84488152Y-56642856D02*
X84488152Y-56261904D01*
X84154819Y-56499999D02*
X85011961Y-56499999D01*
X85011961Y-56499999D02*
X85107200Y-56452380D01*
X85107200Y-56452380D02*
X85154819Y-56357142D01*
X85154819Y-56357142D02*
X85154819Y-56261904D01*
X84488152Y-55309522D02*
X84488152Y-54928570D01*
X84154819Y-55166665D02*
X85011961Y-55166665D01*
X85011961Y-55166665D02*
X85107200Y-55119046D01*
X85107200Y-55119046D02*
X85154819Y-55023808D01*
X85154819Y-55023808D02*
X85154819Y-54928570D01*
X85154819Y-54452379D02*
X85107200Y-54547617D01*
X85107200Y-54547617D02*
X85059580Y-54595236D01*
X85059580Y-54595236D02*
X84964342Y-54642855D01*
X84964342Y-54642855D02*
X84678628Y-54642855D01*
X84678628Y-54642855D02*
X84583390Y-54595236D01*
X84583390Y-54595236D02*
X84535771Y-54547617D01*
X84535771Y-54547617D02*
X84488152Y-54452379D01*
X84488152Y-54452379D02*
X84488152Y-54309522D01*
X84488152Y-54309522D02*
X84535771Y-54214284D01*
X84535771Y-54214284D02*
X84583390Y-54166665D01*
X84583390Y-54166665D02*
X84678628Y-54119046D01*
X84678628Y-54119046D02*
X84964342Y-54119046D01*
X84964342Y-54119046D02*
X85059580Y-54166665D01*
X85059580Y-54166665D02*
X85107200Y-54214284D01*
X85107200Y-54214284D02*
X85154819Y-54309522D01*
X85154819Y-54309522D02*
X85154819Y-54452379D01*
X84154819Y-52452379D02*
X84154819Y-52928569D01*
X84154819Y-52928569D02*
X84631009Y-52976188D01*
X84631009Y-52976188D02*
X84583390Y-52928569D01*
X84583390Y-52928569D02*
X84535771Y-52833331D01*
X84535771Y-52833331D02*
X84535771Y-52595236D01*
X84535771Y-52595236D02*
X84583390Y-52499998D01*
X84583390Y-52499998D02*
X84631009Y-52452379D01*
X84631009Y-52452379D02*
X84726247Y-52404760D01*
X84726247Y-52404760D02*
X84964342Y-52404760D01*
X84964342Y-52404760D02*
X85059580Y-52452379D01*
X85059580Y-52452379D02*
X85107200Y-52499998D01*
X85107200Y-52499998D02*
X85154819Y-52595236D01*
X85154819Y-52595236D02*
X85154819Y-52833331D01*
X85154819Y-52833331D02*
X85107200Y-52928569D01*
X85107200Y-52928569D02*
X85059580Y-52976188D01*
X85059580Y-51976188D02*
X85107200Y-51928569D01*
X85107200Y-51928569D02*
X85154819Y-51976188D01*
X85154819Y-51976188D02*
X85107200Y-52023807D01*
X85107200Y-52023807D02*
X85059580Y-51976188D01*
X85059580Y-51976188D02*
X85154819Y-51976188D01*
X84154819Y-51309522D02*
X84154819Y-51214284D01*
X84154819Y-51214284D02*
X84202438Y-51119046D01*
X84202438Y-51119046D02*
X84250057Y-51071427D01*
X84250057Y-51071427D02*
X84345295Y-51023808D01*
X84345295Y-51023808D02*
X84535771Y-50976189D01*
X84535771Y-50976189D02*
X84773866Y-50976189D01*
X84773866Y-50976189D02*
X84964342Y-51023808D01*
X84964342Y-51023808D02*
X85059580Y-51071427D01*
X85059580Y-51071427D02*
X85107200Y-51119046D01*
X85107200Y-51119046D02*
X85154819Y-51214284D01*
X85154819Y-51214284D02*
X85154819Y-51309522D01*
X85154819Y-51309522D02*
X85107200Y-51404760D01*
X85107200Y-51404760D02*
X85059580Y-51452379D01*
X85059580Y-51452379D02*
X84964342Y-51499998D01*
X84964342Y-51499998D02*
X84773866Y-51547617D01*
X84773866Y-51547617D02*
X84535771Y-51547617D01*
X84535771Y-51547617D02*
X84345295Y-51499998D01*
X84345295Y-51499998D02*
X84250057Y-51452379D01*
X84250057Y-51452379D02*
X84202438Y-51404760D01*
X84202438Y-51404760D02*
X84154819Y-51309522D01*
X84154819Y-50690474D02*
X85154819Y-50357141D01*
X85154819Y-50357141D02*
X84154819Y-50023808D01*
X51785895Y-39688219D02*
X51785895Y-40497742D01*
X51785895Y-40497742D02*
X51833514Y-40592980D01*
X51833514Y-40592980D02*
X51881133Y-40640600D01*
X51881133Y-40640600D02*
X51976371Y-40688219D01*
X51976371Y-40688219D02*
X52166847Y-40688219D01*
X52166847Y-40688219D02*
X52262085Y-40640600D01*
X52262085Y-40640600D02*
X52309704Y-40592980D01*
X52309704Y-40592980D02*
X52357323Y-40497742D01*
X52357323Y-40497742D02*
X52357323Y-39688219D01*
X52785895Y-39783457D02*
X52833514Y-39735838D01*
X52833514Y-39735838D02*
X52928752Y-39688219D01*
X52928752Y-39688219D02*
X53166847Y-39688219D01*
X53166847Y-39688219D02*
X53262085Y-39735838D01*
X53262085Y-39735838D02*
X53309704Y-39783457D01*
X53309704Y-39783457D02*
X53357323Y-39878695D01*
X53357323Y-39878695D02*
X53357323Y-39973933D01*
X53357323Y-39973933D02*
X53309704Y-40116790D01*
X53309704Y-40116790D02*
X52738276Y-40688219D01*
X52738276Y-40688219D02*
X53357323Y-40688219D01*
X52004819Y-64809523D02*
X52004819Y-64714285D01*
X52004819Y-64714285D02*
X52052438Y-64619047D01*
X52052438Y-64619047D02*
X52100057Y-64571428D01*
X52100057Y-64571428D02*
X52195295Y-64523809D01*
X52195295Y-64523809D02*
X52385771Y-64476190D01*
X52385771Y-64476190D02*
X52623866Y-64476190D01*
X52623866Y-64476190D02*
X52814342Y-64523809D01*
X52814342Y-64523809D02*
X52909580Y-64571428D01*
X52909580Y-64571428D02*
X52957200Y-64619047D01*
X52957200Y-64619047D02*
X53004819Y-64714285D01*
X53004819Y-64714285D02*
X53004819Y-64809523D01*
X53004819Y-64809523D02*
X52957200Y-64904761D01*
X52957200Y-64904761D02*
X52909580Y-64952380D01*
X52909580Y-64952380D02*
X52814342Y-64999999D01*
X52814342Y-64999999D02*
X52623866Y-65047618D01*
X52623866Y-65047618D02*
X52385771Y-65047618D01*
X52385771Y-65047618D02*
X52195295Y-64999999D01*
X52195295Y-64999999D02*
X52100057Y-64952380D01*
X52100057Y-64952380D02*
X52052438Y-64904761D01*
X52052438Y-64904761D02*
X52004819Y-64809523D01*
X53004819Y-63523809D02*
X53004819Y-64095237D01*
X53004819Y-63809523D02*
X52004819Y-63809523D01*
X52004819Y-63809523D02*
X52147676Y-63904761D01*
X52147676Y-63904761D02*
X52242914Y-63999999D01*
X52242914Y-63999999D02*
X52290533Y-64095237D01*
X52957200Y-63142856D02*
X53004819Y-62999999D01*
X53004819Y-62999999D02*
X53004819Y-62761904D01*
X53004819Y-62761904D02*
X52957200Y-62666666D01*
X52957200Y-62666666D02*
X52909580Y-62619047D01*
X52909580Y-62619047D02*
X52814342Y-62571428D01*
X52814342Y-62571428D02*
X52719104Y-62571428D01*
X52719104Y-62571428D02*
X52623866Y-62619047D01*
X52623866Y-62619047D02*
X52576247Y-62666666D01*
X52576247Y-62666666D02*
X52528628Y-62761904D01*
X52528628Y-62761904D02*
X52481009Y-62952380D01*
X52481009Y-62952380D02*
X52433390Y-63047618D01*
X52433390Y-63047618D02*
X52385771Y-63095237D01*
X52385771Y-63095237D02*
X52290533Y-63142856D01*
X52290533Y-63142856D02*
X52195295Y-63142856D01*
X52195295Y-63142856D02*
X52100057Y-63095237D01*
X52100057Y-63095237D02*
X52052438Y-63047618D01*
X52052438Y-63047618D02*
X52004819Y-62952380D01*
X52004819Y-62952380D02*
X52004819Y-62714285D01*
X52004819Y-62714285D02*
X52052438Y-62571428D01*
X52338152Y-62142856D02*
X53338152Y-62142856D01*
X52385771Y-62142856D02*
X52338152Y-62047618D01*
X52338152Y-62047618D02*
X52338152Y-61857142D01*
X52338152Y-61857142D02*
X52385771Y-61761904D01*
X52385771Y-61761904D02*
X52433390Y-61714285D01*
X52433390Y-61714285D02*
X52528628Y-61666666D01*
X52528628Y-61666666D02*
X52814342Y-61666666D01*
X52814342Y-61666666D02*
X52909580Y-61714285D01*
X52909580Y-61714285D02*
X52957200Y-61761904D01*
X52957200Y-61761904D02*
X53004819Y-61857142D01*
X53004819Y-61857142D02*
X53004819Y-62047618D01*
X53004819Y-62047618D02*
X52957200Y-62142856D01*
X53004819Y-60809523D02*
X52481009Y-60809523D01*
X52481009Y-60809523D02*
X52385771Y-60857142D01*
X52385771Y-60857142D02*
X52338152Y-60952380D01*
X52338152Y-60952380D02*
X52338152Y-61142856D01*
X52338152Y-61142856D02*
X52385771Y-61238094D01*
X52957200Y-60809523D02*
X53004819Y-60904761D01*
X53004819Y-60904761D02*
X53004819Y-61142856D01*
X53004819Y-61142856D02*
X52957200Y-61238094D01*
X52957200Y-61238094D02*
X52861961Y-61285713D01*
X52861961Y-61285713D02*
X52766723Y-61285713D01*
X52766723Y-61285713D02*
X52671485Y-61238094D01*
X52671485Y-61238094D02*
X52623866Y-61142856D01*
X52623866Y-61142856D02*
X52623866Y-60904761D01*
X52623866Y-60904761D02*
X52576247Y-60809523D01*
X52957200Y-59904761D02*
X53004819Y-59999999D01*
X53004819Y-59999999D02*
X53004819Y-60190475D01*
X53004819Y-60190475D02*
X52957200Y-60285713D01*
X52957200Y-60285713D02*
X52909580Y-60333332D01*
X52909580Y-60333332D02*
X52814342Y-60380951D01*
X52814342Y-60380951D02*
X52528628Y-60380951D01*
X52528628Y-60380951D02*
X52433390Y-60333332D01*
X52433390Y-60333332D02*
X52385771Y-60285713D01*
X52385771Y-60285713D02*
X52338152Y-60190475D01*
X52338152Y-60190475D02*
X52338152Y-59999999D01*
X52338152Y-59999999D02*
X52385771Y-59904761D01*
X52957200Y-59095237D02*
X53004819Y-59190475D01*
X53004819Y-59190475D02*
X53004819Y-59380951D01*
X53004819Y-59380951D02*
X52957200Y-59476189D01*
X52957200Y-59476189D02*
X52861961Y-59523808D01*
X52861961Y-59523808D02*
X52481009Y-59523808D01*
X52481009Y-59523808D02*
X52385771Y-59476189D01*
X52385771Y-59476189D02*
X52338152Y-59380951D01*
X52338152Y-59380951D02*
X52338152Y-59190475D01*
X52338152Y-59190475D02*
X52385771Y-59095237D01*
X52385771Y-59095237D02*
X52481009Y-59047618D01*
X52481009Y-59047618D02*
X52576247Y-59047618D01*
X52576247Y-59047618D02*
X52671485Y-59523808D01*
X52481009Y-57857141D02*
X52481009Y-57523808D01*
X53004819Y-57380951D02*
X53004819Y-57857141D01*
X53004819Y-57857141D02*
X52004819Y-57857141D01*
X52004819Y-57857141D02*
X52004819Y-57380951D01*
X52957200Y-56999998D02*
X53004819Y-56857141D01*
X53004819Y-56857141D02*
X53004819Y-56619046D01*
X53004819Y-56619046D02*
X52957200Y-56523808D01*
X52957200Y-56523808D02*
X52909580Y-56476189D01*
X52909580Y-56476189D02*
X52814342Y-56428570D01*
X52814342Y-56428570D02*
X52719104Y-56428570D01*
X52719104Y-56428570D02*
X52623866Y-56476189D01*
X52623866Y-56476189D02*
X52576247Y-56523808D01*
X52576247Y-56523808D02*
X52528628Y-56619046D01*
X52528628Y-56619046D02*
X52481009Y-56809522D01*
X52481009Y-56809522D02*
X52433390Y-56904760D01*
X52433390Y-56904760D02*
X52385771Y-56952379D01*
X52385771Y-56952379D02*
X52290533Y-56999998D01*
X52290533Y-56999998D02*
X52195295Y-56999998D01*
X52195295Y-56999998D02*
X52100057Y-56952379D01*
X52100057Y-56952379D02*
X52052438Y-56904760D01*
X52052438Y-56904760D02*
X52004819Y-56809522D01*
X52004819Y-56809522D02*
X52004819Y-56571427D01*
X52004819Y-56571427D02*
X52052438Y-56428570D01*
X53004819Y-55999998D02*
X52004819Y-55999998D01*
X52004819Y-55999998D02*
X52004819Y-55619046D01*
X52004819Y-55619046D02*
X52052438Y-55523808D01*
X52052438Y-55523808D02*
X52100057Y-55476189D01*
X52100057Y-55476189D02*
X52195295Y-55428570D01*
X52195295Y-55428570D02*
X52338152Y-55428570D01*
X52338152Y-55428570D02*
X52433390Y-55476189D01*
X52433390Y-55476189D02*
X52481009Y-55523808D01*
X52481009Y-55523808D02*
X52528628Y-55619046D01*
X52528628Y-55619046D02*
X52528628Y-55999998D01*
X52004819Y-55095236D02*
X52004819Y-54476189D01*
X52004819Y-54476189D02*
X52385771Y-54809522D01*
X52385771Y-54809522D02*
X52385771Y-54666665D01*
X52385771Y-54666665D02*
X52433390Y-54571427D01*
X52433390Y-54571427D02*
X52481009Y-54523808D01*
X52481009Y-54523808D02*
X52576247Y-54476189D01*
X52576247Y-54476189D02*
X52814342Y-54476189D01*
X52814342Y-54476189D02*
X52909580Y-54523808D01*
X52909580Y-54523808D02*
X52957200Y-54571427D01*
X52957200Y-54571427D02*
X53004819Y-54666665D01*
X53004819Y-54666665D02*
X53004819Y-54952379D01*
X53004819Y-54952379D02*
X52957200Y-55047617D01*
X52957200Y-55047617D02*
X52909580Y-55095236D01*
X52100057Y-54095236D02*
X52052438Y-54047617D01*
X52052438Y-54047617D02*
X52004819Y-53952379D01*
X52004819Y-53952379D02*
X52004819Y-53714284D01*
X52004819Y-53714284D02*
X52052438Y-53619046D01*
X52052438Y-53619046D02*
X52100057Y-53571427D01*
X52100057Y-53571427D02*
X52195295Y-53523808D01*
X52195295Y-53523808D02*
X52290533Y-53523808D01*
X52290533Y-53523808D02*
X52433390Y-53571427D01*
X52433390Y-53571427D02*
X53004819Y-54142855D01*
X53004819Y-54142855D02*
X53004819Y-53523808D01*
X52623866Y-53095236D02*
X52623866Y-52333332D01*
X52909580Y-51285713D02*
X52957200Y-51333332D01*
X52957200Y-51333332D02*
X53004819Y-51476189D01*
X53004819Y-51476189D02*
X53004819Y-51571427D01*
X53004819Y-51571427D02*
X52957200Y-51714284D01*
X52957200Y-51714284D02*
X52861961Y-51809522D01*
X52861961Y-51809522D02*
X52766723Y-51857141D01*
X52766723Y-51857141D02*
X52576247Y-51904760D01*
X52576247Y-51904760D02*
X52433390Y-51904760D01*
X52433390Y-51904760D02*
X52242914Y-51857141D01*
X52242914Y-51857141D02*
X52147676Y-51809522D01*
X52147676Y-51809522D02*
X52052438Y-51714284D01*
X52052438Y-51714284D02*
X52004819Y-51571427D01*
X52004819Y-51571427D02*
X52004819Y-51476189D01*
X52004819Y-51476189D02*
X52052438Y-51333332D01*
X52052438Y-51333332D02*
X52100057Y-51285713D01*
X52004819Y-50952379D02*
X52004819Y-50333332D01*
X52004819Y-50333332D02*
X52385771Y-50666665D01*
X52385771Y-50666665D02*
X52385771Y-50523808D01*
X52385771Y-50523808D02*
X52433390Y-50428570D01*
X52433390Y-50428570D02*
X52481009Y-50380951D01*
X52481009Y-50380951D02*
X52576247Y-50333332D01*
X52576247Y-50333332D02*
X52814342Y-50333332D01*
X52814342Y-50333332D02*
X52909580Y-50380951D01*
X52909580Y-50380951D02*
X52957200Y-50428570D01*
X52957200Y-50428570D02*
X53004819Y-50523808D01*
X53004819Y-50523808D02*
X53004819Y-50809522D01*
X53004819Y-50809522D02*
X52957200Y-50904760D01*
X52957200Y-50904760D02*
X52909580Y-50952379D01*
X52623866Y-49904760D02*
X52623866Y-49142856D01*
X52004819Y-48476189D02*
X52004819Y-48380951D01*
X52004819Y-48380951D02*
X52052438Y-48285713D01*
X52052438Y-48285713D02*
X52100057Y-48238094D01*
X52100057Y-48238094D02*
X52195295Y-48190475D01*
X52195295Y-48190475D02*
X52385771Y-48142856D01*
X52385771Y-48142856D02*
X52623866Y-48142856D01*
X52623866Y-48142856D02*
X52814342Y-48190475D01*
X52814342Y-48190475D02*
X52909580Y-48238094D01*
X52909580Y-48238094D02*
X52957200Y-48285713D01*
X52957200Y-48285713D02*
X53004819Y-48380951D01*
X53004819Y-48380951D02*
X53004819Y-48476189D01*
X53004819Y-48476189D02*
X52957200Y-48571427D01*
X52957200Y-48571427D02*
X52909580Y-48619046D01*
X52909580Y-48619046D02*
X52814342Y-48666665D01*
X52814342Y-48666665D02*
X52623866Y-48714284D01*
X52623866Y-48714284D02*
X52385771Y-48714284D01*
X52385771Y-48714284D02*
X52195295Y-48666665D01*
X52195295Y-48666665D02*
X52100057Y-48619046D01*
X52100057Y-48619046D02*
X52052438Y-48571427D01*
X52052438Y-48571427D02*
X52004819Y-48476189D01*
X52909580Y-47714284D02*
X52957200Y-47666665D01*
X52957200Y-47666665D02*
X53004819Y-47714284D01*
X53004819Y-47714284D02*
X52957200Y-47761903D01*
X52957200Y-47761903D02*
X52909580Y-47714284D01*
X52909580Y-47714284D02*
X53004819Y-47714284D01*
X52338152Y-46809523D02*
X53004819Y-46809523D01*
X51957200Y-47047618D02*
X52671485Y-47285713D01*
X52671485Y-47285713D02*
X52671485Y-46666666D01*
X52100057Y-46333332D02*
X52052438Y-46285713D01*
X52052438Y-46285713D02*
X52004819Y-46190475D01*
X52004819Y-46190475D02*
X52004819Y-45952380D01*
X52004819Y-45952380D02*
X52052438Y-45857142D01*
X52052438Y-45857142D02*
X52100057Y-45809523D01*
X52100057Y-45809523D02*
X52195295Y-45761904D01*
X52195295Y-45761904D02*
X52290533Y-45761904D01*
X52290533Y-45761904D02*
X52433390Y-45809523D01*
X52433390Y-45809523D02*
X53004819Y-46380951D01*
X53004819Y-46380951D02*
X53004819Y-45761904D01*
X53004819Y-44857142D02*
X53004819Y-45333332D01*
X53004819Y-45333332D02*
X52004819Y-45333332D01*
X52909580Y-43952380D02*
X52957200Y-43999999D01*
X52957200Y-43999999D02*
X53004819Y-44142856D01*
X53004819Y-44142856D02*
X53004819Y-44238094D01*
X53004819Y-44238094D02*
X52957200Y-44380951D01*
X52957200Y-44380951D02*
X52861961Y-44476189D01*
X52861961Y-44476189D02*
X52766723Y-44523808D01*
X52766723Y-44523808D02*
X52576247Y-44571427D01*
X52576247Y-44571427D02*
X52433390Y-44571427D01*
X52433390Y-44571427D02*
X52242914Y-44523808D01*
X52242914Y-44523808D02*
X52147676Y-44476189D01*
X52147676Y-44476189D02*
X52052438Y-44380951D01*
X52052438Y-44380951D02*
X52004819Y-44238094D01*
X52004819Y-44238094D02*
X52004819Y-44142856D01*
X52004819Y-44142856D02*
X52052438Y-43999999D01*
X52052438Y-43999999D02*
X52100057Y-43952380D01*
X53004819Y-43523808D02*
X52004819Y-43523808D01*
X52004819Y-43523808D02*
X52004819Y-43285713D01*
X52004819Y-43285713D02*
X52052438Y-43142856D01*
X52052438Y-43142856D02*
X52147676Y-43047618D01*
X52147676Y-43047618D02*
X52242914Y-42999999D01*
X52242914Y-42999999D02*
X52433390Y-42952380D01*
X52433390Y-42952380D02*
X52576247Y-42952380D01*
X52576247Y-42952380D02*
X52766723Y-42999999D01*
X52766723Y-42999999D02*
X52861961Y-43047618D01*
X52861961Y-43047618D02*
X52957200Y-43142856D01*
X52957200Y-43142856D02*
X53004819Y-43285713D01*
X53004819Y-43285713D02*
X53004819Y-43523808D01*
X75732784Y-44700180D02*
X75685165Y-44747800D01*
X75685165Y-44747800D02*
X75542308Y-44795419D01*
X75542308Y-44795419D02*
X75447070Y-44795419D01*
X75447070Y-44795419D02*
X75304213Y-44747800D01*
X75304213Y-44747800D02*
X75208975Y-44652561D01*
X75208975Y-44652561D02*
X75161356Y-44557323D01*
X75161356Y-44557323D02*
X75113737Y-44366847D01*
X75113737Y-44366847D02*
X75113737Y-44223990D01*
X75113737Y-44223990D02*
X75161356Y-44033514D01*
X75161356Y-44033514D02*
X75208975Y-43938276D01*
X75208975Y-43938276D02*
X75304213Y-43843038D01*
X75304213Y-43843038D02*
X75447070Y-43795419D01*
X75447070Y-43795419D02*
X75542308Y-43795419D01*
X75542308Y-43795419D02*
X75685165Y-43843038D01*
X75685165Y-43843038D02*
X75732784Y-43890657D01*
X76113737Y-43890657D02*
X76161356Y-43843038D01*
X76161356Y-43843038D02*
X76256594Y-43795419D01*
X76256594Y-43795419D02*
X76494689Y-43795419D01*
X76494689Y-43795419D02*
X76589927Y-43843038D01*
X76589927Y-43843038D02*
X76637546Y-43890657D01*
X76637546Y-43890657D02*
X76685165Y-43985895D01*
X76685165Y-43985895D02*
X76685165Y-44081133D01*
X76685165Y-44081133D02*
X76637546Y-44223990D01*
X76637546Y-44223990D02*
X76066118Y-44795419D01*
X76066118Y-44795419D02*
X76685165Y-44795419D01*
X63434648Y-39554819D02*
X62863220Y-39554819D01*
X63148934Y-39554819D02*
X63148934Y-38554819D01*
X63148934Y-38554819D02*
X63053696Y-38697676D01*
X63053696Y-38697676D02*
X62958458Y-38792914D01*
X62958458Y-38792914D02*
X62863220Y-38840533D01*
X64053696Y-38554819D02*
X64148934Y-38554819D01*
X64148934Y-38554819D02*
X64244172Y-38602438D01*
X64244172Y-38602438D02*
X64291791Y-38650057D01*
X64291791Y-38650057D02*
X64339410Y-38745295D01*
X64339410Y-38745295D02*
X64387029Y-38935771D01*
X64387029Y-38935771D02*
X64387029Y-39173866D01*
X64387029Y-39173866D02*
X64339410Y-39364342D01*
X64339410Y-39364342D02*
X64291791Y-39459580D01*
X64291791Y-39459580D02*
X64244172Y-39507200D01*
X64244172Y-39507200D02*
X64148934Y-39554819D01*
X64148934Y-39554819D02*
X64053696Y-39554819D01*
X64053696Y-39554819D02*
X63958458Y-39507200D01*
X63958458Y-39507200D02*
X63910839Y-39459580D01*
X63910839Y-39459580D02*
X63863220Y-39364342D01*
X63863220Y-39364342D02*
X63815601Y-39173866D01*
X63815601Y-39173866D02*
X63815601Y-38935771D01*
X63815601Y-38935771D02*
X63863220Y-38745295D01*
X63863220Y-38745295D02*
X63910839Y-38650057D01*
X63910839Y-38650057D02*
X63958458Y-38602438D01*
X63958458Y-38602438D02*
X64053696Y-38554819D01*
X65006077Y-38554819D02*
X65101315Y-38554819D01*
X65101315Y-38554819D02*
X65196553Y-38602438D01*
X65196553Y-38602438D02*
X65244172Y-38650057D01*
X65244172Y-38650057D02*
X65291791Y-38745295D01*
X65291791Y-38745295D02*
X65339410Y-38935771D01*
X65339410Y-38935771D02*
X65339410Y-39173866D01*
X65339410Y-39173866D02*
X65291791Y-39364342D01*
X65291791Y-39364342D02*
X65244172Y-39459580D01*
X65244172Y-39459580D02*
X65196553Y-39507200D01*
X65196553Y-39507200D02*
X65101315Y-39554819D01*
X65101315Y-39554819D02*
X65006077Y-39554819D01*
X65006077Y-39554819D02*
X64910839Y-39507200D01*
X64910839Y-39507200D02*
X64863220Y-39459580D01*
X64863220Y-39459580D02*
X64815601Y-39364342D01*
X64815601Y-39364342D02*
X64767982Y-39173866D01*
X64767982Y-39173866D02*
X64767982Y-38935771D01*
X64767982Y-38935771D02*
X64815601Y-38745295D01*
X64815601Y-38745295D02*
X64863220Y-38650057D01*
X64863220Y-38650057D02*
X64910839Y-38602438D01*
X64910839Y-38602438D02*
X65006077Y-38554819D01*
X66196553Y-38888152D02*
X66196553Y-39554819D01*
X65767982Y-38888152D02*
X65767982Y-39411961D01*
X65767982Y-39411961D02*
X65815601Y-39507200D01*
X65815601Y-39507200D02*
X65910839Y-39554819D01*
X65910839Y-39554819D02*
X66053696Y-39554819D01*
X66053696Y-39554819D02*
X66148934Y-39507200D01*
X66148934Y-39507200D02*
X66196553Y-39459580D01*
X67006077Y-39031009D02*
X66672744Y-39031009D01*
X66672744Y-39554819D02*
X66672744Y-38554819D01*
X66672744Y-38554819D02*
X67148934Y-38554819D01*
X68244172Y-38507200D02*
X67387030Y-39792914D01*
X68482268Y-38554819D02*
X69101315Y-38554819D01*
X69101315Y-38554819D02*
X68767982Y-38935771D01*
X68767982Y-38935771D02*
X68910839Y-38935771D01*
X68910839Y-38935771D02*
X69006077Y-38983390D01*
X69006077Y-38983390D02*
X69053696Y-39031009D01*
X69053696Y-39031009D02*
X69101315Y-39126247D01*
X69101315Y-39126247D02*
X69101315Y-39364342D01*
X69101315Y-39364342D02*
X69053696Y-39459580D01*
X69053696Y-39459580D02*
X69006077Y-39507200D01*
X69006077Y-39507200D02*
X68910839Y-39554819D01*
X68910839Y-39554819D02*
X68625125Y-39554819D01*
X68625125Y-39554819D02*
X68529887Y-39507200D01*
X68529887Y-39507200D02*
X68482268Y-39459580D01*
X70006077Y-38554819D02*
X69529887Y-38554819D01*
X69529887Y-38554819D02*
X69482268Y-39031009D01*
X69482268Y-39031009D02*
X69529887Y-38983390D01*
X69529887Y-38983390D02*
X69625125Y-38935771D01*
X69625125Y-38935771D02*
X69863220Y-38935771D01*
X69863220Y-38935771D02*
X69958458Y-38983390D01*
X69958458Y-38983390D02*
X70006077Y-39031009D01*
X70006077Y-39031009D02*
X70053696Y-39126247D01*
X70053696Y-39126247D02*
X70053696Y-39364342D01*
X70053696Y-39364342D02*
X70006077Y-39459580D01*
X70006077Y-39459580D02*
X69958458Y-39507200D01*
X69958458Y-39507200D02*
X69863220Y-39554819D01*
X69863220Y-39554819D02*
X69625125Y-39554819D01*
X69625125Y-39554819D02*
X69529887Y-39507200D01*
X69529887Y-39507200D02*
X69482268Y-39459580D01*
X70339411Y-38554819D02*
X70672744Y-39554819D01*
X70672744Y-39554819D02*
X71006077Y-38554819D01*
X71575705Y-25955419D02*
X71575705Y-24955419D01*
X71575705Y-24955419D02*
X71813800Y-24955419D01*
X71813800Y-24955419D02*
X71956657Y-25003038D01*
X71956657Y-25003038D02*
X72051895Y-25098276D01*
X72051895Y-25098276D02*
X72099514Y-25193514D01*
X72099514Y-25193514D02*
X72147133Y-25383990D01*
X72147133Y-25383990D02*
X72147133Y-25526847D01*
X72147133Y-25526847D02*
X72099514Y-25717323D01*
X72099514Y-25717323D02*
X72051895Y-25812561D01*
X72051895Y-25812561D02*
X71956657Y-25907800D01*
X71956657Y-25907800D02*
X71813800Y-25955419D01*
X71813800Y-25955419D02*
X71575705Y-25955419D01*
X73099514Y-25955419D02*
X72528086Y-25955419D01*
X72813800Y-25955419D02*
X72813800Y-24955419D01*
X72813800Y-24955419D02*
X72718562Y-25098276D01*
X72718562Y-25098276D02*
X72623324Y-25193514D01*
X72623324Y-25193514D02*
X72528086Y-25241133D01*
X69238571Y-19054819D02*
X69238571Y-18054819D01*
X69238571Y-18054819D02*
X69619523Y-18054819D01*
X69619523Y-18054819D02*
X69714761Y-18102438D01*
X69714761Y-18102438D02*
X69762380Y-18150057D01*
X69762380Y-18150057D02*
X69809999Y-18245295D01*
X69809999Y-18245295D02*
X69809999Y-18388152D01*
X69809999Y-18388152D02*
X69762380Y-18483390D01*
X69762380Y-18483390D02*
X69714761Y-18531009D01*
X69714761Y-18531009D02*
X69619523Y-18578628D01*
X69619523Y-18578628D02*
X69238571Y-18578628D01*
X70667142Y-18054819D02*
X70476666Y-18054819D01*
X70476666Y-18054819D02*
X70381428Y-18102438D01*
X70381428Y-18102438D02*
X70333809Y-18150057D01*
X70333809Y-18150057D02*
X70238571Y-18292914D01*
X70238571Y-18292914D02*
X70190952Y-18483390D01*
X70190952Y-18483390D02*
X70190952Y-18864342D01*
X70190952Y-18864342D02*
X70238571Y-18959580D01*
X70238571Y-18959580D02*
X70286190Y-19007200D01*
X70286190Y-19007200D02*
X70381428Y-19054819D01*
X70381428Y-19054819D02*
X70571904Y-19054819D01*
X70571904Y-19054819D02*
X70667142Y-19007200D01*
X70667142Y-19007200D02*
X70714761Y-18959580D01*
X70714761Y-18959580D02*
X70762380Y-18864342D01*
X70762380Y-18864342D02*
X70762380Y-18626247D01*
X70762380Y-18626247D02*
X70714761Y-18531009D01*
X70714761Y-18531009D02*
X70667142Y-18483390D01*
X70667142Y-18483390D02*
X70571904Y-18435771D01*
X70571904Y-18435771D02*
X70381428Y-18435771D01*
X70381428Y-18435771D02*
X70286190Y-18483390D01*
X70286190Y-18483390D02*
X70238571Y-18531009D01*
X70238571Y-18531009D02*
X70190952Y-18626247D01*
X71190952Y-19054819D02*
X71190952Y-18054819D01*
X71762380Y-19054819D02*
X71333809Y-18483390D01*
X71762380Y-18054819D02*
X71190952Y-18626247D01*
X72190952Y-18531009D02*
X72524285Y-18531009D01*
X72667142Y-19054819D02*
X72190952Y-19054819D01*
X72190952Y-19054819D02*
X72190952Y-18054819D01*
X72190952Y-18054819D02*
X72667142Y-18054819D01*
X73619523Y-19054819D02*
X73048095Y-19054819D01*
X73333809Y-19054819D02*
X73333809Y-18054819D01*
X73333809Y-18054819D02*
X73238571Y-18197676D01*
X73238571Y-18197676D02*
X73143333Y-18292914D01*
X73143333Y-18292914D02*
X73048095Y-18340533D01*
X74190952Y-18483390D02*
X74095714Y-18435771D01*
X74095714Y-18435771D02*
X74048095Y-18388152D01*
X74048095Y-18388152D02*
X74000476Y-18292914D01*
X74000476Y-18292914D02*
X74000476Y-18245295D01*
X74000476Y-18245295D02*
X74048095Y-18150057D01*
X74048095Y-18150057D02*
X74095714Y-18102438D01*
X74095714Y-18102438D02*
X74190952Y-18054819D01*
X74190952Y-18054819D02*
X74381428Y-18054819D01*
X74381428Y-18054819D02*
X74476666Y-18102438D01*
X74476666Y-18102438D02*
X74524285Y-18150057D01*
X74524285Y-18150057D02*
X74571904Y-18245295D01*
X74571904Y-18245295D02*
X74571904Y-18292914D01*
X74571904Y-18292914D02*
X74524285Y-18388152D01*
X74524285Y-18388152D02*
X74476666Y-18435771D01*
X74476666Y-18435771D02*
X74381428Y-18483390D01*
X74381428Y-18483390D02*
X74190952Y-18483390D01*
X74190952Y-18483390D02*
X74095714Y-18531009D01*
X74095714Y-18531009D02*
X74048095Y-18578628D01*
X74048095Y-18578628D02*
X74000476Y-18673866D01*
X74000476Y-18673866D02*
X74000476Y-18864342D01*
X74000476Y-18864342D02*
X74048095Y-18959580D01*
X74048095Y-18959580D02*
X74095714Y-19007200D01*
X74095714Y-19007200D02*
X74190952Y-19054819D01*
X74190952Y-19054819D02*
X74381428Y-19054819D01*
X74381428Y-19054819D02*
X74476666Y-19007200D01*
X74476666Y-19007200D02*
X74524285Y-18959580D01*
X74524285Y-18959580D02*
X74571904Y-18864342D01*
X74571904Y-18864342D02*
X74571904Y-18673866D01*
X74571904Y-18673866D02*
X74524285Y-18578628D01*
X74524285Y-18578628D02*
X74476666Y-18531009D01*
X74476666Y-18531009D02*
X74381428Y-18483390D01*
X74952857Y-18769104D02*
X75429047Y-18769104D01*
X74857619Y-19054819D02*
X75190952Y-18054819D01*
X75190952Y-18054819D02*
X75524285Y-19054819D01*
X78401895Y-25235419D02*
X78401895Y-24235419D01*
X78973323Y-25235419D02*
X78544752Y-24663990D01*
X78973323Y-24235419D02*
X78401895Y-24806847D01*
X37022733Y-33965219D02*
X36689400Y-33489028D01*
X36451305Y-33965219D02*
X36451305Y-32965219D01*
X36451305Y-32965219D02*
X36832257Y-32965219D01*
X36832257Y-32965219D02*
X36927495Y-33012838D01*
X36927495Y-33012838D02*
X36975114Y-33060457D01*
X36975114Y-33060457D02*
X37022733Y-33155695D01*
X37022733Y-33155695D02*
X37022733Y-33298552D01*
X37022733Y-33298552D02*
X36975114Y-33393790D01*
X36975114Y-33393790D02*
X36927495Y-33441409D01*
X36927495Y-33441409D02*
X36832257Y-33489028D01*
X36832257Y-33489028D02*
X36451305Y-33489028D01*
X37975114Y-33965219D02*
X37403686Y-33965219D01*
X37689400Y-33965219D02*
X37689400Y-32965219D01*
X37689400Y-32965219D02*
X37594162Y-33108076D01*
X37594162Y-33108076D02*
X37498924Y-33203314D01*
X37498924Y-33203314D02*
X37403686Y-33250933D01*
X35070952Y-28588152D02*
X35070952Y-29254819D01*
X34832857Y-28207200D02*
X34594762Y-28921485D01*
X34594762Y-28921485D02*
X35213809Y-28921485D01*
X35499524Y-28254819D02*
X36166190Y-28254819D01*
X36166190Y-28254819D02*
X35737619Y-29254819D01*
X36547143Y-29254819D02*
X36547143Y-28254819D01*
X36642381Y-28873866D02*
X36928095Y-29254819D01*
X36928095Y-28588152D02*
X36547143Y-28969104D01*
X38642381Y-29254819D02*
X38070953Y-29254819D01*
X38356667Y-29254819D02*
X38356667Y-28254819D01*
X38356667Y-28254819D02*
X38261429Y-28397676D01*
X38261429Y-28397676D02*
X38166191Y-28492914D01*
X38166191Y-28492914D02*
X38070953Y-28540533D01*
X39023334Y-29254819D02*
X39785238Y-28254819D01*
X39166191Y-28254819D02*
X39261429Y-28302438D01*
X39261429Y-28302438D02*
X39309048Y-28397676D01*
X39309048Y-28397676D02*
X39261429Y-28492914D01*
X39261429Y-28492914D02*
X39166191Y-28540533D01*
X39166191Y-28540533D02*
X39070953Y-28492914D01*
X39070953Y-28492914D02*
X39023334Y-28397676D01*
X39023334Y-28397676D02*
X39070953Y-28302438D01*
X39070953Y-28302438D02*
X39166191Y-28254819D01*
X39737619Y-29207200D02*
X39785238Y-29111961D01*
X39785238Y-29111961D02*
X39737619Y-29016723D01*
X39737619Y-29016723D02*
X39642381Y-28969104D01*
X39642381Y-28969104D02*
X39547143Y-29016723D01*
X39547143Y-29016723D02*
X39499524Y-29111961D01*
X39499524Y-29111961D02*
X39547143Y-29207200D01*
X39547143Y-29207200D02*
X39642381Y-29254819D01*
X39642381Y-29254819D02*
X39737619Y-29207200D01*
X39003419Y-57480104D02*
X39812942Y-57480104D01*
X39812942Y-57480104D02*
X39908180Y-57432485D01*
X39908180Y-57432485D02*
X39955800Y-57384866D01*
X39955800Y-57384866D02*
X40003419Y-57289628D01*
X40003419Y-57289628D02*
X40003419Y-57099152D01*
X40003419Y-57099152D02*
X39955800Y-57003914D01*
X39955800Y-57003914D02*
X39908180Y-56956295D01*
X39908180Y-56956295D02*
X39812942Y-56908676D01*
X39812942Y-56908676D02*
X39003419Y-56908676D01*
X39003419Y-56527723D02*
X39003419Y-55908676D01*
X39003419Y-55908676D02*
X39384371Y-56242009D01*
X39384371Y-56242009D02*
X39384371Y-56099152D01*
X39384371Y-56099152D02*
X39431990Y-56003914D01*
X39431990Y-56003914D02*
X39479609Y-55956295D01*
X39479609Y-55956295D02*
X39574847Y-55908676D01*
X39574847Y-55908676D02*
X39812942Y-55908676D01*
X39812942Y-55908676D02*
X39908180Y-55956295D01*
X39908180Y-55956295D02*
X39955800Y-56003914D01*
X39955800Y-56003914D02*
X40003419Y-56099152D01*
X40003419Y-56099152D02*
X40003419Y-56384866D01*
X40003419Y-56384866D02*
X39955800Y-56480104D01*
X39955800Y-56480104D02*
X39908180Y-56527723D01*
X31169104Y-63952381D02*
X31169104Y-63476191D01*
X31454819Y-64047619D02*
X30454819Y-63714286D01*
X30454819Y-63714286D02*
X31454819Y-63380953D01*
X31454819Y-63047619D02*
X30454819Y-63047619D01*
X30454819Y-63047619D02*
X30454819Y-62809524D01*
X30454819Y-62809524D02*
X30502438Y-62666667D01*
X30502438Y-62666667D02*
X30597676Y-62571429D01*
X30597676Y-62571429D02*
X30692914Y-62523810D01*
X30692914Y-62523810D02*
X30883390Y-62476191D01*
X30883390Y-62476191D02*
X31026247Y-62476191D01*
X31026247Y-62476191D02*
X31216723Y-62523810D01*
X31216723Y-62523810D02*
X31311961Y-62571429D01*
X31311961Y-62571429D02*
X31407200Y-62666667D01*
X31407200Y-62666667D02*
X31454819Y-62809524D01*
X31454819Y-62809524D02*
X31454819Y-63047619D01*
X31407200Y-62095238D02*
X31454819Y-61952381D01*
X31454819Y-61952381D02*
X31454819Y-61714286D01*
X31454819Y-61714286D02*
X31407200Y-61619048D01*
X31407200Y-61619048D02*
X31359580Y-61571429D01*
X31359580Y-61571429D02*
X31264342Y-61523810D01*
X31264342Y-61523810D02*
X31169104Y-61523810D01*
X31169104Y-61523810D02*
X31073866Y-61571429D01*
X31073866Y-61571429D02*
X31026247Y-61619048D01*
X31026247Y-61619048D02*
X30978628Y-61714286D01*
X30978628Y-61714286D02*
X30931009Y-61904762D01*
X30931009Y-61904762D02*
X30883390Y-62000000D01*
X30883390Y-62000000D02*
X30835771Y-62047619D01*
X30835771Y-62047619D02*
X30740533Y-62095238D01*
X30740533Y-62095238D02*
X30645295Y-62095238D01*
X30645295Y-62095238D02*
X30550057Y-62047619D01*
X30550057Y-62047619D02*
X30502438Y-62000000D01*
X30502438Y-62000000D02*
X30454819Y-61904762D01*
X30454819Y-61904762D02*
X30454819Y-61666667D01*
X30454819Y-61666667D02*
X30502438Y-61523810D01*
X31454819Y-60571429D02*
X31454819Y-61142857D01*
X31454819Y-60857143D02*
X30454819Y-60857143D01*
X30454819Y-60857143D02*
X30597676Y-60952381D01*
X30597676Y-60952381D02*
X30692914Y-61047619D01*
X30692914Y-61047619D02*
X30740533Y-61142857D01*
X31454819Y-59619048D02*
X31454819Y-60190476D01*
X31454819Y-59904762D02*
X30454819Y-59904762D01*
X30454819Y-59904762D02*
X30597676Y-60000000D01*
X30597676Y-60000000D02*
X30692914Y-60095238D01*
X30692914Y-60095238D02*
X30740533Y-60190476D01*
X31454819Y-58666667D02*
X31454819Y-59238095D01*
X31454819Y-58952381D02*
X30454819Y-58952381D01*
X30454819Y-58952381D02*
X30597676Y-59047619D01*
X30597676Y-59047619D02*
X30692914Y-59142857D01*
X30692914Y-59142857D02*
X30740533Y-59238095D01*
X30454819Y-57761905D02*
X30454819Y-58238095D01*
X30454819Y-58238095D02*
X30931009Y-58285714D01*
X30931009Y-58285714D02*
X30883390Y-58238095D01*
X30883390Y-58238095D02*
X30835771Y-58142857D01*
X30835771Y-58142857D02*
X30835771Y-57904762D01*
X30835771Y-57904762D02*
X30883390Y-57809524D01*
X30883390Y-57809524D02*
X30931009Y-57761905D01*
X30931009Y-57761905D02*
X31026247Y-57714286D01*
X31026247Y-57714286D02*
X31264342Y-57714286D01*
X31264342Y-57714286D02*
X31359580Y-57761905D01*
X31359580Y-57761905D02*
X31407200Y-57809524D01*
X31407200Y-57809524D02*
X31454819Y-57904762D01*
X31454819Y-57904762D02*
X31454819Y-58142857D01*
X31454819Y-58142857D02*
X31407200Y-58238095D01*
X31407200Y-58238095D02*
X31359580Y-58285714D01*
X31835771Y-56238095D02*
X31788152Y-56285714D01*
X31788152Y-56285714D02*
X31645295Y-56380952D01*
X31645295Y-56380952D02*
X31550057Y-56428571D01*
X31550057Y-56428571D02*
X31407200Y-56476190D01*
X31407200Y-56476190D02*
X31169104Y-56523809D01*
X31169104Y-56523809D02*
X30978628Y-56523809D01*
X30978628Y-56523809D02*
X30740533Y-56476190D01*
X30740533Y-56476190D02*
X30597676Y-56428571D01*
X30597676Y-56428571D02*
X30502438Y-56380952D01*
X30502438Y-56380952D02*
X30359580Y-56285714D01*
X30359580Y-56285714D02*
X30311961Y-56238095D01*
X31454819Y-55857142D02*
X30454819Y-55857142D01*
X30931009Y-55857142D02*
X30931009Y-55285714D01*
X31454819Y-55285714D02*
X30454819Y-55285714D01*
X31454819Y-54809523D02*
X30788152Y-54809523D01*
X30454819Y-54809523D02*
X30502438Y-54857142D01*
X30502438Y-54857142D02*
X30550057Y-54809523D01*
X30550057Y-54809523D02*
X30502438Y-54761904D01*
X30502438Y-54761904D02*
X30454819Y-54809523D01*
X30454819Y-54809523D02*
X30550057Y-54809523D01*
X31454819Y-53857143D02*
X31454819Y-54333333D01*
X31454819Y-54333333D02*
X30454819Y-54333333D01*
X31407200Y-53142857D02*
X31454819Y-53238095D01*
X31454819Y-53238095D02*
X31454819Y-53428571D01*
X31454819Y-53428571D02*
X31407200Y-53523809D01*
X31407200Y-53523809D02*
X31311961Y-53571428D01*
X31311961Y-53571428D02*
X30931009Y-53571428D01*
X30931009Y-53571428D02*
X30835771Y-53523809D01*
X30835771Y-53523809D02*
X30788152Y-53428571D01*
X30788152Y-53428571D02*
X30788152Y-53238095D01*
X30788152Y-53238095D02*
X30835771Y-53142857D01*
X30835771Y-53142857D02*
X30931009Y-53095238D01*
X30931009Y-53095238D02*
X31026247Y-53095238D01*
X31026247Y-53095238D02*
X31121485Y-53571428D01*
X30788152Y-52809523D02*
X30788152Y-52428571D01*
X30454819Y-52666666D02*
X31311961Y-52666666D01*
X31311961Y-52666666D02*
X31407200Y-52619047D01*
X31407200Y-52619047D02*
X31454819Y-52523809D01*
X31454819Y-52523809D02*
X31454819Y-52428571D01*
X30788152Y-51666666D02*
X31597676Y-51666666D01*
X31597676Y-51666666D02*
X31692914Y-51714285D01*
X31692914Y-51714285D02*
X31740533Y-51761904D01*
X31740533Y-51761904D02*
X31788152Y-51857142D01*
X31788152Y-51857142D02*
X31788152Y-51999999D01*
X31788152Y-51999999D02*
X31740533Y-52095237D01*
X31407200Y-51666666D02*
X31454819Y-51761904D01*
X31454819Y-51761904D02*
X31454819Y-51952380D01*
X31454819Y-51952380D02*
X31407200Y-52047618D01*
X31407200Y-52047618D02*
X31359580Y-52095237D01*
X31359580Y-52095237D02*
X31264342Y-52142856D01*
X31264342Y-52142856D02*
X30978628Y-52142856D01*
X30978628Y-52142856D02*
X30883390Y-52095237D01*
X30883390Y-52095237D02*
X30835771Y-52047618D01*
X30835771Y-52047618D02*
X30788152Y-51952380D01*
X30788152Y-51952380D02*
X30788152Y-51761904D01*
X30788152Y-51761904D02*
X30835771Y-51666666D01*
X31454819Y-51047618D02*
X31407200Y-51142856D01*
X31407200Y-51142856D02*
X31359580Y-51190475D01*
X31359580Y-51190475D02*
X31264342Y-51238094D01*
X31264342Y-51238094D02*
X30978628Y-51238094D01*
X30978628Y-51238094D02*
X30883390Y-51190475D01*
X30883390Y-51190475D02*
X30835771Y-51142856D01*
X30835771Y-51142856D02*
X30788152Y-51047618D01*
X30788152Y-51047618D02*
X30788152Y-50904761D01*
X30788152Y-50904761D02*
X30835771Y-50809523D01*
X30835771Y-50809523D02*
X30883390Y-50761904D01*
X30883390Y-50761904D02*
X30978628Y-50714285D01*
X30978628Y-50714285D02*
X31264342Y-50714285D01*
X31264342Y-50714285D02*
X31359580Y-50761904D01*
X31359580Y-50761904D02*
X31407200Y-50809523D01*
X31407200Y-50809523D02*
X31454819Y-50904761D01*
X31454819Y-50904761D02*
X31454819Y-51047618D01*
X31835771Y-50380951D02*
X31788152Y-50333332D01*
X31788152Y-50333332D02*
X31645295Y-50238094D01*
X31645295Y-50238094D02*
X31550057Y-50190475D01*
X31550057Y-50190475D02*
X31407200Y-50142856D01*
X31407200Y-50142856D02*
X31169104Y-50095237D01*
X31169104Y-50095237D02*
X30978628Y-50095237D01*
X30978628Y-50095237D02*
X30740533Y-50142856D01*
X30740533Y-50142856D02*
X30597676Y-50190475D01*
X30597676Y-50190475D02*
X30502438Y-50238094D01*
X30502438Y-50238094D02*
X30359580Y-50333332D01*
X30359580Y-50333332D02*
X30311961Y-50380951D01*
X21884333Y-39230780D02*
X21836714Y-39278400D01*
X21836714Y-39278400D02*
X21693857Y-39326019D01*
X21693857Y-39326019D02*
X21598619Y-39326019D01*
X21598619Y-39326019D02*
X21455762Y-39278400D01*
X21455762Y-39278400D02*
X21360524Y-39183161D01*
X21360524Y-39183161D02*
X21312905Y-39087923D01*
X21312905Y-39087923D02*
X21265286Y-38897447D01*
X21265286Y-38897447D02*
X21265286Y-38754590D01*
X21265286Y-38754590D02*
X21312905Y-38564114D01*
X21312905Y-38564114D02*
X21360524Y-38468876D01*
X21360524Y-38468876D02*
X21455762Y-38373638D01*
X21455762Y-38373638D02*
X21598619Y-38326019D01*
X21598619Y-38326019D02*
X21693857Y-38326019D01*
X21693857Y-38326019D02*
X21836714Y-38373638D01*
X21836714Y-38373638D02*
X21884333Y-38421257D01*
X22836714Y-39326019D02*
X22265286Y-39326019D01*
X22551000Y-39326019D02*
X22551000Y-38326019D01*
X22551000Y-38326019D02*
X22455762Y-38468876D01*
X22455762Y-38468876D02*
X22360524Y-38564114D01*
X22360524Y-38564114D02*
X22265286Y-38611733D01*
X23689160Y-38420057D02*
X23736779Y-38372438D01*
X23736779Y-38372438D02*
X23832017Y-38324819D01*
X23832017Y-38324819D02*
X24070112Y-38324819D01*
X24070112Y-38324819D02*
X24165350Y-38372438D01*
X24165350Y-38372438D02*
X24212969Y-38420057D01*
X24212969Y-38420057D02*
X24260588Y-38515295D01*
X24260588Y-38515295D02*
X24260588Y-38610533D01*
X24260588Y-38610533D02*
X24212969Y-38753390D01*
X24212969Y-38753390D02*
X23641541Y-39324819D01*
X23641541Y-39324819D02*
X24260588Y-39324819D01*
X24689160Y-38658152D02*
X24689160Y-39324819D01*
X24689160Y-38753390D02*
X24736779Y-38705771D01*
X24736779Y-38705771D02*
X24832017Y-38658152D01*
X24832017Y-38658152D02*
X24974874Y-38658152D01*
X24974874Y-38658152D02*
X25070112Y-38705771D01*
X25070112Y-38705771D02*
X25117731Y-38801009D01*
X25117731Y-38801009D02*
X25117731Y-39324819D01*
X25927255Y-38801009D02*
X25593922Y-38801009D01*
X25593922Y-39324819D02*
X25593922Y-38324819D01*
X25593922Y-38324819D02*
X26070112Y-38324819D01*
X27212970Y-39324819D02*
X27212970Y-38658152D01*
X27212970Y-38753390D02*
X27260589Y-38705771D01*
X27260589Y-38705771D02*
X27355827Y-38658152D01*
X27355827Y-38658152D02*
X27498684Y-38658152D01*
X27498684Y-38658152D02*
X27593922Y-38705771D01*
X27593922Y-38705771D02*
X27641541Y-38801009D01*
X27641541Y-38801009D02*
X27641541Y-39324819D01*
X27641541Y-38801009D02*
X27689160Y-38705771D01*
X27689160Y-38705771D02*
X27784398Y-38658152D01*
X27784398Y-38658152D02*
X27927255Y-38658152D01*
X27927255Y-38658152D02*
X28022494Y-38705771D01*
X28022494Y-38705771D02*
X28070113Y-38801009D01*
X28070113Y-38801009D02*
X28070113Y-39324819D01*
X28546303Y-39324819D02*
X28546303Y-38658152D01*
X28546303Y-38324819D02*
X28498684Y-38372438D01*
X28498684Y-38372438D02*
X28546303Y-38420057D01*
X28546303Y-38420057D02*
X28593922Y-38372438D01*
X28593922Y-38372438D02*
X28546303Y-38324819D01*
X28546303Y-38324819D02*
X28546303Y-38420057D01*
X29451064Y-39277200D02*
X29355826Y-39324819D01*
X29355826Y-39324819D02*
X29165350Y-39324819D01*
X29165350Y-39324819D02*
X29070112Y-39277200D01*
X29070112Y-39277200D02*
X29022493Y-39229580D01*
X29022493Y-39229580D02*
X28974874Y-39134342D01*
X28974874Y-39134342D02*
X28974874Y-38848628D01*
X28974874Y-38848628D02*
X29022493Y-38753390D01*
X29022493Y-38753390D02*
X29070112Y-38705771D01*
X29070112Y-38705771D02*
X29165350Y-38658152D01*
X29165350Y-38658152D02*
X29355826Y-38658152D01*
X29355826Y-38658152D02*
X29451064Y-38705771D01*
X30308207Y-39324819D02*
X30308207Y-38801009D01*
X30308207Y-38801009D02*
X30260588Y-38705771D01*
X30260588Y-38705771D02*
X30165350Y-38658152D01*
X30165350Y-38658152D02*
X29974874Y-38658152D01*
X29974874Y-38658152D02*
X29879636Y-38705771D01*
X30308207Y-39277200D02*
X30212969Y-39324819D01*
X30212969Y-39324819D02*
X29974874Y-39324819D01*
X29974874Y-39324819D02*
X29879636Y-39277200D01*
X29879636Y-39277200D02*
X29832017Y-39181961D01*
X29832017Y-39181961D02*
X29832017Y-39086723D01*
X29832017Y-39086723D02*
X29879636Y-38991485D01*
X29879636Y-38991485D02*
X29974874Y-38943866D01*
X29974874Y-38943866D02*
X30212969Y-38943866D01*
X30212969Y-38943866D02*
X30308207Y-38896247D01*
X69628733Y-29544180D02*
X69581114Y-29591800D01*
X69581114Y-29591800D02*
X69438257Y-29639419D01*
X69438257Y-29639419D02*
X69343019Y-29639419D01*
X69343019Y-29639419D02*
X69200162Y-29591800D01*
X69200162Y-29591800D02*
X69104924Y-29496561D01*
X69104924Y-29496561D02*
X69057305Y-29401323D01*
X69057305Y-29401323D02*
X69009686Y-29210847D01*
X69009686Y-29210847D02*
X69009686Y-29067990D01*
X69009686Y-29067990D02*
X69057305Y-28877514D01*
X69057305Y-28877514D02*
X69104924Y-28782276D01*
X69104924Y-28782276D02*
X69200162Y-28687038D01*
X69200162Y-28687038D02*
X69343019Y-28639419D01*
X69343019Y-28639419D02*
X69438257Y-28639419D01*
X69438257Y-28639419D02*
X69581114Y-28687038D01*
X69581114Y-28687038D02*
X69628733Y-28734657D01*
X69962067Y-28639419D02*
X70581114Y-28639419D01*
X70581114Y-28639419D02*
X70247781Y-29020371D01*
X70247781Y-29020371D02*
X70390638Y-29020371D01*
X70390638Y-29020371D02*
X70485876Y-29067990D01*
X70485876Y-29067990D02*
X70533495Y-29115609D01*
X70533495Y-29115609D02*
X70581114Y-29210847D01*
X70581114Y-29210847D02*
X70581114Y-29448942D01*
X70581114Y-29448942D02*
X70533495Y-29544180D01*
X70533495Y-29544180D02*
X70485876Y-29591800D01*
X70485876Y-29591800D02*
X70390638Y-29639419D01*
X70390638Y-29639419D02*
X70104924Y-29639419D01*
X70104924Y-29639419D02*
X70009686Y-29591800D01*
X70009686Y-29591800D02*
X69962067Y-29544180D01*
X74587143Y-31254819D02*
X74682381Y-31254819D01*
X74682381Y-31254819D02*
X74777619Y-31302438D01*
X74777619Y-31302438D02*
X74825238Y-31350057D01*
X74825238Y-31350057D02*
X74872857Y-31445295D01*
X74872857Y-31445295D02*
X74920476Y-31635771D01*
X74920476Y-31635771D02*
X74920476Y-31873866D01*
X74920476Y-31873866D02*
X74872857Y-32064342D01*
X74872857Y-32064342D02*
X74825238Y-32159580D01*
X74825238Y-32159580D02*
X74777619Y-32207200D01*
X74777619Y-32207200D02*
X74682381Y-32254819D01*
X74682381Y-32254819D02*
X74587143Y-32254819D01*
X74587143Y-32254819D02*
X74491905Y-32207200D01*
X74491905Y-32207200D02*
X74444286Y-32159580D01*
X74444286Y-32159580D02*
X74396667Y-32064342D01*
X74396667Y-32064342D02*
X74349048Y-31873866D01*
X74349048Y-31873866D02*
X74349048Y-31635771D01*
X74349048Y-31635771D02*
X74396667Y-31445295D01*
X74396667Y-31445295D02*
X74444286Y-31350057D01*
X74444286Y-31350057D02*
X74491905Y-31302438D01*
X74491905Y-31302438D02*
X74587143Y-31254819D01*
X75349048Y-32159580D02*
X75396667Y-32207200D01*
X75396667Y-32207200D02*
X75349048Y-32254819D01*
X75349048Y-32254819D02*
X75301429Y-32207200D01*
X75301429Y-32207200D02*
X75349048Y-32159580D01*
X75349048Y-32159580D02*
X75349048Y-32254819D01*
X76349047Y-32254819D02*
X75777619Y-32254819D01*
X76063333Y-32254819D02*
X76063333Y-31254819D01*
X76063333Y-31254819D02*
X75968095Y-31397676D01*
X75968095Y-31397676D02*
X75872857Y-31492914D01*
X75872857Y-31492914D02*
X75777619Y-31540533D01*
X77206190Y-31588152D02*
X77206190Y-32254819D01*
X76777619Y-31588152D02*
X76777619Y-32111961D01*
X76777619Y-32111961D02*
X76825238Y-32207200D01*
X76825238Y-32207200D02*
X76920476Y-32254819D01*
X76920476Y-32254819D02*
X77063333Y-32254819D01*
X77063333Y-32254819D02*
X77158571Y-32207200D01*
X77158571Y-32207200D02*
X77206190Y-32159580D01*
X78015714Y-31731009D02*
X77682381Y-31731009D01*
X77682381Y-32254819D02*
X77682381Y-31254819D01*
X77682381Y-31254819D02*
X78158571Y-31254819D01*
X24302733Y-29095219D02*
X23969400Y-28619028D01*
X23731305Y-29095219D02*
X23731305Y-28095219D01*
X23731305Y-28095219D02*
X24112257Y-28095219D01*
X24112257Y-28095219D02*
X24207495Y-28142838D01*
X24207495Y-28142838D02*
X24255114Y-28190457D01*
X24255114Y-28190457D02*
X24302733Y-28285695D01*
X24302733Y-28285695D02*
X24302733Y-28428552D01*
X24302733Y-28428552D02*
X24255114Y-28523790D01*
X24255114Y-28523790D02*
X24207495Y-28571409D01*
X24207495Y-28571409D02*
X24112257Y-28619028D01*
X24112257Y-28619028D02*
X23731305Y-28619028D01*
X24683686Y-28190457D02*
X24731305Y-28142838D01*
X24731305Y-28142838D02*
X24826543Y-28095219D01*
X24826543Y-28095219D02*
X25064638Y-28095219D01*
X25064638Y-28095219D02*
X25159876Y-28142838D01*
X25159876Y-28142838D02*
X25207495Y-28190457D01*
X25207495Y-28190457D02*
X25255114Y-28285695D01*
X25255114Y-28285695D02*
X25255114Y-28380933D01*
X25255114Y-28380933D02*
X25207495Y-28523790D01*
X25207495Y-28523790D02*
X24636067Y-29095219D01*
X24636067Y-29095219D02*
X25255114Y-29095219D01*
X22446190Y-33954819D02*
X21874762Y-33954819D01*
X22160476Y-33954819D02*
X22160476Y-32954819D01*
X22160476Y-32954819D02*
X22065238Y-33097676D01*
X22065238Y-33097676D02*
X21970000Y-33192914D01*
X21970000Y-33192914D02*
X21874762Y-33240533D01*
X23065238Y-32954819D02*
X23160476Y-32954819D01*
X23160476Y-32954819D02*
X23255714Y-33002438D01*
X23255714Y-33002438D02*
X23303333Y-33050057D01*
X23303333Y-33050057D02*
X23350952Y-33145295D01*
X23350952Y-33145295D02*
X23398571Y-33335771D01*
X23398571Y-33335771D02*
X23398571Y-33573866D01*
X23398571Y-33573866D02*
X23350952Y-33764342D01*
X23350952Y-33764342D02*
X23303333Y-33859580D01*
X23303333Y-33859580D02*
X23255714Y-33907200D01*
X23255714Y-33907200D02*
X23160476Y-33954819D01*
X23160476Y-33954819D02*
X23065238Y-33954819D01*
X23065238Y-33954819D02*
X22970000Y-33907200D01*
X22970000Y-33907200D02*
X22922381Y-33859580D01*
X22922381Y-33859580D02*
X22874762Y-33764342D01*
X22874762Y-33764342D02*
X22827143Y-33573866D01*
X22827143Y-33573866D02*
X22827143Y-33335771D01*
X22827143Y-33335771D02*
X22874762Y-33145295D01*
X22874762Y-33145295D02*
X22922381Y-33050057D01*
X22922381Y-33050057D02*
X22970000Y-33002438D01*
X22970000Y-33002438D02*
X23065238Y-32954819D01*
X23827143Y-33954819D02*
X23827143Y-32954819D01*
X23922381Y-33573866D02*
X24208095Y-33954819D01*
X24208095Y-33288152D02*
X23827143Y-33669104D01*
X25922381Y-33954819D02*
X25350953Y-33954819D01*
X25636667Y-33954819D02*
X25636667Y-32954819D01*
X25636667Y-32954819D02*
X25541429Y-33097676D01*
X25541429Y-33097676D02*
X25446191Y-33192914D01*
X25446191Y-33192914D02*
X25350953Y-33240533D01*
X26303334Y-33954819D02*
X27065238Y-32954819D01*
X26446191Y-32954819D02*
X26541429Y-33002438D01*
X26541429Y-33002438D02*
X26589048Y-33097676D01*
X26589048Y-33097676D02*
X26541429Y-33192914D01*
X26541429Y-33192914D02*
X26446191Y-33240533D01*
X26446191Y-33240533D02*
X26350953Y-33192914D01*
X26350953Y-33192914D02*
X26303334Y-33097676D01*
X26303334Y-33097676D02*
X26350953Y-33002438D01*
X26350953Y-33002438D02*
X26446191Y-32954819D01*
X27017619Y-33907200D02*
X27065238Y-33811961D01*
X27065238Y-33811961D02*
X27017619Y-33716723D01*
X27017619Y-33716723D02*
X26922381Y-33669104D01*
X26922381Y-33669104D02*
X26827143Y-33716723D01*
X26827143Y-33716723D02*
X26779524Y-33811961D01*
X26779524Y-33811961D02*
X26827143Y-33907200D01*
X26827143Y-33907200D02*
X26922381Y-33954819D01*
X26922381Y-33954819D02*
X27017619Y-33907200D01*
X44610839Y-24454819D02*
X44610839Y-25169104D01*
X44610839Y-25169104D02*
X44563220Y-25311961D01*
X44563220Y-25311961D02*
X44467982Y-25407200D01*
X44467982Y-25407200D02*
X44325125Y-25454819D01*
X44325125Y-25454819D02*
X44229887Y-25454819D01*
X45610839Y-25454819D02*
X45039411Y-25454819D01*
X45325125Y-25454819D02*
X45325125Y-24454819D01*
X45325125Y-24454819D02*
X45229887Y-24597676D01*
X45229887Y-24597676D02*
X45134649Y-24692914D01*
X45134649Y-24692914D02*
X45039411Y-24740533D01*
X60060588Y-25454819D02*
X59489160Y-25454819D01*
X59774874Y-25454819D02*
X59774874Y-24454819D01*
X59774874Y-24454819D02*
X59679636Y-24597676D01*
X59679636Y-24597676D02*
X59584398Y-24692914D01*
X59584398Y-24692914D02*
X59489160Y-24740533D01*
X60441541Y-24550057D02*
X60489160Y-24502438D01*
X60489160Y-24502438D02*
X60584398Y-24454819D01*
X60584398Y-24454819D02*
X60822493Y-24454819D01*
X60822493Y-24454819D02*
X60917731Y-24502438D01*
X60917731Y-24502438D02*
X60965350Y-24550057D01*
X60965350Y-24550057D02*
X61012969Y-24645295D01*
X61012969Y-24645295D02*
X61012969Y-24740533D01*
X61012969Y-24740533D02*
X60965350Y-24883390D01*
X60965350Y-24883390D02*
X60393922Y-25454819D01*
X60393922Y-25454819D02*
X61012969Y-25454819D01*
X61298684Y-24454819D02*
X61632017Y-25454819D01*
X61632017Y-25454819D02*
X61965350Y-24454819D01*
X63060589Y-25454819D02*
X63060589Y-24454819D01*
X63536779Y-25454819D02*
X63536779Y-24454819D01*
X63536779Y-24454819D02*
X64108207Y-25454819D01*
X64108207Y-25454819D02*
X64108207Y-24454819D01*
X52193866Y-37540419D02*
X52193866Y-38254704D01*
X52193866Y-38254704D02*
X52146247Y-38397561D01*
X52146247Y-38397561D02*
X52051009Y-38492800D01*
X52051009Y-38492800D02*
X51908152Y-38540419D01*
X51908152Y-38540419D02*
X51812914Y-38540419D01*
X52622438Y-37635657D02*
X52670057Y-37588038D01*
X52670057Y-37588038D02*
X52765295Y-37540419D01*
X52765295Y-37540419D02*
X53003390Y-37540419D01*
X53003390Y-37540419D02*
X53098628Y-37588038D01*
X53098628Y-37588038D02*
X53146247Y-37635657D01*
X53146247Y-37635657D02*
X53193866Y-37730895D01*
X53193866Y-37730895D02*
X53193866Y-37826133D01*
X53193866Y-37826133D02*
X53146247Y-37968990D01*
X53146247Y-37968990D02*
X52574819Y-38540419D01*
X52574819Y-38540419D02*
X53193866Y-38540419D01*
X58736779Y-34994819D02*
X58736779Y-33994819D01*
X58736779Y-33994819D02*
X58974874Y-33994819D01*
X58974874Y-33994819D02*
X59117731Y-34042438D01*
X59117731Y-34042438D02*
X59212969Y-34137676D01*
X59212969Y-34137676D02*
X59260588Y-34232914D01*
X59260588Y-34232914D02*
X59308207Y-34423390D01*
X59308207Y-34423390D02*
X59308207Y-34566247D01*
X59308207Y-34566247D02*
X59260588Y-34756723D01*
X59260588Y-34756723D02*
X59212969Y-34851961D01*
X59212969Y-34851961D02*
X59117731Y-34947200D01*
X59117731Y-34947200D02*
X58974874Y-34994819D01*
X58974874Y-34994819D02*
X58736779Y-34994819D01*
X59736779Y-34994819D02*
X59736779Y-33994819D01*
X59736779Y-34471009D02*
X60308207Y-34471009D01*
X60308207Y-34994819D02*
X60308207Y-33994819D01*
X60641541Y-33994819D02*
X61212969Y-33994819D01*
X60927255Y-34994819D02*
X60927255Y-33994819D01*
X61498684Y-34090057D02*
X61546303Y-34042438D01*
X61546303Y-34042438D02*
X61641541Y-33994819D01*
X61641541Y-33994819D02*
X61879636Y-33994819D01*
X61879636Y-33994819D02*
X61974874Y-34042438D01*
X61974874Y-34042438D02*
X62022493Y-34090057D01*
X62022493Y-34090057D02*
X62070112Y-34185295D01*
X62070112Y-34185295D02*
X62070112Y-34280533D01*
X62070112Y-34280533D02*
X62022493Y-34423390D01*
X62022493Y-34423390D02*
X61451065Y-34994819D01*
X61451065Y-34994819D02*
X62070112Y-34994819D01*
X62451065Y-34090057D02*
X62498684Y-34042438D01*
X62498684Y-34042438D02*
X62593922Y-33994819D01*
X62593922Y-33994819D02*
X62832017Y-33994819D01*
X62832017Y-33994819D02*
X62927255Y-34042438D01*
X62927255Y-34042438D02*
X62974874Y-34090057D01*
X62974874Y-34090057D02*
X63022493Y-34185295D01*
X63022493Y-34185295D02*
X63022493Y-34280533D01*
X63022493Y-34280533D02*
X62974874Y-34423390D01*
X62974874Y-34423390D02*
X62403446Y-34994819D01*
X62403446Y-34994819D02*
X63022493Y-34994819D01*
%TO.C,U1*%
D13*
X68734800Y-47996200D02*
X81734800Y-47996200D01*
X81734800Y-68996200D01*
X68734800Y-68996200D01*
X68734800Y-47996200D01*
%TO.C,U2*%
D12*
X40662600Y-42034200D02*
X40662600Y-44034200D01*
X40662600Y-42034200D02*
X42662600Y-42034200D01*
D13*
X40662600Y-42034200D02*
X64442600Y-42034200D01*
X64442600Y-65814200D01*
X40662600Y-65814200D01*
X40662600Y-42034200D01*
%TO.C,C2*%
D14*
X71819451Y-39623600D02*
X71819451Y-38557600D01*
X71859451Y-39858600D02*
X71859451Y-38322600D01*
X71899451Y-40037600D02*
X71899451Y-38143600D01*
X71939451Y-40187600D02*
X71939451Y-37993600D01*
X71979451Y-40318600D02*
X71979451Y-37862600D01*
X72019451Y-40436600D02*
X72019451Y-37744600D01*
X72059451Y-40543600D02*
X72059451Y-37637600D01*
X72099451Y-40642600D02*
X72099451Y-37538600D01*
X72139451Y-40734600D02*
X72139451Y-37446600D01*
X72179451Y-40821600D02*
X72179451Y-37359600D01*
X72219451Y-40903600D02*
X72219451Y-37277600D01*
X72259451Y-40980600D02*
X72259451Y-37200600D01*
X72299451Y-41054600D02*
X72299451Y-37126600D01*
X72339451Y-41124600D02*
X72339451Y-37056600D01*
X72379451Y-41191600D02*
X72379451Y-36989600D01*
X72419451Y-41255600D02*
X72419451Y-36925600D01*
X72459451Y-41317600D02*
X72459451Y-36863600D01*
X72499451Y-41377600D02*
X72499451Y-36803600D01*
X72539451Y-41434600D02*
X72539451Y-36746600D01*
X72579451Y-41490600D02*
X72579451Y-36690600D01*
X72619451Y-41543600D02*
X72619451Y-36637600D01*
X72659451Y-41595600D02*
X72659451Y-36585600D01*
X72699451Y-41645600D02*
X72699451Y-36535600D01*
X72739451Y-41694600D02*
X72739451Y-36486600D01*
X72779451Y-41741600D02*
X72779451Y-36439600D01*
X72819451Y-41786600D02*
X72819451Y-36394600D01*
X72859451Y-41831600D02*
X72859451Y-36349600D01*
X72899451Y-41874600D02*
X72899451Y-36306600D01*
X72939451Y-41916600D02*
X72939451Y-36264600D01*
X72979451Y-41957600D02*
X72979451Y-36223600D01*
X73019451Y-41996600D02*
X73019451Y-36184600D01*
X73059451Y-42035600D02*
X73059451Y-36145600D01*
X73099451Y-42072600D02*
X73099451Y-36108600D01*
X73139451Y-38050600D02*
X73139451Y-36071600D01*
X73139451Y-42109600D02*
X73139451Y-40130600D01*
X73179451Y-38050600D02*
X73179451Y-36035600D01*
X73179451Y-42145600D02*
X73179451Y-40130600D01*
X73219451Y-38050600D02*
X73219451Y-36001600D01*
X73219451Y-42179600D02*
X73219451Y-40130600D01*
X73259451Y-38050600D02*
X73259451Y-35967600D01*
X73259451Y-42213600D02*
X73259451Y-40130600D01*
X73299451Y-38050600D02*
X73299451Y-35934600D01*
X73299451Y-42246600D02*
X73299451Y-40130600D01*
X73339451Y-38050600D02*
X73339451Y-35902600D01*
X73339451Y-42278600D02*
X73339451Y-40130600D01*
X73379451Y-38050600D02*
X73379451Y-35871600D01*
X73379451Y-42309600D02*
X73379451Y-40130600D01*
X73419451Y-38050600D02*
X73419451Y-35840600D01*
X73419451Y-42340600D02*
X73419451Y-40130600D01*
X73459451Y-38050600D02*
X73459451Y-35810600D01*
X73459451Y-42370600D02*
X73459451Y-40130600D01*
X73499451Y-38050600D02*
X73499451Y-35781600D01*
X73499451Y-42399600D02*
X73499451Y-40130600D01*
X73539451Y-38050600D02*
X73539451Y-35753600D01*
X73539451Y-42427600D02*
X73539451Y-40130600D01*
X73579451Y-38050600D02*
X73579451Y-35725600D01*
X73579451Y-42455600D02*
X73579451Y-40130600D01*
X73619451Y-38050600D02*
X73619451Y-35698600D01*
X73619451Y-42482600D02*
X73619451Y-40130600D01*
X73659451Y-38050600D02*
X73659451Y-35672600D01*
X73659451Y-42508600D02*
X73659451Y-40130600D01*
X73699451Y-38050600D02*
X73699451Y-35647600D01*
X73699451Y-42533600D02*
X73699451Y-40130600D01*
X73739451Y-38050600D02*
X73739451Y-35622600D01*
X73739451Y-42558600D02*
X73739451Y-40130600D01*
X73779451Y-38050600D02*
X73779451Y-35597600D01*
X73779451Y-42583600D02*
X73779451Y-40130600D01*
X73819451Y-38050600D02*
X73819451Y-35574600D01*
X73819451Y-42606600D02*
X73819451Y-40130600D01*
X73859451Y-38050600D02*
X73859451Y-35551600D01*
X73859451Y-42629600D02*
X73859451Y-40130600D01*
X73899451Y-38050600D02*
X73899451Y-35528600D01*
X73899451Y-42652600D02*
X73899451Y-40130600D01*
X73939451Y-38050600D02*
X73939451Y-35506600D01*
X73939451Y-42674600D02*
X73939451Y-40130600D01*
X73979451Y-38050600D02*
X73979451Y-35485600D01*
X73979451Y-42695600D02*
X73979451Y-40130600D01*
X74019451Y-38050600D02*
X74019451Y-35464600D01*
X74019451Y-42716600D02*
X74019451Y-40130600D01*
X74059451Y-38050600D02*
X74059451Y-35444600D01*
X74059451Y-42736600D02*
X74059451Y-40130600D01*
X74099451Y-38050600D02*
X74099451Y-35424600D01*
X74099451Y-42756600D02*
X74099451Y-40130600D01*
X74139451Y-38050600D02*
X74139451Y-35405600D01*
X74139451Y-42775600D02*
X74139451Y-40130600D01*
X74179451Y-38050600D02*
X74179451Y-35386600D01*
X74179451Y-42794600D02*
X74179451Y-40130600D01*
X74219451Y-38050600D02*
X74219451Y-35368600D01*
X74219451Y-42812600D02*
X74219451Y-40130600D01*
X74259451Y-38050600D02*
X74259451Y-35350600D01*
X74259451Y-42830600D02*
X74259451Y-40130600D01*
X74299451Y-38050600D02*
X74299451Y-35333600D01*
X74299451Y-42847600D02*
X74299451Y-40130600D01*
X74339451Y-38050600D02*
X74339451Y-35317600D01*
X74339451Y-42863600D02*
X74339451Y-40130600D01*
X74379451Y-38050600D02*
X74379451Y-35301600D01*
X74379451Y-42879600D02*
X74379451Y-40130600D01*
X74419451Y-38050600D02*
X74419451Y-35285600D01*
X74419451Y-42895600D02*
X74419451Y-40130600D01*
X74459451Y-38050600D02*
X74459451Y-35270600D01*
X74459451Y-42910600D02*
X74459451Y-40130600D01*
X74499451Y-38050600D02*
X74499451Y-35255600D01*
X74499451Y-42925600D02*
X74499451Y-40130600D01*
X74539451Y-38050600D02*
X74539451Y-35241600D01*
X74539451Y-42939600D02*
X74539451Y-40130600D01*
X74579451Y-38050600D02*
X74579451Y-35227600D01*
X74579451Y-42953600D02*
X74579451Y-40130600D01*
X74619451Y-38050600D02*
X74619451Y-35214600D01*
X74619451Y-42966600D02*
X74619451Y-40130600D01*
X74659451Y-38050600D02*
X74659451Y-35201600D01*
X74659451Y-42979600D02*
X74659451Y-40130600D01*
X74699451Y-38050600D02*
X74699451Y-35189600D01*
X74699451Y-42991600D02*
X74699451Y-40130600D01*
X74739451Y-38050600D02*
X74739451Y-35177600D01*
X74739451Y-43003600D02*
X74739451Y-40130600D01*
X74779451Y-38050600D02*
X74779451Y-35165600D01*
X74779451Y-43015600D02*
X74779451Y-40130600D01*
X74819451Y-38050600D02*
X74819451Y-35154600D01*
X74819451Y-43026600D02*
X74819451Y-40130600D01*
X74859451Y-38050600D02*
X74859451Y-35143600D01*
X74859451Y-43037600D02*
X74859451Y-40130600D01*
X74899451Y-38050600D02*
X74899451Y-35133600D01*
X74899451Y-43047600D02*
X74899451Y-40130600D01*
X74939451Y-38050600D02*
X74939451Y-35123600D01*
X74939451Y-43057600D02*
X74939451Y-40130600D01*
X74979451Y-38050600D02*
X74979451Y-35114600D01*
X74979451Y-43066600D02*
X74979451Y-40130600D01*
X75019451Y-38050600D02*
X75019451Y-35105600D01*
X75019451Y-43075600D02*
X75019451Y-40130600D01*
X75059451Y-38050600D02*
X75059451Y-35097600D01*
X75059451Y-43083600D02*
X75059451Y-40130600D01*
X75099451Y-38050600D02*
X75099451Y-35088600D01*
X75099451Y-43092600D02*
X75099451Y-40130600D01*
X75139451Y-38050600D02*
X75139451Y-35081600D01*
X75139451Y-43099600D02*
X75139451Y-40130600D01*
X75179451Y-38050600D02*
X75179451Y-35073600D01*
X75179451Y-43107600D02*
X75179451Y-40130600D01*
X75219451Y-43113600D02*
X75219451Y-35067600D01*
X75259451Y-43120600D02*
X75259451Y-35060600D01*
X75299451Y-43126600D02*
X75299451Y-35054600D01*
X75339451Y-43132600D02*
X75339451Y-35048600D01*
X75379451Y-43137600D02*
X75379451Y-35043600D01*
X75419451Y-43142600D02*
X75419451Y-35038600D01*
X75459451Y-43146600D02*
X75459451Y-35034600D01*
X75499451Y-43151600D02*
X75499451Y-35029600D01*
X75539451Y-43154600D02*
X75539451Y-35026600D01*
X75579451Y-43158600D02*
X75579451Y-35022600D01*
X75619451Y-43160600D02*
X75619451Y-35020600D01*
X75659451Y-43163600D02*
X75659451Y-35017600D01*
X75699451Y-43165600D02*
X75699451Y-35015600D01*
X75739451Y-43167600D02*
X75739451Y-35013600D01*
X75779451Y-43168600D02*
X75779451Y-35012600D01*
X75819451Y-43169600D02*
X75819451Y-35011600D01*
X75859451Y-43170600D02*
X75859451Y-35010600D01*
X75899451Y-43170600D02*
X75899451Y-35010600D01*
X79909149Y-41805600D02*
X79909149Y-41005600D01*
X80309149Y-41405600D02*
X79509149Y-41405600D01*
X80019451Y-39090600D02*
G75*
G02*
X71779451Y-39090600I-4120000J0D01*
G01*
X71779451Y-39090600D02*
G75*
G02*
X80019451Y-39090600I4120000J0D01*
G01*
%TO.C,D1*%
X67403800Y-22580600D02*
X68393800Y-22580600D01*
X74853800Y-24500600D02*
X74853800Y-20660600D01*
X74973800Y-24500600D02*
X74973800Y-20660600D01*
X75093800Y-24500600D02*
X75093800Y-20660600D01*
X77223800Y-22580600D02*
X76233800Y-22580600D01*
X68393800Y-20660600D02*
X76233800Y-20660600D01*
X76233800Y-24500600D01*
X68393800Y-24500600D01*
X68393800Y-20660600D01*
%TO.C,R1*%
X33149400Y-31140400D02*
X33919400Y-31140400D01*
X41229400Y-31140400D02*
X40459400Y-31140400D01*
X33919400Y-29770400D02*
X40459400Y-29770400D01*
X40459400Y-32510400D01*
X33919400Y-32510400D01*
X33919400Y-29770400D01*
%TO.C,U3*%
D13*
X16548600Y-41718200D02*
X36548600Y-41718200D01*
X36548600Y-71718200D01*
X16548600Y-71718200D01*
X16548600Y-41718200D01*
%TO.C,C1*%
D14*
X21931000Y-34901200D02*
X27171000Y-34901200D01*
X21931000Y-35238200D02*
X21931000Y-34901200D01*
X21931000Y-37641200D02*
X21931000Y-37304200D01*
X27171000Y-34901200D02*
X27171000Y-35238200D01*
X27171000Y-37304200D02*
X27171000Y-37641200D01*
X27171000Y-37641200D02*
X21931000Y-37641200D01*
%TO.C,C3*%
X73605400Y-27814600D02*
X78845400Y-27814600D01*
X73605400Y-28151600D02*
X73605400Y-27814600D01*
X73605400Y-30554600D02*
X73605400Y-30217600D01*
X78845400Y-27814600D02*
X78845400Y-28151600D01*
X78845400Y-30217600D02*
X78845400Y-30554600D01*
X78845400Y-30554600D02*
X73605400Y-30554600D01*
%TO.C,R2*%
X20449400Y-31140400D02*
X21219400Y-31140400D01*
X28529400Y-31140400D02*
X27759400Y-31140400D01*
X21219400Y-29770400D02*
X27759400Y-29770400D01*
X27759400Y-32510400D01*
X21219400Y-32510400D01*
X21219400Y-29770400D01*
%TO.C,J1*%
X47350000Y-17280000D02*
X54790000Y-17280000D01*
X47350000Y-27320000D02*
X47350000Y-17280000D01*
X55390000Y-17280000D02*
X57750000Y-17280000D01*
X57750000Y-17280000D02*
X57750000Y-27320000D01*
X57750000Y-17900000D02*
X47350000Y-17900000D01*
X57750000Y-19400000D02*
X47350000Y-19400000D01*
X57750000Y-24300000D02*
X47350000Y-24300000D01*
X57750000Y-27320000D02*
X47350000Y-27320000D01*
X55090000Y-17280000D02*
X54650000Y-16670000D01*
X55530000Y-16670000D01*
X55090000Y-17280000D01*
G36*
X55090000Y-17280000D02*
G01*
X54650000Y-16670000D01*
X55530000Y-16670000D01*
X55090000Y-17280000D01*
G37*
%TO.C,J2*%
X47477200Y-34735600D02*
X48227200Y-34735600D01*
X48227200Y-31785600D02*
X52527200Y-31785600D01*
X48227200Y-34735600D02*
X48227200Y-31785600D01*
X56627200Y-37285600D02*
X57877200Y-37285600D01*
X56827200Y-31785600D02*
X52527200Y-31785600D01*
X56827200Y-34735600D02*
X56827200Y-31785600D01*
X57577200Y-34735600D02*
X56827200Y-34735600D01*
X57877200Y-37285600D02*
X57877200Y-36035600D01*
X47477200Y-36235600D02*
X49277200Y-36235600D01*
X49277200Y-36985600D01*
X47477200Y-36985600D01*
X47477200Y-36235600D01*
X50777200Y-36235600D02*
X54277200Y-36235600D01*
X54277200Y-36985600D01*
X50777200Y-36985600D01*
X50777200Y-36235600D01*
X55777200Y-36235600D02*
X57577200Y-36235600D01*
X57577200Y-36985600D01*
X55777200Y-36985600D01*
X55777200Y-36235600D01*
X47467200Y-31025600D02*
X57587200Y-31025600D01*
X57587200Y-36995600D01*
X47467200Y-36995600D01*
X47467200Y-31025600D01*
%TD*%
M02*
