M48
; DRILL file KiCad 10.0.5 date 2026-10-10T12:10:41
; FORMAT={-:-/ absolute / metric / decimal}
; #@! TF.CreationDate,2026-10-10T12:10:41-07:00
; #@! TF.GenerationSoftware,Kicad,Pcbnew,10.0.5
; #@! TF.FileFunction,Plated,1,2,PTH
FMAT,2
METRIC
; #@! TA.AperFunction,Plated,PTH,ComponentDrill
T1C0.800
; #@! TA.AperFunction,Plated,PTH,ComponentDrill
T2C0.950
; #@! TA.AperFunction,Plated,PTH,ComponentDrill
T3C1.000
; #@! TA.AperFunction,Plated,PTH,ComponentDrill
T4C1.200
; #@! TA.AperFunction,Plated,PTH,ComponentDrill
T5C1.300
%
G90
G05
T1
X19.409Y-31.14
X22.051Y-36.271
X27.051Y-36.271
X29.569Y-31.14
X32.109Y-31.14
X42.269Y-31.14
X73.725Y-29.185
X74.149Y-39.091
X77.649Y-39.091
X78.725Y-29.185
T2
X50.027Y-34.536
X52.527Y-34.536
X55.027Y-34.536
T3
X20.549Y-45.288
X20.549Y-47.828
X20.549Y-50.368
X20.549Y-52.908
X20.549Y-55.448
X20.549Y-57.988
X20.549Y-60.528
X20.549Y-63.068
X20.549Y-65.608
X20.549Y-68.148
X43.663Y-45.034
X43.663Y-47.574
X43.663Y-50.114
X43.663Y-52.654
X43.663Y-55.194
X43.663Y-57.734
X43.663Y-60.274
X43.663Y-62.814
X61.443Y-45.034
X61.443Y-47.574
X61.443Y-50.114
X61.443Y-52.654
X61.443Y-55.194
X61.443Y-57.734
X61.443Y-60.274
X61.443Y-62.814
X70.155Y-49.606
X70.155Y-67.386
X72.695Y-49.606
X72.695Y-67.386
X77.775Y-49.606
X77.775Y-67.386
X80.315Y-49.606
X80.315Y-67.386
T4
X65.964Y-22.581
X78.664Y-22.581
T5
X50.01Y-22.0
X55.09Y-22.0
M30
