%TF.GenerationSoftware,KiCad,Pcbnew,10.0.5*%
%TF.CreationDate,2026-10-10T11:44:41-07:00*%
%TF.ProjectId,irin,6972696e-2e6b-4696-9361-645f70636258,rev?*%
%TF.SameCoordinates,Original*%
%TF.FileFunction,Copper,L2,Bot*%
%TF.FilePolarity,Positive*%
%FSLAX46Y46*%
G04 Gerber Fmt 4.6, Leading zero omitted, Abs format (unit mm)*
G04 Created by KiCad (PCBNEW 10.0.5) date 2026-10-10 11:44:41*
%MOMM*%
%LPD*%
G01*
G04 APERTURE LIST*
G04 Aperture macros list*
%AMRoundRect*
0 Rectangle with rounded corners*
0 $1 Rounding radius*
0 $2 $3 $4 $5 $6 $7 $8 $9 X,Y pos of 4 corners*
0 Add a 4 corners polygon primitive as box body*
4,1,4,$2,$3,$4,$5,$6,$7,$8,$9,$2,$3,0*
0 Add four circle primitives for the rounded corners*
1,1,$1+$1,$2,$3*
1,1,$1+$1,$4,$5*
1,1,$1+$1,$6,$7*
1,1,$1+$1,$8,$9*
0 Add four rect primitives between the rounded corners*
20,1,$1+$1,$2,$3,$4,$5,0*
20,1,$1+$1,$4,$5,$6,$7,0*
20,1,$1+$1,$6,$7,$8,$9,0*
20,1,$1+$1,$8,$9,$2,$3,0*%
G04 Aperture macros list end*
%TA.AperFunction,ComponentPad*%
%ADD10R,1.700000X1.700000*%
%TD*%
%TA.AperFunction,ComponentPad*%
%ADD11C,1.700000*%
%TD*%
%TA.AperFunction,ComponentPad*%
%ADD12RoundRect,0.250000X0.550000X0.550000X-0.550000X0.550000X-0.550000X-0.550000X0.550000X-0.550000X0*%
%TD*%
%TA.AperFunction,ComponentPad*%
%ADD13C,1.600000*%
%TD*%
%TA.AperFunction,ComponentPad*%
%ADD14RoundRect,0.250001X0.949999X0.949999X-0.949999X0.949999X-0.949999X-0.949999X0.949999X-0.949999X0*%
%TD*%
%TA.AperFunction,ComponentPad*%
%ADD15C,2.400000*%
%TD*%
%TA.AperFunction,ComponentPad*%
%ADD16RoundRect,0.250000X1.050000X1.050000X-1.050000X1.050000X-1.050000X-1.050000X1.050000X-1.050000X0*%
%TD*%
%TA.AperFunction,ComponentPad*%
%ADD17C,2.600000*%
%TD*%
%TA.AperFunction,ComponentPad*%
%ADD18RoundRect,0.250000X0.600000X0.725000X-0.600000X0.725000X-0.600000X-0.725000X0.600000X-0.725000X0*%
%TD*%
%TA.AperFunction,ComponentPad*%
%ADD19O,1.700000X1.950000*%
%TD*%
G04 APERTURE END LIST*
D10*
%TO.P,U1,1,IN+_1*%
%TO.N,/12vPROT*%
X77774800Y-49606200D03*
X80314800Y-49606200D03*
D11*
%TO.P,U1,2,IN-_2*%
%TO.N,/GND*%
X70154800Y-49606200D03*
X72694800Y-49606200D03*
D10*
%TO.P,U1,3,OUT+_3*%
%TO.N,Net-(U1-OUT+)*%
X77774800Y-67386200D03*
X80314800Y-67386200D03*
D11*
%TO.P,U1,4,OUT-_4*%
%TO.N,/GND*%
X70154800Y-67386200D03*
X72694800Y-67386200D03*
%TD*%
D10*
%TO.P,U2,1,5V_1*%
%TO.N,Net-(U1-OUT+)*%
X61442600Y-62814200D03*
D11*
%TO.P,U2,2,3V3_2*%
%TO.N,Net-(J2-VCC)*%
X61442600Y-57734200D03*
%TO.P,U2,3,GND_3*%
%TO.N,/GND*%
X61442600Y-60274200D03*
%TO.P,U2,4,GPIO3_4*%
%TO.N,Net-(J2-DATA)*%
X43662600Y-45034200D03*
%TO.P,U2,5,GPIO5_5*%
%TO.N,Net-(U2-GPIO5)*%
X43662600Y-50114200D03*
%TO.P,U2,6,GPIO6_6*%
%TO.N,Net-(U2-GPIO6)*%
X43662600Y-52654200D03*
%TO.P,U2,7*%
%TO.N,N/C*%
X43662600Y-47574200D03*
%TO.P,U2,8*%
X43662600Y-55194200D03*
%TO.P,U2,9*%
X43662600Y-57734200D03*
%TO.P,U2,10*%
X43662600Y-60274200D03*
D10*
%TO.P,U2,11*%
X43662600Y-62814200D03*
D11*
%TO.P,U2,12*%
X61442600Y-45034200D03*
%TO.P,U2,13*%
X61442600Y-47574200D03*
%TO.P,U2,14*%
X61442600Y-50114200D03*
%TO.P,U2,15*%
X61442600Y-52654200D03*
%TO.P,U2,16*%
X61442600Y-55194200D03*
%TD*%
D12*
%TO.P,C2,1,+_1*%
%TO.N,/12vPROT*%
X77649451Y-39090600D03*
D13*
%TO.P,C2,2,-_2*%
%TO.N,/GND*%
X74149451Y-39090600D03*
%TD*%
D14*
%TO.P,D1,1,K_1*%
%TO.N,/12vPROT*%
X78663800Y-22580600D03*
D15*
%TO.P,D1,2,A_2*%
%TO.N,/GND*%
X65963800Y-22580600D03*
%TD*%
D13*
%TO.P,R1,1,1_1*%
%TO.N,/12vPROT*%
X42269400Y-31140400D03*
%TO.P,R1,2,2_2*%
%TO.N,Net-(U3-A0)*%
X32109400Y-31140400D03*
%TD*%
D10*
%TO.P,U3,1,VDD_1*%
%TO.N,Net-(J2-VCC)*%
X20548600Y-45288200D03*
D11*
%TO.P,U3,2,GND_2*%
%TO.N,/GND*%
X20548600Y-47828200D03*
%TO.P,U3,3,SCL_3*%
%TO.N,Net-(U2-GPIO6)*%
X20548600Y-50368200D03*
%TO.P,U3,4,SDA_4*%
%TO.N,Net-(U2-GPIO5)*%
X20548600Y-52908200D03*
%TO.P,U3,5,ADDR_5*%
%TO.N,/GND*%
X20548600Y-55448200D03*
%TO.P,U3,6,A0_6*%
%TO.N,Net-(U3-A0)*%
X20548600Y-60528200D03*
%TO.P,U3,7*%
%TO.N,N/C*%
X20548600Y-57988200D03*
%TO.P,U3,8*%
X20548600Y-63068200D03*
%TO.P,U3,9*%
X20548600Y-65608200D03*
%TO.P,U3,10*%
X20548600Y-68148200D03*
%TD*%
D13*
%TO.P,C1,1,1_1*%
%TO.N,Net-(U3-A0)*%
X27051000Y-36271200D03*
%TO.P,C1,2,2_2*%
%TO.N,/GND*%
X22051000Y-36271200D03*
%TD*%
%TO.P,C3,1,1_1*%
%TO.N,/12vPROT*%
X78725400Y-29184600D03*
%TO.P,C3,2,2_2*%
%TO.N,/GND*%
X73725400Y-29184600D03*
%TD*%
%TO.P,R2,1,1_1*%
%TO.N,Net-(U3-A0)*%
X29569400Y-31140400D03*
%TO.P,R2,2,2_2*%
%TO.N,/GND*%
X19409400Y-31140400D03*
%TD*%
D16*
%TO.P,J1,1*%
%TO.N,/12vPROT*%
X55090000Y-22000000D03*
D17*
%TO.P,J1,2*%
%TO.N,/GND*%
X50010000Y-22000000D03*
%TD*%
D18*
%TO.P,J2,1,VCC_1*%
%TO.N,Net-(J2-VCC)*%
X55027200Y-34535600D03*
D19*
%TO.P,J2,2,DATA_2*%
%TO.N,Net-(J2-DATA)*%
X52527200Y-34535600D03*
%TO.P,J2,3,GND_3*%
%TO.N,/GND*%
X50027200Y-34535600D03*
%TD*%
%TA.AperFunction,Conductor*%
%TO.N,/GND*%
G36*
X87442539Y-17020185D02*
G01*
X87488294Y-17072989D01*
X87499500Y-17124500D01*
X87499500Y-84875500D01*
X87479815Y-84942539D01*
X87427011Y-84988294D01*
X87375500Y-84999500D01*
X10124500Y-84999500D01*
X10057461Y-84979815D01*
X10011706Y-84927011D01*
X10000500Y-84875500D01*
X10000500Y-81881995D01*
X11199500Y-81881995D01*
X11199500Y-82118004D01*
X11199501Y-82118020D01*
X11230306Y-82352010D01*
X11291394Y-82579993D01*
X11381714Y-82798045D01*
X11381719Y-82798056D01*
X11452677Y-82920957D01*
X11499727Y-83002450D01*
X11499729Y-83002453D01*
X11499730Y-83002454D01*
X11643406Y-83189697D01*
X11643412Y-83189704D01*
X11810295Y-83356587D01*
X11810301Y-83356592D01*
X11997550Y-83500273D01*
X12128918Y-83576118D01*
X12201943Y-83618280D01*
X12201948Y-83618282D01*
X12201951Y-83618284D01*
X12420007Y-83708606D01*
X12647986Y-83769693D01*
X12881989Y-83800500D01*
X12881996Y-83800500D01*
X13118004Y-83800500D01*
X13118011Y-83800500D01*
X13352014Y-83769693D01*
X13579993Y-83708606D01*
X13798049Y-83618284D01*
X14002450Y-83500273D01*
X14189699Y-83356592D01*
X14356592Y-83189699D01*
X14500273Y-83002450D01*
X14618284Y-82798049D01*
X14708606Y-82579993D01*
X14769693Y-82352014D01*
X14800500Y-82118011D01*
X14800500Y-81881995D01*
X82699500Y-81881995D01*
X82699500Y-82118004D01*
X82699501Y-82118020D01*
X82730306Y-82352010D01*
X82791394Y-82579993D01*
X82881714Y-82798045D01*
X82881719Y-82798056D01*
X82952677Y-82920957D01*
X82999727Y-83002450D01*
X82999729Y-83002453D01*
X82999730Y-83002454D01*
X83143406Y-83189697D01*
X83143412Y-83189704D01*
X83310295Y-83356587D01*
X83310301Y-83356592D01*
X83497550Y-83500273D01*
X83628918Y-83576118D01*
X83701943Y-83618280D01*
X83701948Y-83618282D01*
X83701951Y-83618284D01*
X83920007Y-83708606D01*
X84147986Y-83769693D01*
X84381989Y-83800500D01*
X84381996Y-83800500D01*
X84618004Y-83800500D01*
X84618011Y-83800500D01*
X84852014Y-83769693D01*
X85079993Y-83708606D01*
X85298049Y-83618284D01*
X85502450Y-83500273D01*
X85689699Y-83356592D01*
X85856592Y-83189699D01*
X86000273Y-83002450D01*
X86118284Y-82798049D01*
X86208606Y-82579993D01*
X86269693Y-82352014D01*
X86300500Y-82118011D01*
X86300500Y-81881989D01*
X86269693Y-81647986D01*
X86208606Y-81420007D01*
X86118284Y-81201951D01*
X86118282Y-81201948D01*
X86118280Y-81201943D01*
X86076118Y-81128918D01*
X86000273Y-80997550D01*
X85856592Y-80810301D01*
X85856587Y-80810295D01*
X85689704Y-80643412D01*
X85689697Y-80643406D01*
X85502454Y-80499730D01*
X85502453Y-80499729D01*
X85502450Y-80499727D01*
X85420957Y-80452677D01*
X85298056Y-80381719D01*
X85298045Y-80381714D01*
X85079993Y-80291394D01*
X84852010Y-80230306D01*
X84618020Y-80199501D01*
X84618017Y-80199500D01*
X84618011Y-80199500D01*
X84381989Y-80199500D01*
X84381983Y-80199500D01*
X84381979Y-80199501D01*
X84147989Y-80230306D01*
X83920006Y-80291394D01*
X83701954Y-80381714D01*
X83701943Y-80381719D01*
X83497545Y-80499730D01*
X83310302Y-80643406D01*
X83310295Y-80643412D01*
X83143412Y-80810295D01*
X83143406Y-80810302D01*
X82999730Y-80997545D01*
X82881719Y-81201943D01*
X82881714Y-81201954D01*
X82791394Y-81420006D01*
X82730306Y-81647989D01*
X82699501Y-81881979D01*
X82699500Y-81881995D01*
X14800500Y-81881995D01*
X14800500Y-81881989D01*
X14769693Y-81647986D01*
X14708606Y-81420007D01*
X14618284Y-81201951D01*
X14618282Y-81201948D01*
X14618280Y-81201943D01*
X14576118Y-81128918D01*
X14500273Y-80997550D01*
X14356592Y-80810301D01*
X14356587Y-80810295D01*
X14189704Y-80643412D01*
X14189697Y-80643406D01*
X14002454Y-80499730D01*
X14002453Y-80499729D01*
X14002450Y-80499727D01*
X13920957Y-80452677D01*
X13798056Y-80381719D01*
X13798045Y-80381714D01*
X13579993Y-80291394D01*
X13352010Y-80230306D01*
X13118020Y-80199501D01*
X13118017Y-80199500D01*
X13118011Y-80199500D01*
X12881989Y-80199500D01*
X12881983Y-80199500D01*
X12881979Y-80199501D01*
X12647989Y-80230306D01*
X12420006Y-80291394D01*
X12201954Y-80381714D01*
X12201943Y-80381719D01*
X11997545Y-80499730D01*
X11810302Y-80643406D01*
X11810295Y-80643412D01*
X11643412Y-80810295D01*
X11643406Y-80810302D01*
X11499730Y-80997545D01*
X11381719Y-81201943D01*
X11381714Y-81201954D01*
X11291394Y-81420006D01*
X11230306Y-81647989D01*
X11199501Y-81881979D01*
X11199500Y-81881995D01*
X10000500Y-81881995D01*
X10000500Y-44390335D01*
X19198100Y-44390335D01*
X19198100Y-46186070D01*
X19198101Y-46186076D01*
X19204508Y-46245683D01*
X19254802Y-46380528D01*
X19254806Y-46380535D01*
X19341052Y-46495744D01*
X19341055Y-46495747D01*
X19456264Y-46581993D01*
X19456271Y-46581997D01*
X19501218Y-46598761D01*
X19591117Y-46632291D01*
X19650727Y-46638700D01*
X19661285Y-46638699D01*
X19728323Y-46658379D01*
X19748972Y-46675018D01*
X20419191Y-47345237D01*
X20355607Y-47362275D01*
X20241593Y-47428101D01*
X20148501Y-47521193D01*
X20082675Y-47635207D01*
X20065637Y-47698791D01*
X19433328Y-47066482D01*
X19433327Y-47066482D01*
X19393980Y-47120639D01*
X19297504Y-47309982D01*
X19231842Y-47512069D01*
X19231842Y-47512072D01*
X19198600Y-47721953D01*
X19198600Y-47934446D01*
X19231842Y-48144327D01*
X19231842Y-48144330D01*
X19297504Y-48346417D01*
X19393975Y-48535750D01*
X19433328Y-48589916D01*
X20065637Y-47957608D01*
X20082675Y-48021193D01*
X20148501Y-48135207D01*
X20241593Y-48228299D01*
X20355607Y-48294125D01*
X20419190Y-48311162D01*
X19786882Y-48943469D01*
X19786882Y-48943470D01*
X19841052Y-48982826D01*
X19841051Y-48982826D01*
X19850095Y-48987434D01*
X19900892Y-49035408D01*
X19917687Y-49103229D01*
X19895150Y-49169364D01*
X19850099Y-49208402D01*
X19840782Y-49213149D01*
X19668813Y-49338090D01*
X19518490Y-49488413D01*
X19393551Y-49660379D01*
X19297044Y-49849785D01*
X19231353Y-50051960D01*
X19219877Y-50124417D01*
X19198100Y-50261913D01*
X19198100Y-50474487D01*
X19202788Y-50504083D01*
X19223144Y-50632612D01*
X19231354Y-50684443D01*
X19287517Y-50857295D01*
X19297044Y-50886614D01*
X19393551Y-51076020D01*
X19518490Y-51247986D01*
X19668813Y-51398309D01*
X19840782Y-51523250D01*
X19849546Y-51527716D01*
X19900342Y-51575691D01*
X19917136Y-51643512D01*
X19894598Y-51709647D01*
X19849546Y-51748684D01*
X19840782Y-51753149D01*
X19668813Y-51878090D01*
X19518490Y-52028413D01*
X19393551Y-52200379D01*
X19297044Y-52389785D01*
X19231353Y-52591960D01*
X19198100Y-52801913D01*
X19198100Y-53014486D01*
X19223144Y-53172612D01*
X19231354Y-53224443D01*
X19276054Y-53362016D01*
X19297044Y-53426614D01*
X19393551Y-53616020D01*
X19518490Y-53787986D01*
X19668813Y-53938309D01*
X19840779Y-54063248D01*
X19840781Y-54063249D01*
X19840784Y-54063251D01*
X19850093Y-54067994D01*
X19900890Y-54115966D01*
X19917687Y-54183787D01*
X19895152Y-54249922D01*
X19850105Y-54288960D01*
X19841046Y-54293576D01*
X19841040Y-54293580D01*
X19786882Y-54332927D01*
X19786882Y-54332928D01*
X20419191Y-54965237D01*
X20355607Y-54982275D01*
X20241593Y-55048101D01*
X20148501Y-55141193D01*
X20082675Y-55255207D01*
X20065637Y-55318791D01*
X19433328Y-54686482D01*
X19433327Y-54686482D01*
X19393980Y-54740639D01*
X19297504Y-54929982D01*
X19231842Y-55132069D01*
X19231842Y-55132072D01*
X19198600Y-55341953D01*
X19198600Y-55554446D01*
X19231842Y-55764327D01*
X19231842Y-55764330D01*
X19297504Y-55966417D01*
X19393975Y-56155750D01*
X19433328Y-56209916D01*
X20065637Y-55577608D01*
X20082675Y-55641193D01*
X20148501Y-55755207D01*
X20241593Y-55848299D01*
X20355607Y-55914125D01*
X20419190Y-55931162D01*
X19786882Y-56563469D01*
X19786882Y-56563470D01*
X19841052Y-56602826D01*
X19841051Y-56602826D01*
X19850095Y-56607434D01*
X19900892Y-56655408D01*
X19917687Y-56723229D01*
X19895150Y-56789364D01*
X19850099Y-56828402D01*
X19840782Y-56833149D01*
X19668813Y-56958090D01*
X19518490Y-57108413D01*
X19393551Y-57280379D01*
X19297044Y-57469785D01*
X19231353Y-57671960D01*
X19198100Y-57881913D01*
X19198100Y-58094486D01*
X19223144Y-58252612D01*
X19231354Y-58304443D01*
X19276054Y-58442016D01*
X19297044Y-58506614D01*
X19393551Y-58696020D01*
X19518490Y-58867986D01*
X19668813Y-59018309D01*
X19840782Y-59143250D01*
X19849546Y-59147716D01*
X19900342Y-59195691D01*
X19917136Y-59263512D01*
X19894598Y-59329647D01*
X19849546Y-59368684D01*
X19840782Y-59373149D01*
X19668813Y-59498090D01*
X19518490Y-59648413D01*
X19393551Y-59820379D01*
X19297044Y-60009785D01*
X19231353Y-60211960D01*
X19198100Y-60421913D01*
X19198100Y-60634486D01*
X19223144Y-60792612D01*
X19231354Y-60844443D01*
X19276054Y-60982016D01*
X19297044Y-61046614D01*
X19393551Y-61236020D01*
X19518490Y-61407986D01*
X19668813Y-61558309D01*
X19840782Y-61683250D01*
X19849546Y-61687716D01*
X19900342Y-61735691D01*
X19917136Y-61803512D01*
X19894598Y-61869647D01*
X19849546Y-61908684D01*
X19840782Y-61913149D01*
X19668813Y-62038090D01*
X19518490Y-62188413D01*
X19393551Y-62360379D01*
X19297044Y-62549785D01*
X19231353Y-62751960D01*
X19198100Y-62961913D01*
X19198100Y-63174486D01*
X19231353Y-63384439D01*
X19297044Y-63586614D01*
X19393551Y-63776020D01*
X19518490Y-63947986D01*
X19668813Y-64098309D01*
X19840782Y-64223250D01*
X19849546Y-64227716D01*
X19900342Y-64275691D01*
X19917136Y-64343512D01*
X19894598Y-64409647D01*
X19849546Y-64448684D01*
X19840782Y-64453149D01*
X19668813Y-64578090D01*
X19518490Y-64728413D01*
X19393551Y-64900379D01*
X19297044Y-65089785D01*
X19231353Y-65291960D01*
X19198100Y-65501913D01*
X19198100Y-65714487D01*
X19231354Y-65924443D01*
X19285927Y-66092402D01*
X19297044Y-66126614D01*
X19393551Y-66316020D01*
X19518490Y-66487986D01*
X19668813Y-66638309D01*
X19840782Y-66763250D01*
X19849546Y-66767716D01*
X19900342Y-66815691D01*
X19917136Y-66883512D01*
X19894598Y-66949647D01*
X19849546Y-66988684D01*
X19840782Y-66993149D01*
X19668813Y-67118090D01*
X19518490Y-67268413D01*
X19393551Y-67440379D01*
X19297044Y-67629785D01*
X19231353Y-67831960D01*
X19219877Y-67904417D01*
X19198100Y-68041913D01*
X19198100Y-68254487D01*
X19202788Y-68284083D01*
X19231353Y-68464439D01*
X19231353Y-68464441D01*
X19231354Y-68464443D01*
X19287517Y-68637295D01*
X19297044Y-68666614D01*
X19393551Y-68856020D01*
X19518490Y-69027986D01*
X19668813Y-69178309D01*
X19840779Y-69303248D01*
X19840781Y-69303249D01*
X19840784Y-69303251D01*
X20030188Y-69399757D01*
X20232357Y-69465446D01*
X20442313Y-69498700D01*
X20442314Y-69498700D01*
X20654886Y-69498700D01*
X20654887Y-69498700D01*
X20864843Y-69465446D01*
X21067012Y-69399757D01*
X21256416Y-69303251D01*
X21278389Y-69287286D01*
X21428386Y-69178309D01*
X21428388Y-69178306D01*
X21428392Y-69178304D01*
X21578704Y-69027992D01*
X21578706Y-69027988D01*
X21578709Y-69027986D01*
X21703648Y-68856020D01*
X21703647Y-68856020D01*
X21703651Y-68856016D01*
X21800157Y-68666612D01*
X21865846Y-68464443D01*
X21899100Y-68254487D01*
X21899100Y-68041913D01*
X21865846Y-67831957D01*
X21800157Y-67629788D01*
X21703651Y-67440384D01*
X21636506Y-67347966D01*
X21636505Y-67347963D01*
X21587093Y-67279953D01*
X68804800Y-67279953D01*
X68804800Y-67492446D01*
X68838042Y-67702327D01*
X68838042Y-67702330D01*
X68903704Y-67904417D01*
X69000175Y-68093750D01*
X69039528Y-68147916D01*
X69671837Y-67515608D01*
X69688875Y-67579193D01*
X69754701Y-67693207D01*
X69847793Y-67786299D01*
X69961807Y-67852125D01*
X70025390Y-67869162D01*
X69393082Y-68501469D01*
X69393082Y-68501470D01*
X69447249Y-68540824D01*
X69636582Y-68637295D01*
X69838670Y-68702957D01*
X70048554Y-68736200D01*
X70261046Y-68736200D01*
X70470927Y-68702957D01*
X70470930Y-68702957D01*
X70673017Y-68637295D01*
X70862354Y-68540822D01*
X70916516Y-68501470D01*
X70916517Y-68501470D01*
X70284208Y-67869162D01*
X70347793Y-67852125D01*
X70461807Y-67786299D01*
X70554899Y-67693207D01*
X70620725Y-67579193D01*
X70637762Y-67515608D01*
X71270070Y-68147917D01*
X71270070Y-68147916D01*
X71309422Y-68093754D01*
X71314314Y-68084154D01*
X71362288Y-68033357D01*
X71430108Y-68016561D01*
X71496244Y-68039097D01*
X71535286Y-68084154D01*
X71540175Y-68093750D01*
X71579528Y-68147916D01*
X72211837Y-67515608D01*
X72228875Y-67579193D01*
X72294701Y-67693207D01*
X72387793Y-67786299D01*
X72501807Y-67852125D01*
X72565390Y-67869162D01*
X71933082Y-68501469D01*
X71933082Y-68501470D01*
X71987249Y-68540824D01*
X72176582Y-68637295D01*
X72378670Y-68702957D01*
X72588554Y-68736200D01*
X72801046Y-68736200D01*
X73010927Y-68702957D01*
X73010930Y-68702957D01*
X73213017Y-68637295D01*
X73402354Y-68540822D01*
X73456516Y-68501470D01*
X73456517Y-68501470D01*
X72824208Y-67869162D01*
X72887793Y-67852125D01*
X73001807Y-67786299D01*
X73094899Y-67693207D01*
X73160725Y-67579193D01*
X73177762Y-67515608D01*
X73810070Y-68147917D01*
X73810070Y-68147916D01*
X73849422Y-68093754D01*
X73945895Y-67904417D01*
X74011557Y-67702330D01*
X74011557Y-67702327D01*
X74044800Y-67492446D01*
X74044800Y-67279953D01*
X74011557Y-67070072D01*
X74011557Y-67070069D01*
X73945895Y-66867982D01*
X73849424Y-66678649D01*
X73810070Y-66624482D01*
X73810069Y-66624482D01*
X73177762Y-67256790D01*
X73160725Y-67193207D01*
X73094899Y-67079193D01*
X73001807Y-66986101D01*
X72887793Y-66920275D01*
X72824209Y-66903237D01*
X73239110Y-66488335D01*
X76424300Y-66488335D01*
X76424300Y-68284070D01*
X76424301Y-68284076D01*
X76430708Y-68343683D01*
X76481002Y-68478528D01*
X76481006Y-68478535D01*
X76567252Y-68593744D01*
X76567255Y-68593747D01*
X76682464Y-68679993D01*
X76682471Y-68679997D01*
X76817317Y-68730291D01*
X76817316Y-68730291D01*
X76824244Y-68731035D01*
X76876927Y-68736700D01*
X78672672Y-68736699D01*
X78732283Y-68730291D01*
X78867131Y-68679996D01*
X78970490Y-68602621D01*
X79035952Y-68578204D01*
X79104225Y-68593055D01*
X79119103Y-68602616D01*
X79204593Y-68666614D01*
X79222468Y-68679995D01*
X79222471Y-68679997D01*
X79357317Y-68730291D01*
X79357316Y-68730291D01*
X79364244Y-68731035D01*
X79416927Y-68736700D01*
X81212672Y-68736699D01*
X81272283Y-68730291D01*
X81407131Y-68679996D01*
X81522346Y-68593746D01*
X81608596Y-68478531D01*
X81658891Y-68343683D01*
X81665300Y-68284073D01*
X81665299Y-66488328D01*
X81658891Y-66428717D01*
X81616856Y-66316016D01*
X81608597Y-66293871D01*
X81608593Y-66293864D01*
X81522347Y-66178655D01*
X81522344Y-66178652D01*
X81407135Y-66092406D01*
X81407128Y-66092402D01*
X81272282Y-66042108D01*
X81272283Y-66042108D01*
X81212683Y-66035701D01*
X81212681Y-66035700D01*
X81212673Y-66035700D01*
X81212664Y-66035700D01*
X79416929Y-66035700D01*
X79416923Y-66035701D01*
X79357316Y-66042108D01*
X79222471Y-66092402D01*
X79222469Y-66092403D01*
X79119111Y-66169778D01*
X79053647Y-66194195D01*
X78985374Y-66179344D01*
X78970489Y-66169778D01*
X78867130Y-66092403D01*
X78867128Y-66092402D01*
X78732282Y-66042108D01*
X78732283Y-66042108D01*
X78672683Y-66035701D01*
X78672681Y-66035700D01*
X78672673Y-66035700D01*
X78672664Y-66035700D01*
X76876929Y-66035700D01*
X76876923Y-66035701D01*
X76817316Y-66042108D01*
X76682471Y-66092402D01*
X76682464Y-66092406D01*
X76567255Y-66178652D01*
X76567252Y-66178655D01*
X76481006Y-66293864D01*
X76481002Y-66293871D01*
X76430708Y-66428717D01*
X76424336Y-66487992D01*
X76424301Y-66488323D01*
X76424300Y-66488335D01*
X73239110Y-66488335D01*
X73330120Y-66397325D01*
X73456516Y-66270928D01*
X73402350Y-66231575D01*
X73213017Y-66135104D01*
X73010929Y-66069442D01*
X72801046Y-66036200D01*
X72588554Y-66036200D01*
X72378672Y-66069442D01*
X72378669Y-66069442D01*
X72176582Y-66135104D01*
X71987239Y-66231580D01*
X71933082Y-66270927D01*
X71933082Y-66270928D01*
X72565391Y-66903237D01*
X72501807Y-66920275D01*
X72387793Y-66986101D01*
X72294701Y-67079193D01*
X72228875Y-67193207D01*
X72211837Y-67256791D01*
X71579528Y-66624482D01*
X71579527Y-66624482D01*
X71540180Y-66678640D01*
X71535283Y-66688251D01*
X71487306Y-66739045D01*
X71419484Y-66755838D01*
X71353350Y-66733298D01*
X71314316Y-66688248D01*
X71309426Y-66678652D01*
X71270070Y-66624482D01*
X71270069Y-66624482D01*
X70637762Y-67256790D01*
X70620725Y-67193207D01*
X70554899Y-67079193D01*
X70461807Y-66986101D01*
X70347793Y-66920275D01*
X70284209Y-66903237D01*
X70916516Y-66270928D01*
X70862350Y-66231575D01*
X70673017Y-66135104D01*
X70470929Y-66069442D01*
X70261046Y-66036200D01*
X70048554Y-66036200D01*
X69838672Y-66069442D01*
X69838669Y-66069442D01*
X69636582Y-66135104D01*
X69447239Y-66231580D01*
X69393082Y-66270927D01*
X69393082Y-66270928D01*
X70025391Y-66903237D01*
X69961807Y-66920275D01*
X69847793Y-66986101D01*
X69754701Y-67079193D01*
X69688875Y-67193207D01*
X69671837Y-67256791D01*
X69039528Y-66624482D01*
X69039527Y-66624482D01*
X69000180Y-66678639D01*
X68903704Y-66867982D01*
X68838042Y-67070069D01*
X68838042Y-67070072D01*
X68804800Y-67279953D01*
X21587093Y-67279953D01*
X21578709Y-67268414D01*
X21578705Y-67268409D01*
X21428386Y-67118090D01*
X21256420Y-66993151D01*
X21255715Y-66992791D01*
X21247654Y-66988685D01*
X21196859Y-66940712D01*
X21180063Y-66872892D01*
X21202599Y-66806756D01*
X21247654Y-66767715D01*
X21256416Y-66763251D01*
X21297643Y-66733298D01*
X21428386Y-66638309D01*
X21428388Y-66638306D01*
X21428392Y-66638304D01*
X21578704Y-66487992D01*
X21578706Y-66487988D01*
X21578709Y-66487986D01*
X21703650Y-66316017D01*
X21731228Y-66261893D01*
X21800157Y-66126612D01*
X21865846Y-65924443D01*
X21899100Y-65714487D01*
X21899100Y-65501913D01*
X21865846Y-65291957D01*
X21800157Y-65089788D01*
X21703651Y-64900384D01*
X21703649Y-64900381D01*
X21703648Y-64900379D01*
X21578709Y-64728413D01*
X21428386Y-64578090D01*
X21256420Y-64453151D01*
X21255715Y-64452791D01*
X21247654Y-64448685D01*
X21196859Y-64400712D01*
X21180063Y-64332892D01*
X21202599Y-64266756D01*
X21247654Y-64227715D01*
X21256416Y-64223251D01*
X21337005Y-64164700D01*
X21428386Y-64098309D01*
X21428388Y-64098306D01*
X21428392Y-64098304D01*
X21578704Y-63947992D01*
X21578706Y-63947988D01*
X21578709Y-63947986D01*
X21703648Y-63776020D01*
X21703647Y-63776020D01*
X21703651Y-63776016D01*
X21800157Y-63586612D01*
X21865846Y-63384443D01*
X21899100Y-63174487D01*
X21899100Y-62961913D01*
X21865846Y-62751957D01*
X21800157Y-62549788D01*
X21703651Y-62360384D01*
X21703649Y-62360381D01*
X21703648Y-62360379D01*
X21578709Y-62188413D01*
X21428386Y-62038090D01*
X21256420Y-61913151D01*
X21255715Y-61912791D01*
X21247654Y-61908685D01*
X21196859Y-61860712D01*
X21180063Y-61792892D01*
X21202599Y-61726756D01*
X21247654Y-61687715D01*
X21256416Y-61683251D01*
X21278389Y-61667286D01*
X21428386Y-61558309D01*
X21428388Y-61558306D01*
X21428392Y-61558304D01*
X21578704Y-61407992D01*
X21578706Y-61407988D01*
X21578709Y-61407986D01*
X21703648Y-61236020D01*
X21703647Y-61236020D01*
X21703651Y-61236016D01*
X21800157Y-61046612D01*
X21865846Y-60844443D01*
X21899100Y-60634487D01*
X21899100Y-60421913D01*
X21865846Y-60211957D01*
X21800157Y-60009788D01*
X21703651Y-59820384D01*
X21703649Y-59820381D01*
X21703648Y-59820379D01*
X21578709Y-59648413D01*
X21428386Y-59498090D01*
X21256420Y-59373151D01*
X21255715Y-59372791D01*
X21247654Y-59368685D01*
X21196859Y-59320712D01*
X21180063Y-59252892D01*
X21202599Y-59186756D01*
X21247654Y-59147715D01*
X21256416Y-59143251D01*
X21295351Y-59114963D01*
X21428386Y-59018309D01*
X21428388Y-59018306D01*
X21428392Y-59018304D01*
X21578704Y-58867992D01*
X21578706Y-58867988D01*
X21578709Y-58867986D01*
X21703648Y-58696020D01*
X21703647Y-58696020D01*
X21703651Y-58696016D01*
X21800157Y-58506612D01*
X21865846Y-58304443D01*
X21899100Y-58094487D01*
X21899100Y-57881913D01*
X21865846Y-57671957D01*
X21800157Y-57469788D01*
X21703651Y-57280384D01*
X21703649Y-57280381D01*
X21703648Y-57280379D01*
X21578709Y-57108413D01*
X21428386Y-56958090D01*
X21256417Y-56833149D01*
X21247104Y-56828404D01*
X21196307Y-56780430D01*
X21179512Y-56712609D01*
X21202049Y-56646474D01*
X21247107Y-56607432D01*
X21256155Y-56602822D01*
X21310316Y-56563470D01*
X21310317Y-56563470D01*
X20678008Y-55931162D01*
X20741593Y-55914125D01*
X20855607Y-55848299D01*
X20948699Y-55755207D01*
X21014525Y-55641193D01*
X21031562Y-55577608D01*
X21663870Y-56209917D01*
X21663870Y-56209916D01*
X21703222Y-56155754D01*
X21799695Y-55966417D01*
X21865357Y-55764330D01*
X21865357Y-55764327D01*
X21898600Y-55554446D01*
X21898600Y-55341953D01*
X21865357Y-55132072D01*
X21865357Y-55132069D01*
X21799695Y-54929982D01*
X21703224Y-54740649D01*
X21663870Y-54686482D01*
X21663869Y-54686482D01*
X21031562Y-55318790D01*
X21014525Y-55255207D01*
X20948699Y-55141193D01*
X20855607Y-55048101D01*
X20741593Y-54982275D01*
X20678009Y-54965237D01*
X21310316Y-54332928D01*
X21256147Y-54293573D01*
X21256147Y-54293572D01*
X21247100Y-54288963D01*
X21196306Y-54240988D01*
X21179512Y-54173166D01*
X21202051Y-54107032D01*
X21247108Y-54067993D01*
X21256416Y-54063251D01*
X21361764Y-53986712D01*
X21428386Y-53938309D01*
X21428388Y-53938306D01*
X21428392Y-53938304D01*
X21578704Y-53787992D01*
X21578706Y-53787988D01*
X21578709Y-53787986D01*
X21703648Y-53616020D01*
X21703647Y-53616020D01*
X21703651Y-53616016D01*
X21800157Y-53426612D01*
X21865846Y-53224443D01*
X21899100Y-53014487D01*
X21899100Y-52801913D01*
X21865846Y-52591957D01*
X21800157Y-52389788D01*
X21703651Y-52200384D01*
X21703649Y-52200381D01*
X21703648Y-52200379D01*
X21578709Y-52028413D01*
X21428386Y-51878090D01*
X21256420Y-51753151D01*
X21255715Y-51752791D01*
X21247654Y-51748685D01*
X21196859Y-51700712D01*
X21180063Y-51632892D01*
X21202599Y-51566756D01*
X21247654Y-51527715D01*
X21256416Y-51523251D01*
X21361764Y-51446712D01*
X21428386Y-51398309D01*
X21428388Y-51398306D01*
X21428392Y-51398304D01*
X21578704Y-51247992D01*
X21578706Y-51247988D01*
X21578709Y-51247986D01*
X21703648Y-51076020D01*
X21703647Y-51076020D01*
X21703651Y-51076016D01*
X21800157Y-50886612D01*
X21865846Y-50684443D01*
X21899100Y-50474487D01*
X21899100Y-50261913D01*
X21865846Y-50051957D01*
X21800157Y-49849788D01*
X21703651Y-49660384D01*
X21703649Y-49660381D01*
X21703648Y-49660379D01*
X21578709Y-49488413D01*
X21428386Y-49338090D01*
X21256417Y-49213149D01*
X21247104Y-49208404D01*
X21196307Y-49160430D01*
X21179512Y-49092609D01*
X21202049Y-49026474D01*
X21247107Y-48987432D01*
X21256155Y-48982822D01*
X21310316Y-48943470D01*
X21310317Y-48943470D01*
X20678008Y-48311162D01*
X20741593Y-48294125D01*
X20855607Y-48228299D01*
X20948699Y-48135207D01*
X21014525Y-48021193D01*
X21031562Y-47957608D01*
X21663870Y-48589917D01*
X21663870Y-48589916D01*
X21703222Y-48535754D01*
X21799695Y-48346417D01*
X21865357Y-48144330D01*
X21865357Y-48144327D01*
X21898600Y-47934446D01*
X21898600Y-47721953D01*
X21865357Y-47512072D01*
X21865357Y-47512069D01*
X21799695Y-47309982D01*
X21703224Y-47120649D01*
X21663870Y-47066482D01*
X21663869Y-47066482D01*
X21031562Y-47698790D01*
X21014525Y-47635207D01*
X20948699Y-47521193D01*
X20855607Y-47428101D01*
X20741593Y-47362275D01*
X20678009Y-47345237D01*
X21348227Y-46675018D01*
X21409550Y-46641533D01*
X21435907Y-46638699D01*
X21446472Y-46638699D01*
X21506083Y-46632291D01*
X21640931Y-46581996D01*
X21756146Y-46495746D01*
X21842396Y-46380531D01*
X21892691Y-46245683D01*
X21899100Y-46186073D01*
X21899099Y-44390328D01*
X21892691Y-44330717D01*
X21891073Y-44326380D01*
X21842397Y-44195871D01*
X21842393Y-44195864D01*
X21756147Y-44080655D01*
X21756144Y-44080652D01*
X21648408Y-44000000D01*
X40300000Y-44000000D01*
X42501316Y-44000000D01*
X42568355Y-44019685D01*
X42614110Y-44072489D01*
X42624054Y-44141647D01*
X42601634Y-44196885D01*
X42507551Y-44326380D01*
X42411044Y-44515785D01*
X42345353Y-44717960D01*
X42312100Y-44927913D01*
X42312100Y-45140486D01*
X42345353Y-45350439D01*
X42411044Y-45552614D01*
X42507551Y-45742020D01*
X42632490Y-45913986D01*
X42782813Y-46064309D01*
X42954782Y-46189250D01*
X42963546Y-46193716D01*
X43014342Y-46241691D01*
X43031136Y-46309512D01*
X43008598Y-46375647D01*
X42963546Y-46414684D01*
X42954782Y-46419149D01*
X42782813Y-46544090D01*
X42632490Y-46694413D01*
X42507551Y-46866379D01*
X42411044Y-47055785D01*
X42345353Y-47257960D01*
X42312100Y-47467913D01*
X42312100Y-47680486D01*
X42335495Y-47828200D01*
X42345354Y-47890443D01*
X42387837Y-48021193D01*
X42411044Y-48092614D01*
X42507551Y-48282020D01*
X42632490Y-48453986D01*
X42782813Y-48604309D01*
X42954782Y-48729250D01*
X42963546Y-48733716D01*
X43014342Y-48781691D01*
X43031136Y-48849512D01*
X43008598Y-48915647D01*
X42963546Y-48954684D01*
X42954782Y-48959149D01*
X42782813Y-49084090D01*
X42632490Y-49234413D01*
X42507551Y-49406379D01*
X42411044Y-49595785D01*
X42345353Y-49797960D01*
X42312100Y-50007913D01*
X42312100Y-50220486D01*
X42345353Y-50430439D01*
X42345353Y-50430441D01*
X42345354Y-50430443D01*
X42388646Y-50563682D01*
X42411044Y-50632614D01*
X42507551Y-50822020D01*
X42632490Y-50993986D01*
X42782813Y-51144309D01*
X42954782Y-51269250D01*
X42963546Y-51273716D01*
X43014342Y-51321691D01*
X43031136Y-51389512D01*
X43008598Y-51455647D01*
X42963546Y-51494684D01*
X42954782Y-51499149D01*
X42782813Y-51624090D01*
X42632490Y-51774413D01*
X42507551Y-51946379D01*
X42411044Y-52135785D01*
X42345353Y-52337960D01*
X42312100Y-52547913D01*
X42312100Y-52760486D01*
X42345353Y-52970439D01*
X42411044Y-53172614D01*
X42507551Y-53362020D01*
X42632490Y-53533986D01*
X42782813Y-53684309D01*
X42954782Y-53809250D01*
X42963546Y-53813716D01*
X43014342Y-53861691D01*
X43031136Y-53929512D01*
X43008598Y-53995647D01*
X42963546Y-54034684D01*
X42954782Y-54039149D01*
X42782813Y-54164090D01*
X42632490Y-54314413D01*
X42507551Y-54486379D01*
X42411044Y-54675785D01*
X42345353Y-54877960D01*
X42312100Y-55087913D01*
X42312100Y-55300486D01*
X42335495Y-55448200D01*
X42345354Y-55510443D01*
X42387837Y-55641193D01*
X42411044Y-55712614D01*
X42507551Y-55902020D01*
X42632490Y-56073986D01*
X42782813Y-56224309D01*
X42954782Y-56349250D01*
X42963546Y-56353716D01*
X43014342Y-56401691D01*
X43031136Y-56469512D01*
X43008598Y-56535647D01*
X42963546Y-56574684D01*
X42954782Y-56579149D01*
X42782813Y-56704090D01*
X42632490Y-56854413D01*
X42507551Y-57026379D01*
X42411044Y-57215785D01*
X42345353Y-57417960D01*
X42312100Y-57627913D01*
X42312100Y-57840486D01*
X42345353Y-58050439D01*
X42411044Y-58252614D01*
X42507551Y-58442020D01*
X42632490Y-58613986D01*
X42782813Y-58764309D01*
X42954782Y-58889250D01*
X42963546Y-58893716D01*
X43014342Y-58941691D01*
X43031136Y-59009512D01*
X43008598Y-59075647D01*
X42963546Y-59114684D01*
X42954782Y-59119149D01*
X42782813Y-59244090D01*
X42632490Y-59394413D01*
X42507551Y-59566379D01*
X42411044Y-59755785D01*
X42345353Y-59957960D01*
X42312100Y-60167913D01*
X42312100Y-60380486D01*
X42345353Y-60590439D01*
X42411044Y-60792614D01*
X42507551Y-60982020D01*
X42632490Y-61153986D01*
X42746030Y-61267526D01*
X42779515Y-61328849D01*
X42774531Y-61398541D01*
X42732659Y-61454474D01*
X42701683Y-61471389D01*
X42570269Y-61520403D01*
X42570264Y-61520406D01*
X42455055Y-61606652D01*
X42455052Y-61606655D01*
X42368806Y-61721864D01*
X42368802Y-61721871D01*
X42318508Y-61856717D01*
X42312441Y-61913151D01*
X42312101Y-61916323D01*
X42312100Y-61916335D01*
X42312100Y-63712070D01*
X42312101Y-63712076D01*
X42318508Y-63771683D01*
X42368802Y-63906528D01*
X42368806Y-63906535D01*
X42455052Y-64021744D01*
X42455055Y-64021747D01*
X42570264Y-64107993D01*
X42570271Y-64107997D01*
X42705117Y-64158291D01*
X42705116Y-64158291D01*
X42712044Y-64159035D01*
X42764727Y-64164700D01*
X44560472Y-64164699D01*
X44620083Y-64158291D01*
X44754931Y-64107996D01*
X44870146Y-64021746D01*
X44956396Y-63906531D01*
X45006691Y-63771683D01*
X45013100Y-63712073D01*
X45013099Y-61916328D01*
X45008081Y-61869647D01*
X45006691Y-61856716D01*
X44956397Y-61721871D01*
X44956393Y-61721864D01*
X44870147Y-61606655D01*
X44870144Y-61606652D01*
X44754935Y-61520406D01*
X44754928Y-61520402D01*
X44623517Y-61471389D01*
X44567583Y-61429518D01*
X44543166Y-61364053D01*
X44558018Y-61295780D01*
X44579163Y-61267532D01*
X44692704Y-61153992D01*
X44817651Y-60982016D01*
X44914157Y-60792612D01*
X44979846Y-60590443D01*
X45013100Y-60380487D01*
X45013100Y-60167913D01*
X44979846Y-59957957D01*
X44914157Y-59755788D01*
X44817651Y-59566384D01*
X44817649Y-59566381D01*
X44817648Y-59566379D01*
X44692709Y-59394413D01*
X44542386Y-59244090D01*
X44370420Y-59119151D01*
X44362200Y-59114963D01*
X44361654Y-59114685D01*
X44310859Y-59066712D01*
X44294063Y-58998892D01*
X44316599Y-58932756D01*
X44361654Y-58893715D01*
X44370416Y-58889251D01*
X44399685Y-58867986D01*
X44542386Y-58764309D01*
X44542388Y-58764306D01*
X44542392Y-58764304D01*
X44692704Y-58613992D01*
X44692706Y-58613988D01*
X44692709Y-58613986D01*
X44817648Y-58442020D01*
X44817647Y-58442020D01*
X44817651Y-58442016D01*
X44914157Y-58252612D01*
X44979846Y-58050443D01*
X45013100Y-57840487D01*
X45013100Y-57627913D01*
X44979846Y-57417957D01*
X44914157Y-57215788D01*
X44817651Y-57026384D01*
X44817649Y-57026381D01*
X44817648Y-57026379D01*
X44692709Y-56854413D01*
X44542386Y-56704090D01*
X44370420Y-56579151D01*
X44369715Y-56578791D01*
X44361654Y-56574685D01*
X44310859Y-56526712D01*
X44294063Y-56458892D01*
X44316599Y-56392756D01*
X44361654Y-56353715D01*
X44370416Y-56349251D01*
X44392389Y-56333286D01*
X44542386Y-56224309D01*
X44542388Y-56224306D01*
X44542392Y-56224304D01*
X44692704Y-56073992D01*
X44692706Y-56073988D01*
X44692709Y-56073986D01*
X44817648Y-55902020D01*
X44817647Y-55902020D01*
X44817651Y-55902016D01*
X44914157Y-55712612D01*
X44979846Y-55510443D01*
X45013100Y-55300487D01*
X45013100Y-55087913D01*
X44979846Y-54877957D01*
X44914157Y-54675788D01*
X44817651Y-54486384D01*
X44817649Y-54486381D01*
X44817648Y-54486379D01*
X44692709Y-54314413D01*
X44542386Y-54164090D01*
X44370420Y-54039151D01*
X44369715Y-54038791D01*
X44361654Y-54034685D01*
X44310859Y-53986712D01*
X44294063Y-53918892D01*
X44316599Y-53852756D01*
X44361654Y-53813715D01*
X44370416Y-53809251D01*
X44399685Y-53787986D01*
X44542386Y-53684309D01*
X44542388Y-53684306D01*
X44542392Y-53684304D01*
X44692704Y-53533992D01*
X44692706Y-53533988D01*
X44692709Y-53533986D01*
X44817648Y-53362020D01*
X44817647Y-53362020D01*
X44817651Y-53362016D01*
X44914157Y-53172612D01*
X44979846Y-52970443D01*
X45013100Y-52760487D01*
X45013100Y-52547913D01*
X44979846Y-52337957D01*
X44914157Y-52135788D01*
X44817651Y-51946384D01*
X44817649Y-51946381D01*
X44817648Y-51946379D01*
X44692709Y-51774413D01*
X44542386Y-51624090D01*
X44370420Y-51499151D01*
X44369715Y-51498791D01*
X44361654Y-51494685D01*
X44310859Y-51446712D01*
X44294063Y-51378892D01*
X44316599Y-51312756D01*
X44361654Y-51273715D01*
X44370416Y-51269251D01*
X44399685Y-51247986D01*
X44542386Y-51144309D01*
X44542388Y-51144306D01*
X44542392Y-51144304D01*
X44692704Y-50993992D01*
X44692706Y-50993988D01*
X44692709Y-50993986D01*
X44817648Y-50822020D01*
X44817647Y-50822020D01*
X44817651Y-50822016D01*
X44914157Y-50632612D01*
X44979846Y-50430443D01*
X45013100Y-50220487D01*
X45013100Y-50007913D01*
X44979846Y-49797957D01*
X44914157Y-49595788D01*
X44817651Y-49406384D01*
X44817649Y-49406381D01*
X44817648Y-49406379D01*
X44692709Y-49234413D01*
X44542386Y-49084090D01*
X44370420Y-48959151D01*
X44369715Y-48958791D01*
X44361654Y-48954685D01*
X44310859Y-48906712D01*
X44294063Y-48838892D01*
X44316599Y-48772756D01*
X44361654Y-48733715D01*
X44370416Y-48729251D01*
X44399231Y-48708316D01*
X44542386Y-48604309D01*
X44542388Y-48604306D01*
X44542392Y-48604304D01*
X44692704Y-48453992D01*
X44692706Y-48453988D01*
X44692709Y-48453986D01*
X44817648Y-48282020D01*
X44817647Y-48282020D01*
X44817651Y-48282016D01*
X44914157Y-48092612D01*
X44979846Y-47890443D01*
X45013100Y-47680487D01*
X45013100Y-47467913D01*
X44979846Y-47257957D01*
X44914157Y-47055788D01*
X44817651Y-46866384D01*
X44817649Y-46866381D01*
X44817648Y-46866379D01*
X44692709Y-46694413D01*
X44542386Y-46544090D01*
X44370420Y-46419151D01*
X44369715Y-46418791D01*
X44361654Y-46414685D01*
X44310859Y-46366712D01*
X44294063Y-46298892D01*
X44316599Y-46232756D01*
X44361654Y-46193715D01*
X44370416Y-46189251D01*
X44392389Y-46173286D01*
X44542386Y-46064309D01*
X44542388Y-46064306D01*
X44542392Y-46064304D01*
X44692704Y-45913992D01*
X44692706Y-45913988D01*
X44692709Y-45913986D01*
X44817648Y-45742020D01*
X44817647Y-45742020D01*
X44817651Y-45742016D01*
X44914157Y-45552612D01*
X44979846Y-45350443D01*
X45013100Y-45140487D01*
X45013100Y-44927913D01*
X44979846Y-44717957D01*
X44914157Y-44515788D01*
X44817651Y-44326384D01*
X44808485Y-44313769D01*
X44723566Y-44196885D01*
X44700086Y-44131079D01*
X44715912Y-44063025D01*
X44766018Y-44014330D01*
X44823884Y-44000000D01*
X60281316Y-44000000D01*
X60348355Y-44019685D01*
X60394110Y-44072489D01*
X60404054Y-44141647D01*
X60381634Y-44196885D01*
X60287551Y-44326380D01*
X60191044Y-44515785D01*
X60125353Y-44717960D01*
X60092100Y-44927913D01*
X60092100Y-45140486D01*
X60125353Y-45350439D01*
X60191044Y-45552614D01*
X60287551Y-45742020D01*
X60412490Y-45913986D01*
X60562813Y-46064309D01*
X60734782Y-46189250D01*
X60743546Y-46193716D01*
X60794342Y-46241691D01*
X60811136Y-46309512D01*
X60788598Y-46375647D01*
X60743546Y-46414684D01*
X60734782Y-46419149D01*
X60562813Y-46544090D01*
X60412490Y-46694413D01*
X60287551Y-46866379D01*
X60191044Y-47055785D01*
X60125353Y-47257960D01*
X60092100Y-47467913D01*
X60092100Y-47680486D01*
X60115495Y-47828200D01*
X60125354Y-47890443D01*
X60167837Y-48021193D01*
X60191044Y-48092614D01*
X60287551Y-48282020D01*
X60412490Y-48453986D01*
X60562813Y-48604309D01*
X60734782Y-48729250D01*
X60743546Y-48733716D01*
X60794342Y-48781691D01*
X60811136Y-48849512D01*
X60788598Y-48915647D01*
X60743546Y-48954684D01*
X60734782Y-48959149D01*
X60562813Y-49084090D01*
X60412490Y-49234413D01*
X60287551Y-49406379D01*
X60191044Y-49595785D01*
X60125353Y-49797960D01*
X60092100Y-50007913D01*
X60092100Y-50220486D01*
X60125353Y-50430439D01*
X60125353Y-50430441D01*
X60125354Y-50430443D01*
X60168646Y-50563682D01*
X60191044Y-50632614D01*
X60287551Y-50822020D01*
X60412490Y-50993986D01*
X60562813Y-51144309D01*
X60734782Y-51269250D01*
X60743546Y-51273716D01*
X60794342Y-51321691D01*
X60811136Y-51389512D01*
X60788598Y-51455647D01*
X60743546Y-51494684D01*
X60734782Y-51499149D01*
X60562813Y-51624090D01*
X60412490Y-51774413D01*
X60287551Y-51946379D01*
X60191044Y-52135785D01*
X60125353Y-52337960D01*
X60092100Y-52547913D01*
X60092100Y-52760486D01*
X60125353Y-52970439D01*
X60191044Y-53172614D01*
X60287551Y-53362020D01*
X60412490Y-53533986D01*
X60562813Y-53684309D01*
X60734782Y-53809250D01*
X60743546Y-53813716D01*
X60794342Y-53861691D01*
X60811136Y-53929512D01*
X60788598Y-53995647D01*
X60743546Y-54034684D01*
X60734782Y-54039149D01*
X60562813Y-54164090D01*
X60412490Y-54314413D01*
X60287551Y-54486379D01*
X60191044Y-54675785D01*
X60125353Y-54877960D01*
X60092100Y-55087913D01*
X60092100Y-55300486D01*
X60115495Y-55448200D01*
X60125354Y-55510443D01*
X60167837Y-55641193D01*
X60191044Y-55712614D01*
X60287551Y-55902020D01*
X60412490Y-56073986D01*
X60562813Y-56224309D01*
X60734782Y-56349250D01*
X60743546Y-56353716D01*
X60794342Y-56401691D01*
X60811136Y-56469512D01*
X60788598Y-56535647D01*
X60743546Y-56574684D01*
X60734782Y-56579149D01*
X60562813Y-56704090D01*
X60412490Y-56854413D01*
X60287551Y-57026379D01*
X60191044Y-57215785D01*
X60125353Y-57417960D01*
X60092100Y-57627913D01*
X60092100Y-57840486D01*
X60125353Y-58050439D01*
X60191044Y-58252614D01*
X60287551Y-58442020D01*
X60412490Y-58613986D01*
X60562813Y-58764309D01*
X60734779Y-58889248D01*
X60734781Y-58889249D01*
X60734784Y-58889251D01*
X60744093Y-58893994D01*
X60794890Y-58941966D01*
X60811687Y-59009787D01*
X60789152Y-59075922D01*
X60744105Y-59114960D01*
X60735046Y-59119576D01*
X60735040Y-59119580D01*
X60680882Y-59158927D01*
X60680882Y-59158928D01*
X61313191Y-59791237D01*
X61249607Y-59808275D01*
X61135593Y-59874101D01*
X61042501Y-59967193D01*
X60976675Y-60081207D01*
X60959637Y-60144791D01*
X60327328Y-59512482D01*
X60327327Y-59512482D01*
X60287980Y-59566639D01*
X60191504Y-59755982D01*
X60125842Y-59958069D01*
X60125842Y-59958072D01*
X60092600Y-60167953D01*
X60092600Y-60380446D01*
X60125842Y-60590327D01*
X60125842Y-60590330D01*
X60191504Y-60792417D01*
X60287975Y-60981750D01*
X60327328Y-61035916D01*
X60959637Y-60403608D01*
X60976675Y-60467193D01*
X61042501Y-60581207D01*
X61135593Y-60674299D01*
X61249607Y-60740125D01*
X61313190Y-60757162D01*
X60642970Y-61427381D01*
X60581647Y-61460866D01*
X60555298Y-61463700D01*
X60544734Y-61463700D01*
X60544723Y-61463701D01*
X60485116Y-61470108D01*
X60350271Y-61520402D01*
X60350264Y-61520406D01*
X60235055Y-61606652D01*
X60235052Y-61606655D01*
X60148806Y-61721864D01*
X60148802Y-61721871D01*
X60098508Y-61856717D01*
X60092441Y-61913151D01*
X60092101Y-61916323D01*
X60092100Y-61916335D01*
X60092100Y-63712070D01*
X60092101Y-63712076D01*
X60098508Y-63771683D01*
X60148802Y-63906528D01*
X60148806Y-63906535D01*
X60235052Y-64021744D01*
X60235055Y-64021747D01*
X60350264Y-64107993D01*
X60350271Y-64107997D01*
X60485117Y-64158291D01*
X60485116Y-64158291D01*
X60492044Y-64159035D01*
X60544727Y-64164700D01*
X62340472Y-64164699D01*
X62400083Y-64158291D01*
X62534931Y-64107996D01*
X62650146Y-64021746D01*
X62736396Y-63906531D01*
X62786691Y-63771683D01*
X62793100Y-63712073D01*
X62793099Y-61916328D01*
X62787899Y-61867957D01*
X62786691Y-61856716D01*
X62736397Y-61721871D01*
X62736393Y-61721864D01*
X62650147Y-61606655D01*
X62650144Y-61606652D01*
X62534935Y-61520406D01*
X62534928Y-61520402D01*
X62400082Y-61470108D01*
X62400083Y-61470108D01*
X62340483Y-61463701D01*
X62340481Y-61463700D01*
X62340473Y-61463700D01*
X62340465Y-61463700D01*
X62329909Y-61463700D01*
X62262870Y-61444015D01*
X62242228Y-61427381D01*
X61572008Y-60757162D01*
X61635593Y-60740125D01*
X61749607Y-60674299D01*
X61842699Y-60581207D01*
X61908525Y-60467193D01*
X61925562Y-60403608D01*
X62557870Y-61035917D01*
X62557870Y-61035916D01*
X62597222Y-60981754D01*
X62693695Y-60792417D01*
X62759357Y-60590330D01*
X62759357Y-60590327D01*
X62792600Y-60380446D01*
X62792600Y-60167953D01*
X62759357Y-59958072D01*
X62759357Y-59958069D01*
X62693695Y-59755982D01*
X62597224Y-59566649D01*
X62557870Y-59512482D01*
X62557869Y-59512482D01*
X61925562Y-60144790D01*
X61908525Y-60081207D01*
X61842699Y-59967193D01*
X61749607Y-59874101D01*
X61635593Y-59808275D01*
X61572009Y-59791237D01*
X62204316Y-59158928D01*
X62150147Y-59119573D01*
X62150147Y-59119572D01*
X62141100Y-59114963D01*
X62090306Y-59066988D01*
X62073512Y-58999166D01*
X62096051Y-58933032D01*
X62141108Y-58893993D01*
X62150416Y-58889251D01*
X62229607Y-58831715D01*
X62322386Y-58764309D01*
X62322388Y-58764306D01*
X62322392Y-58764304D01*
X62472704Y-58613992D01*
X62472706Y-58613988D01*
X62472709Y-58613986D01*
X62597648Y-58442020D01*
X62597647Y-58442020D01*
X62597651Y-58442016D01*
X62694157Y-58252612D01*
X62759846Y-58050443D01*
X62793100Y-57840487D01*
X62793100Y-57627913D01*
X62759846Y-57417957D01*
X62694157Y-57215788D01*
X62597651Y-57026384D01*
X62597649Y-57026381D01*
X62597648Y-57026379D01*
X62472709Y-56854413D01*
X62322386Y-56704090D01*
X62150420Y-56579151D01*
X62149715Y-56578791D01*
X62141654Y-56574685D01*
X62090859Y-56526712D01*
X62074063Y-56458892D01*
X62096599Y-56392756D01*
X62141654Y-56353715D01*
X62150416Y-56349251D01*
X62172389Y-56333286D01*
X62322386Y-56224309D01*
X62322388Y-56224306D01*
X62322392Y-56224304D01*
X62472704Y-56073992D01*
X62472706Y-56073988D01*
X62472709Y-56073986D01*
X62597648Y-55902020D01*
X62597647Y-55902020D01*
X62597651Y-55902016D01*
X62694157Y-55712612D01*
X62759846Y-55510443D01*
X62793100Y-55300487D01*
X62793100Y-55087913D01*
X62759846Y-54877957D01*
X62694157Y-54675788D01*
X62597651Y-54486384D01*
X62597649Y-54486381D01*
X62597648Y-54486379D01*
X62472709Y-54314413D01*
X62322386Y-54164090D01*
X62150420Y-54039151D01*
X62149715Y-54038791D01*
X62141654Y-54034685D01*
X62090859Y-53986712D01*
X62074063Y-53918892D01*
X62096599Y-53852756D01*
X62141654Y-53813715D01*
X62150416Y-53809251D01*
X62179685Y-53787986D01*
X62322386Y-53684309D01*
X62322388Y-53684306D01*
X62322392Y-53684304D01*
X62472704Y-53533992D01*
X62472706Y-53533988D01*
X62472709Y-53533986D01*
X62597648Y-53362020D01*
X62597647Y-53362020D01*
X62597651Y-53362016D01*
X62694157Y-53172612D01*
X62759846Y-52970443D01*
X62793100Y-52760487D01*
X62793100Y-52547913D01*
X62759846Y-52337957D01*
X62694157Y-52135788D01*
X62597651Y-51946384D01*
X62597649Y-51946381D01*
X62597648Y-51946379D01*
X62472709Y-51774413D01*
X62322386Y-51624090D01*
X62150420Y-51499151D01*
X62149715Y-51498791D01*
X62141654Y-51494685D01*
X62090859Y-51446712D01*
X62074063Y-51378892D01*
X62096599Y-51312756D01*
X62141654Y-51273715D01*
X62150416Y-51269251D01*
X62179685Y-51247986D01*
X62322386Y-51144309D01*
X62322388Y-51144306D01*
X62322392Y-51144304D01*
X62472704Y-50993992D01*
X62472706Y-50993988D01*
X62472709Y-50993986D01*
X62597648Y-50822020D01*
X62597647Y-50822020D01*
X62597651Y-50822016D01*
X62694157Y-50632612D01*
X62759846Y-50430443D01*
X62793100Y-50220487D01*
X62793100Y-50007913D01*
X62759846Y-49797957D01*
X62694157Y-49595788D01*
X62645327Y-49499953D01*
X68804800Y-49499953D01*
X68804800Y-49712446D01*
X68838042Y-49922327D01*
X68838042Y-49922330D01*
X68903704Y-50124417D01*
X69000175Y-50313750D01*
X69039528Y-50367916D01*
X69671837Y-49735608D01*
X69688875Y-49799193D01*
X69754701Y-49913207D01*
X69847793Y-50006299D01*
X69961807Y-50072125D01*
X70025390Y-50089162D01*
X69393082Y-50721469D01*
X69393082Y-50721470D01*
X69447249Y-50760824D01*
X69636582Y-50857295D01*
X69838670Y-50922957D01*
X70048554Y-50956200D01*
X70261046Y-50956200D01*
X70470927Y-50922957D01*
X70470930Y-50922957D01*
X70673017Y-50857295D01*
X70862354Y-50760822D01*
X70916516Y-50721470D01*
X70916517Y-50721470D01*
X70284208Y-50089162D01*
X70347793Y-50072125D01*
X70461807Y-50006299D01*
X70554899Y-49913207D01*
X70620725Y-49799193D01*
X70637762Y-49735608D01*
X71270070Y-50367917D01*
X71270070Y-50367916D01*
X71309422Y-50313754D01*
X71314314Y-50304154D01*
X71362288Y-50253357D01*
X71430108Y-50236561D01*
X71496244Y-50259097D01*
X71535286Y-50304154D01*
X71540175Y-50313750D01*
X71579528Y-50367916D01*
X72211837Y-49735608D01*
X72228875Y-49799193D01*
X72294701Y-49913207D01*
X72387793Y-50006299D01*
X72501807Y-50072125D01*
X72565390Y-50089162D01*
X71933082Y-50721469D01*
X71933082Y-50721470D01*
X71987249Y-50760824D01*
X72176582Y-50857295D01*
X72378670Y-50922957D01*
X72588554Y-50956200D01*
X72801046Y-50956200D01*
X73010927Y-50922957D01*
X73010930Y-50922957D01*
X73213017Y-50857295D01*
X73402354Y-50760822D01*
X73456516Y-50721470D01*
X73456517Y-50721470D01*
X72824208Y-50089162D01*
X72887793Y-50072125D01*
X73001807Y-50006299D01*
X73094899Y-49913207D01*
X73160725Y-49799193D01*
X73177762Y-49735608D01*
X73810070Y-50367917D01*
X73810070Y-50367916D01*
X73849422Y-50313754D01*
X73945895Y-50124417D01*
X74011557Y-49922330D01*
X74011557Y-49922327D01*
X74044800Y-49712446D01*
X74044800Y-49499953D01*
X74011557Y-49290072D01*
X74011557Y-49290069D01*
X73945895Y-49087982D01*
X73849424Y-48898649D01*
X73810070Y-48844482D01*
X73810069Y-48844482D01*
X73177762Y-49476790D01*
X73160725Y-49413207D01*
X73094899Y-49299193D01*
X73001807Y-49206101D01*
X72887793Y-49140275D01*
X72824209Y-49123237D01*
X73239110Y-48708335D01*
X76424300Y-48708335D01*
X76424300Y-50504070D01*
X76424301Y-50504076D01*
X76430708Y-50563683D01*
X76481002Y-50698528D01*
X76481006Y-50698535D01*
X76567252Y-50813744D01*
X76567255Y-50813747D01*
X76682464Y-50899993D01*
X76682471Y-50899997D01*
X76817317Y-50950291D01*
X76817316Y-50950291D01*
X76824244Y-50951035D01*
X76876927Y-50956700D01*
X78672672Y-50956699D01*
X78732283Y-50950291D01*
X78867131Y-50899996D01*
X78970490Y-50822621D01*
X79035952Y-50798204D01*
X79104225Y-50813055D01*
X79119103Y-50822616D01*
X79204593Y-50886614D01*
X79222468Y-50899995D01*
X79222471Y-50899997D01*
X79357317Y-50950291D01*
X79357316Y-50950291D01*
X79364244Y-50951035D01*
X79416927Y-50956700D01*
X81212672Y-50956699D01*
X81272283Y-50950291D01*
X81407131Y-50899996D01*
X81522346Y-50813746D01*
X81608596Y-50698531D01*
X81658891Y-50563683D01*
X81665300Y-50504073D01*
X81665299Y-48708328D01*
X81658891Y-48648717D01*
X81608596Y-48513869D01*
X81608595Y-48513868D01*
X81608593Y-48513864D01*
X81522347Y-48398655D01*
X81522344Y-48398652D01*
X81407135Y-48312406D01*
X81407128Y-48312402D01*
X81272282Y-48262108D01*
X81272283Y-48262108D01*
X81212683Y-48255701D01*
X81212681Y-48255700D01*
X81212673Y-48255700D01*
X81212664Y-48255700D01*
X79416929Y-48255700D01*
X79416923Y-48255701D01*
X79357316Y-48262108D01*
X79222471Y-48312402D01*
X79222469Y-48312403D01*
X79119111Y-48389778D01*
X79053647Y-48414195D01*
X78985374Y-48399344D01*
X78970489Y-48389778D01*
X78867130Y-48312403D01*
X78867128Y-48312402D01*
X78732282Y-48262108D01*
X78732283Y-48262108D01*
X78672683Y-48255701D01*
X78672681Y-48255700D01*
X78672673Y-48255700D01*
X78672664Y-48255700D01*
X76876929Y-48255700D01*
X76876923Y-48255701D01*
X76817316Y-48262108D01*
X76682471Y-48312402D01*
X76682464Y-48312406D01*
X76567255Y-48398652D01*
X76567252Y-48398655D01*
X76481006Y-48513864D01*
X76481002Y-48513871D01*
X76430708Y-48648717D01*
X76424301Y-48708316D01*
X76424301Y-48708323D01*
X76424300Y-48708335D01*
X73239110Y-48708335D01*
X73330120Y-48617325D01*
X73456516Y-48490928D01*
X73402350Y-48451575D01*
X73213017Y-48355104D01*
X73010929Y-48289442D01*
X72801046Y-48256200D01*
X72588554Y-48256200D01*
X72378672Y-48289442D01*
X72378669Y-48289442D01*
X72176582Y-48355104D01*
X71987239Y-48451580D01*
X71933082Y-48490927D01*
X71933082Y-48490928D01*
X72565391Y-49123237D01*
X72501807Y-49140275D01*
X72387793Y-49206101D01*
X72294701Y-49299193D01*
X72228875Y-49413207D01*
X72211837Y-49476791D01*
X71579528Y-48844482D01*
X71579527Y-48844482D01*
X71540180Y-48898640D01*
X71535283Y-48908251D01*
X71487306Y-48959045D01*
X71419484Y-48975838D01*
X71353350Y-48953298D01*
X71314316Y-48908248D01*
X71309426Y-48898652D01*
X71270070Y-48844482D01*
X71270069Y-48844482D01*
X70637762Y-49476790D01*
X70620725Y-49413207D01*
X70554899Y-49299193D01*
X70461807Y-49206101D01*
X70347793Y-49140275D01*
X70284209Y-49123237D01*
X70916516Y-48490928D01*
X70862350Y-48451575D01*
X70673017Y-48355104D01*
X70470929Y-48289442D01*
X70261046Y-48256200D01*
X70048554Y-48256200D01*
X69838672Y-48289442D01*
X69838669Y-48289442D01*
X69636582Y-48355104D01*
X69447239Y-48451580D01*
X69393082Y-48490927D01*
X69393082Y-48490928D01*
X70025391Y-49123237D01*
X69961807Y-49140275D01*
X69847793Y-49206101D01*
X69754701Y-49299193D01*
X69688875Y-49413207D01*
X69671837Y-49476791D01*
X69039528Y-48844482D01*
X69039527Y-48844482D01*
X69000180Y-48898639D01*
X68903704Y-49087982D01*
X68838042Y-49290069D01*
X68838042Y-49290072D01*
X68804800Y-49499953D01*
X62645327Y-49499953D01*
X62597651Y-49406384D01*
X62597649Y-49406381D01*
X62597648Y-49406379D01*
X62472709Y-49234413D01*
X62322386Y-49084090D01*
X62150420Y-48959151D01*
X62149715Y-48958791D01*
X62141654Y-48954685D01*
X62090859Y-48906712D01*
X62074063Y-48838892D01*
X62096599Y-48772756D01*
X62141654Y-48733715D01*
X62150416Y-48729251D01*
X62179231Y-48708316D01*
X62322386Y-48604309D01*
X62322388Y-48604306D01*
X62322392Y-48604304D01*
X62472704Y-48453992D01*
X62597651Y-48282016D01*
X62694157Y-48092612D01*
X62759846Y-47890443D01*
X62793100Y-47680487D01*
X62793100Y-47467913D01*
X62759846Y-47257957D01*
X62694157Y-47055788D01*
X62597651Y-46866384D01*
X62597649Y-46866381D01*
X62597648Y-46866379D01*
X62472709Y-46694413D01*
X62322386Y-46544090D01*
X62150420Y-46419151D01*
X62149715Y-46418791D01*
X62141654Y-46414685D01*
X62090859Y-46366712D01*
X62074063Y-46298892D01*
X62096599Y-46232756D01*
X62141654Y-46193715D01*
X62150416Y-46189251D01*
X62172389Y-46173286D01*
X62322386Y-46064309D01*
X62322388Y-46064306D01*
X62322392Y-46064304D01*
X62472704Y-45913992D01*
X62472706Y-45913988D01*
X62472709Y-45913986D01*
X62597648Y-45742020D01*
X62597647Y-45742020D01*
X62597651Y-45742016D01*
X62694157Y-45552612D01*
X62759846Y-45350443D01*
X62793100Y-45140487D01*
X62793100Y-44927913D01*
X62759846Y-44717957D01*
X62694157Y-44515788D01*
X62597651Y-44326384D01*
X62588485Y-44313769D01*
X62503566Y-44196885D01*
X62480086Y-44131079D01*
X62495912Y-44063025D01*
X62546018Y-44014330D01*
X62603884Y-44000000D01*
X64800000Y-44000000D01*
X64800000Y-38988282D01*
X72849451Y-38988282D01*
X72849451Y-39192917D01*
X72881460Y-39395017D01*
X72944695Y-39589631D01*
X73037592Y-39771950D01*
X73037598Y-39771959D01*
X73069974Y-39816521D01*
X73069975Y-39816522D01*
X73749451Y-39137046D01*
X73749451Y-39143261D01*
X73776710Y-39244994D01*
X73829371Y-39336206D01*
X73903845Y-39410680D01*
X73995057Y-39463341D01*
X74096790Y-39490600D01*
X74103004Y-39490600D01*
X73423527Y-40170074D01*
X73468101Y-40202459D01*
X73650419Y-40295355D01*
X73845033Y-40358590D01*
X74047134Y-40390600D01*
X74251768Y-40390600D01*
X74453868Y-40358590D01*
X74648482Y-40295355D01*
X74830800Y-40202459D01*
X74875372Y-40170074D01*
X74195898Y-39490600D01*
X74202112Y-39490600D01*
X74303845Y-39463341D01*
X74395057Y-39410680D01*
X74469531Y-39336206D01*
X74522192Y-39244994D01*
X74549451Y-39143261D01*
X74549451Y-39137048D01*
X75228925Y-39816522D01*
X75228925Y-39816521D01*
X75261310Y-39771949D01*
X75354206Y-39589631D01*
X75417441Y-39395017D01*
X75449451Y-39192917D01*
X75449451Y-38988282D01*
X75417441Y-38786182D01*
X75354205Y-38591565D01*
X75329832Y-38543730D01*
X75329831Y-38543729D01*
X75302752Y-38490583D01*
X76348951Y-38490583D01*
X76348951Y-39690601D01*
X76348952Y-39690618D01*
X76359451Y-39793396D01*
X76359452Y-39793399D01*
X76414636Y-39959931D01*
X76414637Y-39959934D01*
X76506739Y-40109256D01*
X76630795Y-40233312D01*
X76780117Y-40325414D01*
X76946654Y-40380599D01*
X77049442Y-40391100D01*
X78249459Y-40391099D01*
X78352248Y-40380599D01*
X78518785Y-40325414D01*
X78668107Y-40233312D01*
X78792163Y-40109256D01*
X78884265Y-39959934D01*
X78939450Y-39793397D01*
X78949951Y-39690609D01*
X78949950Y-38490592D01*
X78939450Y-38387803D01*
X78884265Y-38221266D01*
X78792163Y-38071944D01*
X78668107Y-37947888D01*
X78518785Y-37855786D01*
X78352248Y-37800601D01*
X78352246Y-37800600D01*
X78249461Y-37790100D01*
X77049449Y-37790100D01*
X77049432Y-37790101D01*
X76946654Y-37800600D01*
X76946651Y-37800601D01*
X76780119Y-37855785D01*
X76780114Y-37855787D01*
X76630793Y-37947889D01*
X76506740Y-38071942D01*
X76414638Y-38221263D01*
X76414637Y-38221266D01*
X76359452Y-38387803D01*
X76359452Y-38387804D01*
X76359451Y-38387804D01*
X76348951Y-38490583D01*
X75302752Y-38490583D01*
X75261310Y-38409250D01*
X75228925Y-38364677D01*
X75228925Y-38364676D01*
X74549451Y-39044151D01*
X74549451Y-39037939D01*
X74522192Y-38936206D01*
X74469531Y-38844994D01*
X74395057Y-38770520D01*
X74303845Y-38717859D01*
X74202112Y-38690600D01*
X74195897Y-38690600D01*
X74875373Y-38011124D01*
X74875372Y-38011123D01*
X74830810Y-37978747D01*
X74830801Y-37978741D01*
X74648482Y-37885844D01*
X74453868Y-37822609D01*
X74251768Y-37790600D01*
X74047134Y-37790600D01*
X73845033Y-37822609D01*
X73650419Y-37885844D01*
X73468095Y-37978743D01*
X73423528Y-38011123D01*
X73423528Y-38011124D01*
X74103005Y-38690600D01*
X74096790Y-38690600D01*
X73995057Y-38717859D01*
X73903845Y-38770520D01*
X73829371Y-38844994D01*
X73776710Y-38936206D01*
X73749451Y-39037939D01*
X73749451Y-39044153D01*
X73069975Y-38364677D01*
X73069974Y-38364677D01*
X73037594Y-38409244D01*
X72944695Y-38591568D01*
X72881460Y-38786182D01*
X72849451Y-38988282D01*
X64800000Y-38988282D01*
X64800000Y-38000000D01*
X40300000Y-38000000D01*
X40300000Y-44000000D01*
X21648408Y-44000000D01*
X21640935Y-43994406D01*
X21640928Y-43994402D01*
X21506082Y-43944108D01*
X21506083Y-43944108D01*
X21446483Y-43937701D01*
X21446481Y-43937700D01*
X21446473Y-43937700D01*
X21446464Y-43937700D01*
X19650729Y-43937700D01*
X19650723Y-43937701D01*
X19591116Y-43944108D01*
X19456271Y-43994402D01*
X19456264Y-43994406D01*
X19341055Y-44080652D01*
X19341052Y-44080655D01*
X19254806Y-44195864D01*
X19254802Y-44195871D01*
X19204508Y-44330717D01*
X19198101Y-44390316D01*
X19198101Y-44390323D01*
X19198100Y-44390335D01*
X10000500Y-44390335D01*
X10000500Y-36168882D01*
X20751000Y-36168882D01*
X20751000Y-36373517D01*
X20783009Y-36575617D01*
X20846244Y-36770231D01*
X20939141Y-36952550D01*
X20939147Y-36952559D01*
X20971523Y-36997121D01*
X20971524Y-36997122D01*
X21651000Y-36317646D01*
X21651000Y-36323861D01*
X21678259Y-36425594D01*
X21730920Y-36516806D01*
X21805394Y-36591280D01*
X21896606Y-36643941D01*
X21998339Y-36671200D01*
X22004553Y-36671200D01*
X21325076Y-37350674D01*
X21369650Y-37383059D01*
X21551968Y-37475955D01*
X21746582Y-37539190D01*
X21948683Y-37571200D01*
X22153317Y-37571200D01*
X22355417Y-37539190D01*
X22550031Y-37475955D01*
X22732349Y-37383059D01*
X22776921Y-37350674D01*
X22097447Y-36671200D01*
X22103661Y-36671200D01*
X22205394Y-36643941D01*
X22296606Y-36591280D01*
X22371080Y-36516806D01*
X22423741Y-36425594D01*
X22451000Y-36323861D01*
X22451000Y-36317647D01*
X23130474Y-36997121D01*
X23162859Y-36952549D01*
X23255755Y-36770231D01*
X23318990Y-36575617D01*
X23351000Y-36373517D01*
X23351000Y-36168882D01*
X23350995Y-36168848D01*
X25750500Y-36168848D01*
X25750500Y-36373551D01*
X25782522Y-36575734D01*
X25845781Y-36770423D01*
X25909691Y-36895853D01*
X25938585Y-36952559D01*
X25938715Y-36952813D01*
X26059028Y-37118413D01*
X26203786Y-37263171D01*
X26324226Y-37350674D01*
X26369390Y-37383487D01*
X26485607Y-37442703D01*
X26551776Y-37476418D01*
X26551778Y-37476418D01*
X26551781Y-37476420D01*
X26656137Y-37510327D01*
X26746465Y-37539677D01*
X26847557Y-37555688D01*
X26948648Y-37571700D01*
X26948649Y-37571700D01*
X27153351Y-37571700D01*
X27153352Y-37571700D01*
X27355534Y-37539677D01*
X27550219Y-37476420D01*
X27732610Y-37383487D01*
X27825590Y-37315932D01*
X27898213Y-37263171D01*
X27898215Y-37263168D01*
X27898219Y-37263166D01*
X28042966Y-37118419D01*
X28042968Y-37118415D01*
X28042971Y-37118413D01*
X28095732Y-37045790D01*
X28163287Y-36952810D01*
X28256220Y-36770419D01*
X28319477Y-36575734D01*
X28351500Y-36373552D01*
X28351500Y-36168848D01*
X28343257Y-36116806D01*
X28319477Y-35966665D01*
X28270269Y-35815220D01*
X28256220Y-35771981D01*
X28256218Y-35771978D01*
X28256218Y-35771976D01*
X28163419Y-35589850D01*
X28163287Y-35589590D01*
X28145613Y-35565264D01*
X28042971Y-35423986D01*
X27898213Y-35279228D01*
X27732613Y-35158915D01*
X27732612Y-35158914D01*
X27732610Y-35158913D01*
X27675653Y-35129891D01*
X27550223Y-35065981D01*
X27355534Y-35002722D01*
X27180995Y-34975078D01*
X27153352Y-34970700D01*
X26948648Y-34970700D01*
X26924329Y-34974551D01*
X26746465Y-35002722D01*
X26551776Y-35065981D01*
X26369386Y-35158915D01*
X26203786Y-35279228D01*
X26059028Y-35423986D01*
X25938715Y-35589586D01*
X25845781Y-35771976D01*
X25782522Y-35966665D01*
X25750500Y-36168848D01*
X23350995Y-36168848D01*
X23318990Y-35966782D01*
X23255755Y-35772168D01*
X23162859Y-35589850D01*
X23130474Y-35545277D01*
X23130474Y-35545276D01*
X22451000Y-36224751D01*
X22451000Y-36218539D01*
X22423741Y-36116806D01*
X22371080Y-36025594D01*
X22296606Y-35951120D01*
X22205394Y-35898459D01*
X22103661Y-35871200D01*
X22097446Y-35871200D01*
X22776922Y-35191724D01*
X22776921Y-35191723D01*
X22732359Y-35159347D01*
X22732350Y-35159341D01*
X22550031Y-35066444D01*
X22355417Y-35003209D01*
X22153317Y-34971200D01*
X21948683Y-34971200D01*
X21746582Y-35003209D01*
X21551968Y-35066444D01*
X21369644Y-35159343D01*
X21325077Y-35191723D01*
X21325077Y-35191724D01*
X22004554Y-35871200D01*
X21998339Y-35871200D01*
X21896606Y-35898459D01*
X21805394Y-35951120D01*
X21730920Y-36025594D01*
X21678259Y-36116806D01*
X21651000Y-36218539D01*
X21651000Y-36224753D01*
X20971524Y-35545277D01*
X20971523Y-35545277D01*
X20939143Y-35589844D01*
X20846244Y-35772168D01*
X20783009Y-35966782D01*
X20751000Y-36168882D01*
X10000500Y-36168882D01*
X10000500Y-34285600D01*
X48680170Y-34285600D01*
X49623054Y-34285600D01*
X49584570Y-34352257D01*
X49552200Y-34473065D01*
X49552200Y-34598135D01*
X49584570Y-34718943D01*
X49623054Y-34785600D01*
X48680170Y-34785600D01*
X48710442Y-34976727D01*
X48710442Y-34976730D01*
X48776104Y-35178817D01*
X48872579Y-35368157D01*
X48997472Y-35540059D01*
X48997476Y-35540064D01*
X49147735Y-35690323D01*
X49147740Y-35690327D01*
X49319642Y-35815220D01*
X49508982Y-35911695D01*
X49711071Y-35977357D01*
X49777200Y-35987831D01*
X49777200Y-34939745D01*
X49843857Y-34978230D01*
X49964665Y-35010600D01*
X50089735Y-35010600D01*
X50210543Y-34978230D01*
X50277200Y-34939745D01*
X50277200Y-35987830D01*
X50343326Y-35977357D01*
X50343329Y-35977357D01*
X50545417Y-35911695D01*
X50734757Y-35815220D01*
X50906659Y-35690327D01*
X50906664Y-35690323D01*
X51056921Y-35540066D01*
X51176571Y-35375381D01*
X51231901Y-35332715D01*
X51301514Y-35326736D01*
X51363310Y-35359341D01*
X51377208Y-35375381D01*
X51497090Y-35540385D01*
X51497094Y-35540390D01*
X51647413Y-35690709D01*
X51819379Y-35815648D01*
X51819381Y-35815649D01*
X51819384Y-35815651D01*
X52008788Y-35912157D01*
X52210957Y-35977846D01*
X52420913Y-36011100D01*
X52420914Y-36011100D01*
X52633486Y-36011100D01*
X52633487Y-36011100D01*
X52843443Y-35977846D01*
X53045612Y-35912157D01*
X53235016Y-35815651D01*
X53406992Y-35690704D01*
X53545804Y-35551891D01*
X53607123Y-35518409D01*
X53676815Y-35523393D01*
X53732749Y-35565264D01*
X53739021Y-35574478D01*
X53742385Y-35579933D01*
X53742386Y-35579934D01*
X53834488Y-35729256D01*
X53958544Y-35853312D01*
X54107866Y-35945414D01*
X54274403Y-36000599D01*
X54377191Y-36011100D01*
X55677208Y-36011099D01*
X55779997Y-36000599D01*
X55946534Y-35945414D01*
X56095856Y-35853312D01*
X56219912Y-35729256D01*
X56312014Y-35579934D01*
X56367199Y-35413397D01*
X56377700Y-35310609D01*
X56377699Y-33760592D01*
X56376051Y-33744463D01*
X56367199Y-33657803D01*
X56367198Y-33657800D01*
X56329304Y-33543445D01*
X56312014Y-33491266D01*
X56219912Y-33341944D01*
X56095856Y-33217888D01*
X55946534Y-33125786D01*
X55779997Y-33070601D01*
X55779995Y-33070600D01*
X55677210Y-33060100D01*
X54377198Y-33060100D01*
X54377181Y-33060101D01*
X54274403Y-33070600D01*
X54274400Y-33070601D01*
X54107868Y-33125785D01*
X54107863Y-33125787D01*
X53958542Y-33217889D01*
X53834489Y-33341942D01*
X53739021Y-33496721D01*
X53687073Y-33543445D01*
X53618110Y-33554668D01*
X53554028Y-33526824D01*
X53545801Y-33519305D01*
X53406986Y-33380490D01*
X53235020Y-33255551D01*
X53045614Y-33159044D01*
X53045613Y-33159043D01*
X53045612Y-33159043D01*
X52843443Y-33093354D01*
X52843441Y-33093353D01*
X52843440Y-33093353D01*
X52682157Y-33067808D01*
X52633487Y-33060100D01*
X52420913Y-33060100D01*
X52372242Y-33067808D01*
X52210960Y-33093353D01*
X52008785Y-33159044D01*
X51819379Y-33255551D01*
X51647413Y-33380490D01*
X51497094Y-33530809D01*
X51497090Y-33530814D01*
X51377208Y-33695818D01*
X51321878Y-33738484D01*
X51252265Y-33744463D01*
X51190470Y-33711857D01*
X51176572Y-33695818D01*
X51056927Y-33531140D01*
X51056923Y-33531135D01*
X50906664Y-33380876D01*
X50906659Y-33380872D01*
X50734757Y-33255979D01*
X50545415Y-33159503D01*
X50343324Y-33093841D01*
X50277200Y-33083368D01*
X50277200Y-34131454D01*
X50210543Y-34092970D01*
X50089735Y-34060600D01*
X49964665Y-34060600D01*
X49843857Y-34092970D01*
X49777200Y-34131454D01*
X49777200Y-33083368D01*
X49777199Y-33083368D01*
X49711075Y-33093841D01*
X49508984Y-33159503D01*
X49319642Y-33255979D01*
X49147740Y-33380872D01*
X49147735Y-33380876D01*
X48997476Y-33531135D01*
X48997472Y-33531140D01*
X48872579Y-33703042D01*
X48776104Y-33892382D01*
X48710442Y-34094469D01*
X48710442Y-34094472D01*
X48680170Y-34285600D01*
X10000500Y-34285600D01*
X10000500Y-31038082D01*
X18109400Y-31038082D01*
X18109400Y-31242717D01*
X18141409Y-31444817D01*
X18204644Y-31639431D01*
X18297541Y-31821750D01*
X18297547Y-31821759D01*
X18329923Y-31866321D01*
X18329924Y-31866322D01*
X19009400Y-31186846D01*
X19009400Y-31193061D01*
X19036659Y-31294794D01*
X19089320Y-31386006D01*
X19163794Y-31460480D01*
X19255006Y-31513141D01*
X19356739Y-31540400D01*
X19362953Y-31540400D01*
X18683476Y-32219874D01*
X18728050Y-32252259D01*
X18910368Y-32345155D01*
X19104982Y-32408390D01*
X19307083Y-32440400D01*
X19511717Y-32440400D01*
X19713817Y-32408390D01*
X19908431Y-32345155D01*
X20090749Y-32252259D01*
X20135321Y-32219874D01*
X19455847Y-31540400D01*
X19462061Y-31540400D01*
X19563794Y-31513141D01*
X19655006Y-31460480D01*
X19729480Y-31386006D01*
X19782141Y-31294794D01*
X19809400Y-31193061D01*
X19809400Y-31186847D01*
X20488874Y-31866321D01*
X20521259Y-31821749D01*
X20614155Y-31639431D01*
X20677390Y-31444817D01*
X20709400Y-31242717D01*
X20709400Y-31038082D01*
X20709395Y-31038048D01*
X28268900Y-31038048D01*
X28268900Y-31242751D01*
X28300922Y-31444934D01*
X28364181Y-31639623D01*
X28428091Y-31765053D01*
X28456985Y-31821759D01*
X28457115Y-31822013D01*
X28577428Y-31987613D01*
X28722186Y-32132371D01*
X28842626Y-32219874D01*
X28887790Y-32252687D01*
X29004007Y-32311903D01*
X29070176Y-32345618D01*
X29070178Y-32345618D01*
X29070181Y-32345620D01*
X29174537Y-32379527D01*
X29264865Y-32408877D01*
X29365957Y-32424888D01*
X29467048Y-32440900D01*
X29467049Y-32440900D01*
X29671751Y-32440900D01*
X29671752Y-32440900D01*
X29873934Y-32408877D01*
X30068619Y-32345620D01*
X30251010Y-32252687D01*
X30343990Y-32185132D01*
X30416613Y-32132371D01*
X30416615Y-32132368D01*
X30416619Y-32132366D01*
X30561366Y-31987619D01*
X30561368Y-31987615D01*
X30561371Y-31987613D01*
X30681684Y-31822014D01*
X30681685Y-31822013D01*
X30681687Y-31822010D01*
X30728916Y-31729317D01*
X30776889Y-31678523D01*
X30844710Y-31661728D01*
X30910845Y-31684265D01*
X30949885Y-31729319D01*
X30997115Y-31822014D01*
X31117428Y-31987613D01*
X31262186Y-32132371D01*
X31382626Y-32219874D01*
X31427790Y-32252687D01*
X31544007Y-32311903D01*
X31610176Y-32345618D01*
X31610178Y-32345618D01*
X31610181Y-32345620D01*
X31714537Y-32379527D01*
X31804865Y-32408877D01*
X31905957Y-32424888D01*
X32007048Y-32440900D01*
X32007049Y-32440900D01*
X32211751Y-32440900D01*
X32211752Y-32440900D01*
X32413934Y-32408877D01*
X32608619Y-32345620D01*
X32791010Y-32252687D01*
X32883990Y-32185132D01*
X32956613Y-32132371D01*
X32956615Y-32132368D01*
X32956619Y-32132366D01*
X33101366Y-31987619D01*
X33101368Y-31987615D01*
X33101371Y-31987613D01*
X33154132Y-31914990D01*
X33221687Y-31822010D01*
X33314620Y-31639619D01*
X33377877Y-31444934D01*
X33409900Y-31242752D01*
X33409900Y-31038048D01*
X40968900Y-31038048D01*
X40968900Y-31242751D01*
X41000922Y-31444934D01*
X41064181Y-31639623D01*
X41128091Y-31765053D01*
X41156985Y-31821759D01*
X41157115Y-31822013D01*
X41277428Y-31987613D01*
X41422186Y-32132371D01*
X41542626Y-32219874D01*
X41587790Y-32252687D01*
X41704007Y-32311903D01*
X41770176Y-32345618D01*
X41770178Y-32345618D01*
X41770181Y-32345620D01*
X41874537Y-32379527D01*
X41964865Y-32408877D01*
X42065957Y-32424888D01*
X42167048Y-32440900D01*
X42167049Y-32440900D01*
X42371751Y-32440900D01*
X42371752Y-32440900D01*
X42573934Y-32408877D01*
X42768619Y-32345620D01*
X42951010Y-32252687D01*
X43043990Y-32185132D01*
X43116613Y-32132371D01*
X43116615Y-32132368D01*
X43116619Y-32132366D01*
X43261366Y-31987619D01*
X43261368Y-31987615D01*
X43261371Y-31987613D01*
X43314132Y-31914990D01*
X43381687Y-31822010D01*
X43474620Y-31639619D01*
X43537877Y-31444934D01*
X43569900Y-31242752D01*
X43569900Y-31038048D01*
X43561657Y-30986006D01*
X43537877Y-30835865D01*
X43506858Y-30740400D01*
X43474620Y-30641181D01*
X43474618Y-30641178D01*
X43474618Y-30641176D01*
X43428915Y-30551480D01*
X43381687Y-30458790D01*
X43331578Y-30389820D01*
X43261371Y-30293187D01*
X43261367Y-30293182D01*
X43116613Y-30148428D01*
X42951013Y-30028115D01*
X42951012Y-30028114D01*
X42951010Y-30028113D01*
X42894053Y-29999091D01*
X42768623Y-29935181D01*
X42573934Y-29871922D01*
X42399395Y-29844278D01*
X42371752Y-29839900D01*
X42167048Y-29839900D01*
X42142729Y-29843751D01*
X41964865Y-29871922D01*
X41770176Y-29935181D01*
X41587786Y-30028115D01*
X41422186Y-30148428D01*
X41277428Y-30293186D01*
X41157115Y-30458786D01*
X41064181Y-30641176D01*
X41000922Y-30835865D01*
X40968900Y-31038048D01*
X33409900Y-31038048D01*
X33401657Y-30986006D01*
X33377877Y-30835865D01*
X33346858Y-30740400D01*
X33314620Y-30641181D01*
X33314618Y-30641178D01*
X33314618Y-30641176D01*
X33268915Y-30551480D01*
X33221687Y-30458790D01*
X33189492Y-30414477D01*
X33101371Y-30293186D01*
X32956613Y-30148428D01*
X32791013Y-30028115D01*
X32791012Y-30028114D01*
X32791010Y-30028113D01*
X32734053Y-29999091D01*
X32608623Y-29935181D01*
X32413934Y-29871922D01*
X32239395Y-29844278D01*
X32211752Y-29839900D01*
X32007048Y-29839900D01*
X31982729Y-29843751D01*
X31804865Y-29871922D01*
X31610176Y-29935181D01*
X31427786Y-30028115D01*
X31262186Y-30148428D01*
X31117428Y-30293186D01*
X30997115Y-30458786D01*
X30949885Y-30551480D01*
X30901910Y-30602276D01*
X30834089Y-30619071D01*
X30767954Y-30596534D01*
X30728915Y-30551480D01*
X30728283Y-30550240D01*
X30681687Y-30458790D01*
X30649492Y-30414477D01*
X30561371Y-30293186D01*
X30416613Y-30148428D01*
X30251013Y-30028115D01*
X30251012Y-30028114D01*
X30251010Y-30028113D01*
X30194053Y-29999091D01*
X30068623Y-29935181D01*
X29873934Y-29871922D01*
X29699395Y-29844278D01*
X29671752Y-29839900D01*
X29467048Y-29839900D01*
X29442729Y-29843751D01*
X29264865Y-29871922D01*
X29070176Y-29935181D01*
X28887786Y-30028115D01*
X28722186Y-30148428D01*
X28577428Y-30293186D01*
X28457115Y-30458786D01*
X28364181Y-30641176D01*
X28300922Y-30835865D01*
X28268900Y-31038048D01*
X20709395Y-31038048D01*
X20677390Y-30835982D01*
X20614155Y-30641368D01*
X20521259Y-30459050D01*
X20488874Y-30414477D01*
X20488874Y-30414476D01*
X19809400Y-31093951D01*
X19809400Y-31087739D01*
X19782141Y-30986006D01*
X19729480Y-30894794D01*
X19655006Y-30820320D01*
X19563794Y-30767659D01*
X19462061Y-30740400D01*
X19455846Y-30740400D01*
X20135322Y-30060924D01*
X20135321Y-30060923D01*
X20090759Y-30028547D01*
X20090750Y-30028541D01*
X19908431Y-29935644D01*
X19713817Y-29872409D01*
X19511717Y-29840400D01*
X19307083Y-29840400D01*
X19104982Y-29872409D01*
X18910368Y-29935644D01*
X18728044Y-30028543D01*
X18683477Y-30060923D01*
X18683477Y-30060924D01*
X19362954Y-30740400D01*
X19356739Y-30740400D01*
X19255006Y-30767659D01*
X19163794Y-30820320D01*
X19089320Y-30894794D01*
X19036659Y-30986006D01*
X19009400Y-31087739D01*
X19009400Y-31093953D01*
X18329924Y-30414477D01*
X18329923Y-30414477D01*
X18297543Y-30459044D01*
X18204644Y-30641368D01*
X18141409Y-30835982D01*
X18109400Y-31038082D01*
X10000500Y-31038082D01*
X10000500Y-29082282D01*
X72425400Y-29082282D01*
X72425400Y-29286917D01*
X72457409Y-29489017D01*
X72520644Y-29683631D01*
X72613541Y-29865950D01*
X72613547Y-29865959D01*
X72645923Y-29910521D01*
X72645924Y-29910522D01*
X73325400Y-29231046D01*
X73325400Y-29237261D01*
X73352659Y-29338994D01*
X73405320Y-29430206D01*
X73479794Y-29504680D01*
X73571006Y-29557341D01*
X73672739Y-29584600D01*
X73678953Y-29584600D01*
X72999476Y-30264074D01*
X73044050Y-30296459D01*
X73226368Y-30389355D01*
X73420982Y-30452590D01*
X73623083Y-30484600D01*
X73827717Y-30484600D01*
X74029817Y-30452590D01*
X74224431Y-30389355D01*
X74406749Y-30296459D01*
X74451321Y-30264074D01*
X73771847Y-29584600D01*
X73778061Y-29584600D01*
X73879794Y-29557341D01*
X73971006Y-29504680D01*
X74045480Y-29430206D01*
X74098141Y-29338994D01*
X74125400Y-29237261D01*
X74125400Y-29231048D01*
X74804874Y-29910522D01*
X74804874Y-29910521D01*
X74837259Y-29865949D01*
X74930155Y-29683631D01*
X74993390Y-29489017D01*
X75025400Y-29286917D01*
X75025400Y-29082282D01*
X75025395Y-29082248D01*
X77424900Y-29082248D01*
X77424900Y-29286951D01*
X77456922Y-29489134D01*
X77520181Y-29683823D01*
X77584091Y-29809253D01*
X77612985Y-29865959D01*
X77613115Y-29866213D01*
X77733428Y-30031813D01*
X77878186Y-30176571D01*
X77998626Y-30264074D01*
X78043790Y-30296887D01*
X78160007Y-30356103D01*
X78226176Y-30389818D01*
X78226178Y-30389818D01*
X78226181Y-30389820D01*
X78330537Y-30423727D01*
X78420865Y-30453077D01*
X78458577Y-30459050D01*
X78623048Y-30485100D01*
X78623049Y-30485100D01*
X78827751Y-30485100D01*
X78827752Y-30485100D01*
X79029934Y-30453077D01*
X79224619Y-30389820D01*
X79407010Y-30296887D01*
X79499990Y-30229332D01*
X79572613Y-30176571D01*
X79572615Y-30176568D01*
X79572619Y-30176566D01*
X79717366Y-30031819D01*
X79717368Y-30031815D01*
X79717371Y-30031813D01*
X79770132Y-29959190D01*
X79837687Y-29866210D01*
X79930620Y-29683819D01*
X79993877Y-29489134D01*
X80025900Y-29286952D01*
X80025900Y-29082248D01*
X80017657Y-29030206D01*
X79993877Y-28880065D01*
X79962858Y-28784600D01*
X79930620Y-28685381D01*
X79930618Y-28685378D01*
X79930618Y-28685376D01*
X79837819Y-28503250D01*
X79837687Y-28502990D01*
X79805492Y-28458677D01*
X79717371Y-28337386D01*
X79572613Y-28192628D01*
X79407013Y-28072315D01*
X79407012Y-28072314D01*
X79407010Y-28072313D01*
X79350053Y-28043291D01*
X79224623Y-27979381D01*
X79029934Y-27916122D01*
X78855395Y-27888478D01*
X78827752Y-27884100D01*
X78623048Y-27884100D01*
X78598729Y-27887951D01*
X78420865Y-27916122D01*
X78226176Y-27979381D01*
X78043786Y-28072315D01*
X77878186Y-28192628D01*
X77733428Y-28337386D01*
X77613115Y-28502986D01*
X77520181Y-28685376D01*
X77456922Y-28880065D01*
X77424900Y-29082248D01*
X75025395Y-29082248D01*
X74993390Y-28880182D01*
X74930155Y-28685568D01*
X74837259Y-28503250D01*
X74804874Y-28458677D01*
X74804874Y-28458676D01*
X74125400Y-29138151D01*
X74125400Y-29131939D01*
X74098141Y-29030206D01*
X74045480Y-28938994D01*
X73971006Y-28864520D01*
X73879794Y-28811859D01*
X73778061Y-28784600D01*
X73771846Y-28784600D01*
X74451322Y-28105124D01*
X74451321Y-28105123D01*
X74406759Y-28072747D01*
X74406750Y-28072741D01*
X74224431Y-27979844D01*
X74029817Y-27916609D01*
X73827717Y-27884600D01*
X73623083Y-27884600D01*
X73420982Y-27916609D01*
X73226368Y-27979844D01*
X73044044Y-28072743D01*
X72999477Y-28105123D01*
X72999477Y-28105124D01*
X73678954Y-28784600D01*
X73672739Y-28784600D01*
X73571006Y-28811859D01*
X73479794Y-28864520D01*
X73405320Y-28938994D01*
X73352659Y-29030206D01*
X73325400Y-29131939D01*
X73325400Y-29138153D01*
X72645924Y-28458677D01*
X72645923Y-28458677D01*
X72613543Y-28503244D01*
X72520644Y-28685568D01*
X72457409Y-28880182D01*
X72425400Y-29082282D01*
X10000500Y-29082282D01*
X10000500Y-21882014D01*
X48210000Y-21882014D01*
X48210000Y-22117985D01*
X48240799Y-22351914D01*
X48301870Y-22579837D01*
X48392160Y-22797819D01*
X48392165Y-22797828D01*
X48510144Y-23002171D01*
X48510145Y-23002172D01*
X48572721Y-23083723D01*
X49408958Y-22247487D01*
X49433978Y-22307890D01*
X49505112Y-22414351D01*
X49595649Y-22504888D01*
X49702110Y-22576022D01*
X49762511Y-22601041D01*
X48926275Y-23437277D01*
X49007827Y-23499854D01*
X49007828Y-23499855D01*
X49212171Y-23617834D01*
X49212180Y-23617839D01*
X49430163Y-23708129D01*
X49430161Y-23708129D01*
X49658085Y-23769200D01*
X49892014Y-23799999D01*
X49892029Y-23800000D01*
X50127971Y-23800000D01*
X50127985Y-23799999D01*
X50361914Y-23769200D01*
X50589837Y-23708129D01*
X50807819Y-23617839D01*
X50807828Y-23617834D01*
X51012181Y-23499850D01*
X51093723Y-23437279D01*
X51093723Y-23437276D01*
X50257487Y-22601041D01*
X50317890Y-22576022D01*
X50424351Y-22504888D01*
X50514888Y-22414351D01*
X50586022Y-22307890D01*
X50611041Y-22247488D01*
X51447276Y-23083723D01*
X51447279Y-23083723D01*
X51509850Y-23002181D01*
X51627834Y-22797828D01*
X51627839Y-22797819D01*
X51718129Y-22579837D01*
X51779200Y-22351914D01*
X51809999Y-22117985D01*
X51810000Y-22117971D01*
X51810000Y-21882028D01*
X51809999Y-21882014D01*
X51779200Y-21648085D01*
X51718129Y-21420162D01*
X51627839Y-21202180D01*
X51627834Y-21202171D01*
X51509855Y-20997828D01*
X51509848Y-20997817D01*
X51490286Y-20972324D01*
X51490283Y-20972321D01*
X51447277Y-20916275D01*
X50611041Y-21752511D01*
X50586022Y-21692110D01*
X50514888Y-21585649D01*
X50424351Y-21495112D01*
X50317890Y-21423978D01*
X50257488Y-21398958D01*
X50756462Y-20899983D01*
X53289500Y-20899983D01*
X53289500Y-23100001D01*
X53289501Y-23100018D01*
X53300000Y-23202796D01*
X53300001Y-23202799D01*
X53343511Y-23334102D01*
X53355186Y-23369334D01*
X53447288Y-23518656D01*
X53571344Y-23642712D01*
X53720666Y-23734814D01*
X53887203Y-23789999D01*
X53989991Y-23800500D01*
X56190008Y-23800499D01*
X56292797Y-23789999D01*
X56459334Y-23734814D01*
X56608656Y-23642712D01*
X56732712Y-23518656D01*
X56824814Y-23369334D01*
X56879999Y-23202797D01*
X56890500Y-23100009D01*
X56890499Y-22469175D01*
X64263800Y-22469175D01*
X64263800Y-22692024D01*
X64292885Y-22912954D01*
X64292888Y-22912967D01*
X64350563Y-23128218D01*
X64435845Y-23334102D01*
X64435854Y-23334120D01*
X64547264Y-23527091D01*
X64547273Y-23527104D01*
X64597840Y-23593003D01*
X64597843Y-23593003D01*
X65399187Y-22791658D01*
X65404689Y-22812191D01*
X65483681Y-22949008D01*
X65595392Y-23060719D01*
X65732209Y-23139711D01*
X65752740Y-23145212D01*
X64951395Y-23946555D01*
X64951395Y-23946556D01*
X65017307Y-23997133D01*
X65210285Y-24108549D01*
X65210297Y-24108554D01*
X65416181Y-24193836D01*
X65631432Y-24251511D01*
X65631445Y-24251514D01*
X65852375Y-24280600D01*
X66075225Y-24280600D01*
X66296154Y-24251514D01*
X66296167Y-24251511D01*
X66511418Y-24193836D01*
X66717302Y-24108554D01*
X66717314Y-24108549D01*
X66910298Y-23997130D01*
X66976203Y-23946557D01*
X66976204Y-23946556D01*
X66174859Y-23145212D01*
X66195391Y-23139711D01*
X66332208Y-23060719D01*
X66443919Y-22949008D01*
X66522911Y-22812191D01*
X66528412Y-22791659D01*
X67329756Y-23593004D01*
X67329757Y-23593003D01*
X67380330Y-23527098D01*
X67491749Y-23334114D01*
X67491754Y-23334102D01*
X67577036Y-23128218D01*
X67634711Y-22912967D01*
X67634714Y-22912954D01*
X67663800Y-22692024D01*
X67663800Y-22469175D01*
X67634714Y-22248245D01*
X67634711Y-22248232D01*
X67577036Y-22032981D01*
X67491754Y-21827097D01*
X67491749Y-21827085D01*
X67383410Y-21639435D01*
X67380333Y-21634106D01*
X67339263Y-21580584D01*
X76963300Y-21580584D01*
X76963300Y-23580615D01*
X76973800Y-23683395D01*
X76973801Y-23683397D01*
X76990838Y-23734812D01*
X77028986Y-23849935D01*
X77028987Y-23849937D01*
X77121086Y-23999251D01*
X77121089Y-23999255D01*
X77245144Y-24123310D01*
X77245148Y-24123313D01*
X77394462Y-24215412D01*
X77394464Y-24215413D01*
X77394466Y-24215414D01*
X77561003Y-24270599D01*
X77663792Y-24281100D01*
X77663797Y-24281100D01*
X79663803Y-24281100D01*
X79663808Y-24281100D01*
X79766597Y-24270599D01*
X79933134Y-24215414D01*
X80082455Y-24123311D01*
X80206511Y-23999255D01*
X80298614Y-23849934D01*
X80353799Y-23683397D01*
X80364300Y-23580608D01*
X80364300Y-21580592D01*
X80353799Y-21477803D01*
X80298614Y-21311266D01*
X80268593Y-21262595D01*
X80206513Y-21161948D01*
X80206510Y-21161944D01*
X80082455Y-21037889D01*
X80082451Y-21037886D01*
X79933137Y-20945787D01*
X79933135Y-20945786D01*
X79844076Y-20916275D01*
X79766597Y-20890601D01*
X79766595Y-20890600D01*
X79663815Y-20880100D01*
X79663808Y-20880100D01*
X77663792Y-20880100D01*
X77663784Y-20880100D01*
X77561004Y-20890600D01*
X77561003Y-20890601D01*
X77394464Y-20945786D01*
X77394462Y-20945787D01*
X77245148Y-21037886D01*
X77245144Y-21037889D01*
X77121089Y-21161944D01*
X77121086Y-21161948D01*
X77028987Y-21311262D01*
X77028986Y-21311264D01*
X76973801Y-21477803D01*
X76973800Y-21477804D01*
X76963300Y-21580584D01*
X67339263Y-21580584D01*
X67329756Y-21568195D01*
X67329755Y-21568195D01*
X66528412Y-22369539D01*
X66522911Y-22349009D01*
X66443919Y-22212192D01*
X66332208Y-22100481D01*
X66195391Y-22021489D01*
X66174858Y-22015987D01*
X66976203Y-21214643D01*
X66976203Y-21214640D01*
X66910304Y-21164073D01*
X66910291Y-21164064D01*
X66717320Y-21052654D01*
X66717302Y-21052645D01*
X66511418Y-20967363D01*
X66296167Y-20909688D01*
X66296154Y-20909685D01*
X66075225Y-20880600D01*
X65852375Y-20880600D01*
X65631445Y-20909685D01*
X65631432Y-20909688D01*
X65416181Y-20967363D01*
X65210297Y-21052645D01*
X65210279Y-21052654D01*
X65017311Y-21164062D01*
X64951395Y-21214642D01*
X65752741Y-22015987D01*
X65732209Y-22021489D01*
X65595392Y-22100481D01*
X65483681Y-22212192D01*
X65404689Y-22349009D01*
X65399187Y-22369540D01*
X64597842Y-21568195D01*
X64547262Y-21634111D01*
X64435854Y-21827079D01*
X64435845Y-21827097D01*
X64350563Y-22032981D01*
X64292888Y-22248232D01*
X64292885Y-22248245D01*
X64263800Y-22469175D01*
X56890499Y-22469175D01*
X56890499Y-22000000D01*
X56890499Y-21262595D01*
X56890499Y-20899998D01*
X56890498Y-20899981D01*
X56879999Y-20797203D01*
X56879998Y-20797200D01*
X56824814Y-20630666D01*
X56732712Y-20481344D01*
X56608656Y-20357288D01*
X56459334Y-20265186D01*
X56292797Y-20210001D01*
X56292795Y-20210000D01*
X56190010Y-20199500D01*
X53989998Y-20199500D01*
X53989981Y-20199501D01*
X53887203Y-20210000D01*
X53887200Y-20210001D01*
X53720668Y-20265185D01*
X53720663Y-20265187D01*
X53571342Y-20357289D01*
X53447289Y-20481342D01*
X53355187Y-20630663D01*
X53355186Y-20630666D01*
X53300001Y-20797203D01*
X53300001Y-20797204D01*
X53300000Y-20797204D01*
X53289500Y-20899983D01*
X50756462Y-20899983D01*
X51093723Y-20562721D01*
X51012172Y-20500145D01*
X51012171Y-20500144D01*
X50807828Y-20382165D01*
X50807819Y-20382160D01*
X50589836Y-20291870D01*
X50589838Y-20291870D01*
X50361914Y-20230799D01*
X50127985Y-20200000D01*
X49892014Y-20200000D01*
X49658085Y-20230799D01*
X49430162Y-20291870D01*
X49212180Y-20382160D01*
X49212171Y-20382165D01*
X49007828Y-20500144D01*
X49007818Y-20500150D01*
X48926275Y-20562720D01*
X48926275Y-20562721D01*
X49762512Y-21398958D01*
X49702110Y-21423978D01*
X49595649Y-21495112D01*
X49505112Y-21585649D01*
X49433978Y-21692110D01*
X49408958Y-21752512D01*
X48572721Y-20916275D01*
X48572720Y-20916275D01*
X48510150Y-20997818D01*
X48510144Y-20997828D01*
X48392165Y-21202171D01*
X48392160Y-21202180D01*
X48301870Y-21420162D01*
X48240799Y-21648085D01*
X48210000Y-21882014D01*
X10000500Y-21882014D01*
X10000500Y-19881995D01*
X11199500Y-19881995D01*
X11199500Y-20118004D01*
X11199501Y-20118020D01*
X11218875Y-20265185D01*
X11230307Y-20352014D01*
X11238385Y-20382160D01*
X11291394Y-20579993D01*
X11381714Y-20798045D01*
X11381719Y-20798056D01*
X11440572Y-20899991D01*
X11499727Y-21002450D01*
X11499729Y-21002453D01*
X11499730Y-21002454D01*
X11643406Y-21189697D01*
X11643412Y-21189704D01*
X11810295Y-21356587D01*
X11810301Y-21356592D01*
X11997550Y-21500273D01*
X12128918Y-21576118D01*
X12201943Y-21618280D01*
X12201948Y-21618282D01*
X12201951Y-21618284D01*
X12420007Y-21708606D01*
X12647986Y-21769693D01*
X12881989Y-21800500D01*
X12881996Y-21800500D01*
X13118004Y-21800500D01*
X13118011Y-21800500D01*
X13352014Y-21769693D01*
X13579993Y-21708606D01*
X13798049Y-21618284D01*
X14002450Y-21500273D01*
X14189699Y-21356592D01*
X14356592Y-21189699D01*
X14500273Y-21002450D01*
X14618284Y-20798049D01*
X14708606Y-20579993D01*
X14769693Y-20352014D01*
X14800500Y-20118011D01*
X14800500Y-19881995D01*
X82699500Y-19881995D01*
X82699500Y-20118004D01*
X82699501Y-20118020D01*
X82718875Y-20265185D01*
X82730307Y-20352014D01*
X82738385Y-20382160D01*
X82791394Y-20579993D01*
X82881714Y-20798045D01*
X82881719Y-20798056D01*
X82940572Y-20899991D01*
X82999727Y-21002450D01*
X82999729Y-21002453D01*
X82999730Y-21002454D01*
X83143406Y-21189697D01*
X83143412Y-21189704D01*
X83310295Y-21356587D01*
X83310301Y-21356592D01*
X83497550Y-21500273D01*
X83628918Y-21576118D01*
X83701943Y-21618280D01*
X83701948Y-21618282D01*
X83701951Y-21618284D01*
X83920007Y-21708606D01*
X84147986Y-21769693D01*
X84381989Y-21800500D01*
X84381996Y-21800500D01*
X84618004Y-21800500D01*
X84618011Y-21800500D01*
X84852014Y-21769693D01*
X85079993Y-21708606D01*
X85298049Y-21618284D01*
X85502450Y-21500273D01*
X85689699Y-21356592D01*
X85856592Y-21189699D01*
X86000273Y-21002450D01*
X86118284Y-20798049D01*
X86208606Y-20579993D01*
X86269693Y-20352014D01*
X86300500Y-20118011D01*
X86300500Y-19881989D01*
X86269693Y-19647986D01*
X86208606Y-19420007D01*
X86118284Y-19201951D01*
X86118282Y-19201948D01*
X86118280Y-19201943D01*
X86076118Y-19128918D01*
X86000273Y-18997550D01*
X85856592Y-18810301D01*
X85856587Y-18810295D01*
X85689704Y-18643412D01*
X85689697Y-18643406D01*
X85502454Y-18499730D01*
X85502453Y-18499729D01*
X85502450Y-18499727D01*
X85420957Y-18452677D01*
X85298056Y-18381719D01*
X85298045Y-18381714D01*
X85079993Y-18291394D01*
X84852010Y-18230306D01*
X84618020Y-18199501D01*
X84618017Y-18199500D01*
X84618011Y-18199500D01*
X84381989Y-18199500D01*
X84381983Y-18199500D01*
X84381979Y-18199501D01*
X84147989Y-18230306D01*
X83920006Y-18291394D01*
X83701954Y-18381714D01*
X83701943Y-18381719D01*
X83497545Y-18499730D01*
X83310302Y-18643406D01*
X83310295Y-18643412D01*
X83143412Y-18810295D01*
X83143406Y-18810302D01*
X82999730Y-18997545D01*
X82881719Y-19201943D01*
X82881714Y-19201954D01*
X82791394Y-19420006D01*
X82730306Y-19647989D01*
X82699501Y-19881979D01*
X82699500Y-19881995D01*
X14800500Y-19881995D01*
X14800500Y-19881989D01*
X14769693Y-19647986D01*
X14708606Y-19420007D01*
X14618284Y-19201951D01*
X14618282Y-19201948D01*
X14618280Y-19201943D01*
X14576118Y-19128918D01*
X14500273Y-18997550D01*
X14356592Y-18810301D01*
X14356587Y-18810295D01*
X14189704Y-18643412D01*
X14189697Y-18643406D01*
X14002454Y-18499730D01*
X14002453Y-18499729D01*
X14002450Y-18499727D01*
X13920957Y-18452677D01*
X13798056Y-18381719D01*
X13798045Y-18381714D01*
X13579993Y-18291394D01*
X13352010Y-18230306D01*
X13118020Y-18199501D01*
X13118017Y-18199500D01*
X13118011Y-18199500D01*
X12881989Y-18199500D01*
X12881983Y-18199500D01*
X12881979Y-18199501D01*
X12647989Y-18230306D01*
X12420006Y-18291394D01*
X12201954Y-18381714D01*
X12201943Y-18381719D01*
X11997545Y-18499730D01*
X11810302Y-18643406D01*
X11810295Y-18643412D01*
X11643412Y-18810295D01*
X11643406Y-18810302D01*
X11499730Y-18997545D01*
X11381719Y-19201943D01*
X11381714Y-19201954D01*
X11291394Y-19420006D01*
X11230306Y-19647989D01*
X11199501Y-19881979D01*
X11199500Y-19881995D01*
X10000500Y-19881995D01*
X10000500Y-17124500D01*
X10020185Y-17057461D01*
X10072989Y-17011706D01*
X10124500Y-17000500D01*
X87375500Y-17000500D01*
X87442539Y-17020185D01*
G37*
%TD.AperFunction*%
%TD*%
M02*
